G04 #@! TF.GenerationSoftware,KiCad,Pcbnew,(7.0.0)*
G04 #@! TF.CreationDate,2023-05-15T22:10:03-07:00*
G04 #@! TF.ProjectId,pcb-hotswap-rails,7063622d-686f-4747-9377-61702d726169,1.0*
G04 #@! TF.SameCoordinates,Original*
G04 #@! TF.FileFunction,Legend,Bot*
G04 #@! TF.FilePolarity,Positive*
%FSLAX46Y46*%
G04 Gerber Fmt 4.6, Leading zero omitted, Abs format (unit mm)*
G04 Created by KiCad (PCBNEW (7.0.0)) date 2023-05-15 22:10:03*
%MOMM*%
%LPD*%
G01*
G04 APERTURE LIST*
%ADD10C,0.100000*%
%ADD11C,0.120000*%
%ADD12C,0.200000*%
%ADD13C,0.254000*%
G04 APERTURE END LIST*
G04 #@! TO.C,D16*
G36*
X32899500Y86870001D02*
G01*
X31999500Y86870001D01*
X32899500Y87770001D01*
X32899500Y86870001D01*
G37*
D10*
X32899500Y86870001D02*
X31999500Y86870001D01*
X32899500Y87770001D01*
X32899500Y86870001D01*
D11*
G04 #@! TO.C,MX18*
X53174500Y81700000D02*
X58274500Y81700000D01*
X57074500Y77500000D02*
X62174500Y77500000D01*
X53174500Y81700000D02*
G75*
G03*
X51174500Y79700000I-1J-1999999D01*
G01*
X57074500Y77500000D02*
G75*
G03*
X55074500Y75500000I-1J-1999999D01*
G01*
G04 #@! TO.C,MX6*
X100799500Y100750000D02*
X105899500Y100750000D01*
X104699500Y96550000D02*
X109799500Y96550000D01*
X100799500Y100750000D02*
G75*
G03*
X98799500Y98750000I-1J-1999999D01*
G01*
X104699500Y96550000D02*
G75*
G03*
X102699500Y94550000I-1J-1999999D01*
G01*
G04 #@! TO.C,MX67*
X291299500Y24550000D02*
X296399500Y24550000D01*
X295199500Y20350000D02*
X300299500Y20350000D01*
X291299500Y24550000D02*
G75*
G03*
X289299500Y22550000I-1J-1999999D01*
G01*
X295199500Y20350000D02*
G75*
G03*
X293199500Y18350000I-1J-1999999D01*
G01*
G04 #@! TO.C,D65*
G36*
X151962000Y29720001D02*
G01*
X151062000Y29720001D01*
X151962000Y30620001D01*
X151962000Y29720001D01*
G37*
D10*
X151962000Y29720001D02*
X151062000Y29720001D01*
X151962000Y30620001D01*
X151962000Y29720001D01*
G04 #@! TO.C,D81*
G36*
X261499500Y10670001D02*
G01*
X260599500Y10670001D01*
X261499500Y11570001D01*
X261499500Y10670001D01*
G37*
X261499500Y10670001D02*
X260599500Y10670001D01*
X261499500Y11570001D01*
X261499500Y10670001D01*
G04 #@! TO.C,D72*
G36*
X299599500Y29720001D02*
G01*
X298699500Y29720001D01*
X299599500Y30620001D01*
X299599500Y29720001D01*
G37*
X299599500Y29720001D02*
X298699500Y29720001D01*
X299599500Y30620001D01*
X299599500Y29720001D01*
D11*
G04 #@! TO.C,MX59*
X7930750Y24550000D02*
X13030750Y24550000D01*
X11830750Y20350000D02*
X16930750Y20350000D01*
X7930750Y24550000D02*
G75*
G03*
X5930750Y22550000I-1J-1999999D01*
G01*
X11830750Y20350000D02*
G75*
G03*
X9830750Y18350000I-1J-1999999D01*
G01*
G04 #@! TO.C,MX36*
X115087000Y62650000D02*
X120187000Y62650000D01*
X118987000Y58450000D02*
X124087000Y58450000D01*
X115087000Y62650000D02*
G75*
G03*
X113087000Y60650000I-1J-1999999D01*
G01*
X118987000Y58450000D02*
G75*
G03*
X116987000Y56450000I-1J-1999999D01*
G01*
G04 #@! TO.C,MX2*
X24599500Y100750000D02*
X29699500Y100750000D01*
X28499500Y96550000D02*
X33599500Y96550000D01*
X24599500Y100750000D02*
G75*
G03*
X22599500Y98750000I-1J-1999999D01*
G01*
X28499500Y96550000D02*
G75*
G03*
X26499500Y94550000I-1J-1999999D01*
G01*
G04 #@! TO.C,D25*
G36*
X204349500Y86870001D02*
G01*
X203449500Y86870001D01*
X204349500Y87770001D01*
X204349500Y86870001D01*
G37*
D10*
X204349500Y86870001D02*
X203449500Y86870001D01*
X204349500Y87770001D01*
X204349500Y86870001D01*
G04 #@! TO.C,D17*
G36*
X51949500Y86870001D02*
G01*
X51049500Y86870001D01*
X51949500Y87770001D01*
X51949500Y86870001D01*
G37*
X51949500Y86870001D02*
X51049500Y86870001D01*
X51949500Y87770001D01*
X51949500Y86870001D01*
G04 #@! TO.C,D78*
G36*
X171012000Y10670001D02*
G01*
X170112000Y10670001D01*
X171012000Y11570001D01*
X171012000Y10670001D01*
G37*
X171012000Y10670001D02*
X170112000Y10670001D01*
X171012000Y11570001D01*
X171012000Y10670001D01*
G04 #@! TO.C,D71*
G36*
X280549500Y29720001D02*
G01*
X279649500Y29720001D01*
X280549500Y30620001D01*
X280549500Y29720001D01*
G37*
X280549500Y29720001D02*
X279649500Y29720001D01*
X280549500Y30620001D01*
X280549500Y29720001D01*
D11*
G04 #@! TO.C,MX60*
X31743250Y24550000D02*
X36843250Y24550000D01*
X35643250Y20350000D02*
X40743250Y20350000D01*
X31743250Y24550000D02*
G75*
G03*
X29743250Y22550000I-1J-1999999D01*
G01*
X35643250Y20350000D02*
G75*
G03*
X33643250Y18350000I-1J-1999999D01*
G01*
G04 #@! TO.C,MX58*
X291299500Y43600000D02*
X296399500Y43600000D01*
X295199500Y39400000D02*
X300299500Y39400000D01*
X291299500Y43600000D02*
G75*
G03*
X289299500Y41600000I-1J-1999999D01*
G01*
X295199500Y39400000D02*
G75*
G03*
X293199500Y37400000I-1J-1999999D01*
G01*
G04 #@! TO.C,D29*
G36*
X299599500Y86870001D02*
G01*
X298699500Y86870001D01*
X299599500Y87770001D01*
X299599500Y86870001D01*
G37*
D10*
X299599500Y86870001D02*
X298699500Y86870001D01*
X299599500Y87770001D01*
X299599500Y86870001D01*
G04 #@! TO.C,D48*
G36*
X85287000Y48770001D02*
G01*
X84387000Y48770001D01*
X85287000Y49670001D01*
X85287000Y48770001D01*
G37*
X85287000Y48770001D02*
X84387000Y48770001D01*
X85287000Y49670001D01*
X85287000Y48770001D01*
D11*
G04 #@! TO.C,MX20*
X91274500Y81700000D02*
X96374500Y81700000D01*
X95174500Y77500000D02*
X100274500Y77500000D01*
X91274500Y81700000D02*
G75*
G03*
X89274500Y79700000I-1J-1999999D01*
G01*
X95174500Y77500000D02*
G75*
G03*
X93174500Y75500000I-1J-1999999D01*
G01*
G04 #@! TO.C,MX40*
X191287000Y62650000D02*
X196387000Y62650000D01*
X195187000Y58450000D02*
X200287000Y58450000D01*
X191287000Y62650000D02*
G75*
G03*
X189287000Y60650000I-1J-1999999D01*
G01*
X195187000Y58450000D02*
G75*
G03*
X193187000Y56450000I-1J-1999999D01*
G01*
G04 #@! TO.C,D73*
G36*
X16230750Y10670001D02*
G01*
X15330750Y10670001D01*
X16230750Y11570001D01*
X16230750Y10670001D01*
G37*
D10*
X16230750Y10670001D02*
X15330750Y10670001D01*
X16230750Y11570001D01*
X16230750Y10670001D01*
G04 #@! TO.C,D67*
G36*
X190062000Y29720001D02*
G01*
X189162000Y29720001D01*
X190062000Y30620001D01*
X190062000Y29720001D01*
G37*
X190062000Y29720001D02*
X189162000Y29720001D01*
X190062000Y30620001D01*
X190062000Y29720001D01*
D11*
G04 #@! TO.C,MX28*
X243674500Y81700000D02*
X248774500Y81700000D01*
X247574500Y77500000D02*
X252674500Y77500000D01*
X243674500Y81700000D02*
G75*
G03*
X241674500Y79700000I-1J-1999999D01*
G01*
X247574500Y77500000D02*
G75*
G03*
X245574500Y75500000I-1J-1999999D01*
G01*
G04 #@! TO.C,D37*
G36*
X156724500Y67820001D02*
G01*
X155824500Y67820001D01*
X156724500Y68720001D01*
X156724500Y67820001D01*
G37*
D10*
X156724500Y67820001D02*
X155824500Y67820001D01*
X156724500Y68720001D01*
X156724500Y67820001D01*
D11*
G04 #@! TO.C,MX52*
X162712000Y43600000D02*
X167812000Y43600000D01*
X166612000Y39400000D02*
X171712000Y39400000D01*
X162712000Y43600000D02*
G75*
G03*
X160712000Y41600000I-1J-1999999D01*
G01*
X166612000Y39400000D02*
G75*
G03*
X164612000Y37400000I-1J-1999999D01*
G01*
G04 #@! TO.C,D28*
G36*
X271024500Y86870001D02*
G01*
X270124500Y86870001D01*
X271024500Y87770001D01*
X271024500Y86870001D01*
G37*
D10*
X271024500Y86870001D02*
X270124500Y86870001D01*
X271024500Y87770001D01*
X271024500Y86870001D01*
D11*
G04 #@! TO.C,MX8*
X147099500Y86950000D02*
X141999500Y86950000D01*
X143199500Y91150000D02*
X138099500Y91150000D01*
X147099500Y86950000D02*
G75*
G03*
X149099500Y88950000I1J1999999D01*
G01*
X143199500Y91150000D02*
G75*
G03*
X145199500Y93150000I1J1999999D01*
G01*
G04 #@! TO.C,MX12*
X215099500Y100750000D02*
X220199500Y100750000D01*
X218999500Y96550000D02*
X224099500Y96550000D01*
X215099500Y100750000D02*
G75*
G03*
X213099500Y98750000I-1J-1999999D01*
G01*
X218999500Y96550000D02*
G75*
G03*
X216999500Y94550000I-1J-1999999D01*
G01*
G04 #@! TO.C,MX46*
X48412000Y43600000D02*
X53512000Y43600000D01*
X52312000Y39400000D02*
X57412000Y39400000D01*
X48412000Y43600000D02*
G75*
G03*
X46412000Y41600000I-1J-1999999D01*
G01*
X52312000Y39400000D02*
G75*
G03*
X50312000Y37400000I-1J-1999999D01*
G01*
G04 #@! TO.C,MX38*
X153187000Y62650000D02*
X158287000Y62650000D01*
X157087000Y58450000D02*
X162187000Y58450000D01*
X153187000Y62650000D02*
G75*
G03*
X151187000Y60650000I-1J-1999999D01*
G01*
X157087000Y58450000D02*
G75*
G03*
X155087000Y56450000I-1J-1999999D01*
G01*
G04 #@! TO.C,D51*
G36*
X142437000Y48770001D02*
G01*
X141537000Y48770001D01*
X142437000Y49670001D01*
X142437000Y48770001D01*
G37*
D10*
X142437000Y48770001D02*
X141537000Y48770001D01*
X142437000Y49670001D01*
X142437000Y48770001D01*
G04 #@! TO.C,D38*
G36*
X175774500Y67820001D02*
G01*
X174874500Y67820001D01*
X175774500Y68720001D01*
X175774500Y67820001D01*
G37*
X175774500Y67820001D02*
X174874500Y67820001D01*
X175774500Y68720001D01*
X175774500Y67820001D01*
D11*
G04 #@! TO.C,MX29*
X267487000Y81700000D02*
X272587000Y81700000D01*
X271387000Y77500000D02*
X276487000Y77500000D01*
X267487000Y81700000D02*
G75*
G03*
X265487000Y79700000I-1J-1999999D01*
G01*
X271387000Y77500000D02*
G75*
G03*
X269387000Y75500000I-1J-1999999D01*
G01*
G04 #@! TO.C,D55*
G36*
X218637000Y48770001D02*
G01*
X217737000Y48770001D01*
X218637000Y49670001D01*
X218637000Y48770001D01*
G37*
D10*
X218637000Y48770001D02*
X217737000Y48770001D01*
X218637000Y49670001D01*
X218637000Y48770001D01*
G04 #@! TO.C,D76*
G36*
X99574500Y10670001D02*
G01*
X98674500Y10670001D01*
X99574500Y11570001D01*
X99574500Y10670001D01*
G37*
X99574500Y10670001D02*
X98674500Y10670001D01*
X99574500Y11570001D01*
X99574500Y10670001D01*
D11*
G04 #@! TO.C,MX33*
X57937000Y62650000D02*
X63037000Y62650000D01*
X61837000Y58450000D02*
X66937000Y58450000D01*
X57937000Y62650000D02*
G75*
G03*
X55937000Y60650000I-1J-1999999D01*
G01*
X61837000Y58450000D02*
G75*
G03*
X59837000Y56450000I-1J-1999999D01*
G01*
G04 #@! TO.C,D15*
G36*
X13849500Y86870001D02*
G01*
X12949500Y86870001D01*
X13849500Y87770001D01*
X13849500Y86870001D01*
G37*
D10*
X13849500Y86870001D02*
X12949500Y86870001D01*
X13849500Y87770001D01*
X13849500Y86870001D01*
D11*
G04 #@! TO.C,MX43*
X260343250Y62650000D02*
X265443250Y62650000D01*
X264243250Y58450000D02*
X269343250Y58450000D01*
X260343250Y62650000D02*
G75*
G03*
X258343250Y60650000I-1J-1999999D01*
G01*
X264243250Y58450000D02*
G75*
G03*
X262243250Y56450000I-1J-1999999D01*
G01*
G04 #@! TO.C,D74*
G36*
X40043250Y10670001D02*
G01*
X39143250Y10670001D01*
X40043250Y11570001D01*
X40043250Y10670001D01*
G37*
D10*
X40043250Y10670001D02*
X39143250Y10670001D01*
X40043250Y11570001D01*
X40043250Y10670001D01*
G04 #@! TO.C,D27*
G36*
X242449500Y86870001D02*
G01*
X241549500Y86870001D01*
X242449500Y87770001D01*
X242449500Y86870001D01*
G37*
X242449500Y86870001D02*
X241549500Y86870001D01*
X242449500Y87770001D01*
X242449500Y86870001D01*
D11*
G04 #@! TO.C,MX34*
X76987000Y62650000D02*
X82087000Y62650000D01*
X80887000Y58450000D02*
X85987000Y58450000D01*
X76987000Y62650000D02*
G75*
G03*
X74987000Y60650000I-1J-1999999D01*
G01*
X80887000Y58450000D02*
G75*
G03*
X78887000Y56450000I-1J-1999999D01*
G01*
G04 #@! TO.C,MX9*
X166149500Y86950000D02*
X161049500Y86950000D01*
X162249500Y91150000D02*
X157149500Y91150000D01*
X166149500Y86950000D02*
G75*
G03*
X168149500Y88950000I1J1999999D01*
G01*
X162249500Y91150000D02*
G75*
G03*
X164249500Y93150000I1J1999999D01*
G01*
G04 #@! TO.C,D58*
G36*
X299599500Y48770001D02*
G01*
X298699500Y48770001D01*
X299599500Y49670001D01*
X299599500Y48770001D01*
G37*
D10*
X299599500Y48770001D02*
X298699500Y48770001D01*
X299599500Y49670001D01*
X299599500Y48770001D01*
D11*
G04 #@! TO.C,MX64*
X222243250Y24550000D02*
X227343250Y24550000D01*
X226143250Y20350000D02*
X231243250Y20350000D01*
X222243250Y24550000D02*
G75*
G03*
X220243250Y22550000I-1J-1999999D01*
G01*
X226143250Y20350000D02*
G75*
G03*
X224143250Y18350000I-1J-1999999D01*
G01*
G04 #@! TO.C,MX62*
X126993250Y24550000D02*
X132093250Y24550000D01*
X130893250Y20350000D02*
X135993250Y20350000D01*
X126993250Y24550000D02*
G75*
G03*
X124993250Y22550000I-1J-1999999D01*
G01*
X130893250Y20350000D02*
G75*
G03*
X128893250Y18350000I-1J-1999999D01*
G01*
G04 #@! TO.C,MX1*
X5549500Y100750000D02*
X10649500Y100750000D01*
X9449500Y96550000D02*
X14549500Y96550000D01*
X5549500Y100750000D02*
G75*
G03*
X3549500Y98750000I-1J-1999999D01*
G01*
X9449500Y96550000D02*
G75*
G03*
X7449500Y94550000I-1J-1999999D01*
G01*
G04 #@! TO.C,D54*
G36*
X199587000Y48770001D02*
G01*
X198687000Y48770001D01*
X199587000Y49670001D01*
X199587000Y48770001D01*
G37*
D10*
X199587000Y48770001D02*
X198687000Y48770001D01*
X199587000Y49670001D01*
X199587000Y48770001D01*
G04 #@! TO.C,D22*
G36*
X138799500Y99929999D02*
G01*
X138799500Y100829999D01*
X139699500Y100829999D01*
X138799500Y99929999D01*
G37*
X138799500Y99929999D02*
X138799500Y100829999D01*
X139699500Y100829999D01*
X138799500Y99929999D01*
D11*
G04 #@! TO.C,MX54*
X200812000Y43600000D02*
X205912000Y43600000D01*
X204712000Y39400000D02*
X209812000Y39400000D01*
X200812000Y43600000D02*
G75*
G03*
X198812000Y41600000I-1J-1999999D01*
G01*
X204712000Y39400000D02*
G75*
G03*
X202712000Y37400000I-1J-1999999D01*
G01*
G04 #@! TO.C,MX48*
X86512000Y43600000D02*
X91612000Y43600000D01*
X90412000Y39400000D02*
X95512000Y39400000D01*
X86512000Y43600000D02*
G75*
G03*
X84512000Y41600000I-1J-1999999D01*
G01*
X90412000Y39400000D02*
G75*
G03*
X88412000Y37400000I-1J-1999999D01*
G01*
G04 #@! TO.C,D52*
G36*
X161487000Y48770001D02*
G01*
X160587000Y48770001D01*
X161487000Y49670001D01*
X161487000Y48770001D01*
G37*
D10*
X161487000Y48770001D02*
X160587000Y48770001D01*
X161487000Y49670001D01*
X161487000Y48770001D01*
D11*
G04 #@! TO.C,MX35*
X96037000Y62650000D02*
X101137000Y62650000D01*
X99937000Y58450000D02*
X105037000Y58450000D01*
X96037000Y62650000D02*
G75*
G03*
X94037000Y60650000I-1J-1999999D01*
G01*
X99937000Y58450000D02*
G75*
G03*
X97937000Y56450000I-1J-1999999D01*
G01*
G04 #@! TO.C,D40*
G36*
X213874500Y67820001D02*
G01*
X212974500Y67820001D01*
X213874500Y68720001D01*
X213874500Y67820001D01*
G37*
D10*
X213874500Y67820001D02*
X212974500Y67820001D01*
X213874500Y68720001D01*
X213874500Y67820001D01*
G04 #@! TO.C,D49*
G36*
X104337000Y48770001D02*
G01*
X103437000Y48770001D01*
X104337000Y49670001D01*
X104337000Y48770001D01*
G37*
X104337000Y48770001D02*
X103437000Y48770001D01*
X104337000Y49670001D01*
X104337000Y48770001D01*
D11*
G04 #@! TO.C,MX57*
X272249500Y43600000D02*
X277349500Y43600000D01*
X276149500Y39400000D02*
X281249500Y39400000D01*
X272249500Y43600000D02*
G75*
G03*
X270249500Y41600000I-1J-1999999D01*
G01*
X276149500Y39400000D02*
G75*
G03*
X274149500Y37400000I-1J-1999999D01*
G01*
G04 #@! TO.C,D33*
G36*
X80524500Y67820001D02*
G01*
X79624500Y67820001D01*
X80524500Y68720001D01*
X80524500Y67820001D01*
G37*
D10*
X80524500Y67820001D02*
X79624500Y67820001D01*
X80524500Y68720001D01*
X80524500Y67820001D01*
G04 #@! TO.C,D66*
G36*
X171012000Y29720001D02*
G01*
X170112000Y29720001D01*
X171012000Y30620001D01*
X171012000Y29720001D01*
G37*
X171012000Y29720001D02*
X170112000Y29720001D01*
X171012000Y30620001D01*
X171012000Y29720001D01*
G04 #@! TO.C,D64*
G36*
X132912000Y29720001D02*
G01*
X132012000Y29720001D01*
X132912000Y30620001D01*
X132912000Y29720001D01*
G37*
X132912000Y29720001D02*
X132012000Y29720001D01*
X132912000Y30620001D01*
X132912000Y29720001D01*
D11*
G04 #@! TO.C,MX39*
X172237000Y62650000D02*
X177337000Y62650000D01*
X176137000Y58450000D02*
X181237000Y58450000D01*
X172237000Y62650000D02*
G75*
G03*
X170237000Y60650000I-1J-1999999D01*
G01*
X176137000Y58450000D02*
G75*
G03*
X174137000Y56450000I-1J-1999999D01*
G01*
G04 #@! TO.C,MX21*
X110324500Y81700000D02*
X115424500Y81700000D01*
X114224500Y77500000D02*
X119324500Y77500000D01*
X110324500Y81700000D02*
G75*
G03*
X108324500Y79700000I-1J-1999999D01*
G01*
X114224500Y77500000D02*
G75*
G03*
X112224500Y75500000I-1J-1999999D01*
G01*
G04 #@! TO.C,MX23*
X148424500Y81700000D02*
X153524500Y81700000D01*
X152324500Y77500000D02*
X157424500Y77500000D01*
X148424500Y81700000D02*
G75*
G03*
X146424500Y79700000I-1J-1999999D01*
G01*
X152324500Y77500000D02*
G75*
G03*
X150324500Y75500000I-1J-1999999D01*
G01*
G04 #@! TO.C,D69*
G36*
X228162000Y29720001D02*
G01*
X227262000Y29720001D01*
X228162000Y30620001D01*
X228162000Y29720001D01*
G37*
D10*
X228162000Y29720001D02*
X227262000Y29720001D01*
X228162000Y30620001D01*
X228162000Y29720001D01*
D11*
G04 #@! TO.C,MX19*
X72224500Y81700000D02*
X77324500Y81700000D01*
X76124500Y77500000D02*
X81224500Y77500000D01*
X72224500Y81700000D02*
G75*
G03*
X70224500Y79700000I-1J-1999999D01*
G01*
X76124500Y77500000D02*
G75*
G03*
X74124500Y75500000I-1J-1999999D01*
G01*
G04 #@! TO.C,D19*
G36*
X90049500Y86870001D02*
G01*
X89149500Y86870001D01*
X90049500Y87770001D01*
X90049500Y86870001D01*
G37*
D10*
X90049500Y86870001D02*
X89149500Y86870001D01*
X90049500Y87770001D01*
X90049500Y86870001D01*
G04 #@! TO.C,D39*
G36*
X194824500Y67820001D02*
G01*
X193924500Y67820001D01*
X194824500Y68720001D01*
X194824500Y67820001D01*
G37*
X194824500Y67820001D02*
X193924500Y67820001D01*
X194824500Y68720001D01*
X194824500Y67820001D01*
G04 #@! TO.C,D77*
G36*
X135293250Y10670001D02*
G01*
X134393250Y10670001D01*
X135293250Y11570001D01*
X135293250Y10670001D01*
G37*
X135293250Y10670001D02*
X134393250Y10670001D01*
X135293250Y11570001D01*
X135293250Y10670001D01*
G04 #@! TO.C,D23*
G36*
X157849500Y99929999D02*
G01*
X157849500Y100829999D01*
X158749500Y100829999D01*
X157849500Y99929999D01*
G37*
X157849500Y99929999D02*
X157849500Y100829999D01*
X158749500Y100829999D01*
X157849500Y99929999D01*
D11*
G04 #@! TO.C,MX56*
X246055750Y43600000D02*
X251155750Y43600000D01*
X249955750Y39400000D02*
X255055750Y39400000D01*
X246055750Y43600000D02*
G75*
G03*
X244055750Y41600000I-1J-1999999D01*
G01*
X249955750Y39400000D02*
G75*
G03*
X247955750Y37400000I-1J-1999999D01*
G01*
G04 #@! TO.C,D53*
G36*
X180537000Y48770001D02*
G01*
X179637000Y48770001D01*
X180537000Y49670001D01*
X180537000Y48770001D01*
G37*
D10*
X180537000Y48770001D02*
X179637000Y48770001D01*
X180537000Y49670001D01*
X180537000Y48770001D01*
D11*
G04 #@! TO.C,MX44*
X291299500Y62650000D02*
X296399500Y62650000D01*
X295199500Y58450000D02*
X300299500Y58450000D01*
X291299500Y62650000D02*
G75*
G03*
X289299500Y60650000I-1J-1999999D01*
G01*
X295199500Y58450000D02*
G75*
G03*
X293199500Y56450000I-1J-1999999D01*
G01*
G04 #@! TO.C,D75*
G36*
X63855750Y10670001D02*
G01*
X62955750Y10670001D01*
X63855750Y11570001D01*
X63855750Y10670001D01*
G37*
D10*
X63855750Y10670001D02*
X62955750Y10670001D01*
X63855750Y11570001D01*
X63855750Y10670001D01*
G04 #@! TO.C,D60*
G36*
X56712000Y29720001D02*
G01*
X55812000Y29720001D01*
X56712000Y30620001D01*
X56712000Y29720001D01*
G37*
X56712000Y29720001D02*
X55812000Y29720001D01*
X56712000Y30620001D01*
X56712000Y29720001D01*
D11*
G04 #@! TO.C,MX7*
X119849500Y100750000D02*
X124949500Y100750000D01*
X123749500Y96550000D02*
X128849500Y96550000D01*
X119849500Y100750000D02*
G75*
G03*
X117849500Y98750000I-1J-1999999D01*
G01*
X123749500Y96550000D02*
G75*
G03*
X121749500Y94550000I-1J-1999999D01*
G01*
G04 #@! TO.C,MX17*
X34124500Y81700000D02*
X39224500Y81700000D01*
X38024500Y77500000D02*
X43124500Y77500000D01*
X34124500Y81700000D02*
G75*
G03*
X32124500Y79700000I-1J-1999999D01*
G01*
X38024500Y77500000D02*
G75*
G03*
X36024500Y75500000I-1J-1999999D01*
G01*
G04 #@! TO.C,D18*
G36*
X70999500Y86870001D02*
G01*
X70099500Y86870001D01*
X70999500Y87770001D01*
X70999500Y86870001D01*
G37*
D10*
X70999500Y86870001D02*
X70099500Y86870001D01*
X70999500Y87770001D01*
X70999500Y86870001D01*
D11*
G04 #@! TO.C,MX63*
X198430750Y24550000D02*
X203530750Y24550000D01*
X202330750Y20350000D02*
X207430750Y20350000D01*
X198430750Y24550000D02*
G75*
G03*
X196430750Y22550000I-1J-1999999D01*
G01*
X202330750Y20350000D02*
G75*
G03*
X200330750Y18350000I-1J-1999999D01*
G01*
G04 #@! TO.C,MX45*
X17455750Y43600000D02*
X22555750Y43600000D01*
X21355750Y39400000D02*
X26455750Y39400000D01*
X17455750Y43600000D02*
G75*
G03*
X15455750Y41600000I-1J-1999999D01*
G01*
X21355750Y39400000D02*
G75*
G03*
X19355750Y37400000I-1J-1999999D01*
G01*
G04 #@! TO.C,MX16*
X10312000Y81700000D02*
X15412000Y81700000D01*
X14212000Y77500000D02*
X19312000Y77500000D01*
X10312000Y81700000D02*
G75*
G03*
X8312000Y79700000I-1J-1999999D01*
G01*
X14212000Y77500000D02*
G75*
G03*
X12212000Y75500000I-1J-1999999D01*
G01*
G04 #@! TO.C,D24*
G36*
X185299500Y86870001D02*
G01*
X184399500Y86870001D01*
X185299500Y87770001D01*
X185299500Y86870001D01*
G37*
D10*
X185299500Y86870001D02*
X184399500Y86870001D01*
X185299500Y87770001D01*
X185299500Y86870001D01*
G04 #@! TO.C,D50*
G36*
X123387000Y48770001D02*
G01*
X122487000Y48770001D01*
X123387000Y49670001D01*
X123387000Y48770001D01*
G37*
X123387000Y48770001D02*
X122487000Y48770001D01*
X123387000Y49670001D01*
X123387000Y48770001D01*
G04 #@! TO.C,D47*
G36*
X66237000Y48770001D02*
G01*
X65337000Y48770001D01*
X66237000Y49670001D01*
X66237000Y48770001D01*
G37*
X66237000Y48770001D02*
X65337000Y48770001D01*
X66237000Y49670001D01*
X66237000Y48770001D01*
D11*
G04 #@! TO.C,MX55*
X219862000Y43600000D02*
X224962000Y43600000D01*
X223762000Y39400000D02*
X228862000Y39400000D01*
X219862000Y43600000D02*
G75*
G03*
X217862000Y41600000I-1J-1999999D01*
G01*
X223762000Y39400000D02*
G75*
G03*
X221762000Y37400000I-1J-1999999D01*
G01*
G04 #@! TO.C,D42*
G36*
X251974500Y67820001D02*
G01*
X251074500Y67820001D01*
X251974500Y68720001D01*
X251974500Y67820001D01*
G37*
D10*
X251974500Y67820001D02*
X251074500Y67820001D01*
X251974500Y68720001D01*
X251974500Y67820001D01*
G04 #@! TO.C,D44*
G36*
X299599500Y67820001D02*
G01*
X298699500Y67820001D01*
X299599500Y68720001D01*
X299599500Y67820001D01*
G37*
X299599500Y67820001D02*
X298699500Y67820001D01*
X299599500Y68720001D01*
X299599500Y67820001D01*
G04 #@! TO.C,D32*
G36*
X61474500Y67820001D02*
G01*
X60574500Y67820001D01*
X61474500Y68720001D01*
X61474500Y67820001D01*
G37*
X61474500Y67820001D02*
X60574500Y67820001D01*
X61474500Y68720001D01*
X61474500Y67820001D01*
G04 #@! TO.C,D36*
G36*
X137674500Y67820001D02*
G01*
X136774500Y67820001D01*
X137674500Y68720001D01*
X137674500Y67820001D01*
G37*
X137674500Y67820001D02*
X136774500Y67820001D01*
X137674500Y68720001D01*
X137674500Y67820001D01*
D11*
G04 #@! TO.C,MX42*
X229387000Y62650000D02*
X234487000Y62650000D01*
X233287000Y58450000D02*
X238387000Y58450000D01*
X229387000Y62650000D02*
G75*
G03*
X227387000Y60650000I-1J-1999999D01*
G01*
X233287000Y58450000D02*
G75*
G03*
X231287000Y56450000I-1J-1999999D01*
G01*
G04 #@! TO.C,MX26*
X205574500Y81700000D02*
X210674500Y81700000D01*
X209474500Y77500000D02*
X214574500Y77500000D01*
X205574500Y81700000D02*
G75*
G03*
X203574500Y79700000I-1J-1999999D01*
G01*
X209474500Y77500000D02*
G75*
G03*
X207474500Y75500000I-1J-1999999D01*
G01*
G04 #@! TO.C,MX5*
X81749500Y100750000D02*
X86849500Y100750000D01*
X85649500Y96550000D02*
X90749500Y96550000D01*
X81749500Y100750000D02*
G75*
G03*
X79749500Y98750000I-1J-1999999D01*
G01*
X85649500Y96550000D02*
G75*
G03*
X83649500Y94550000I-1J-1999999D01*
G01*
G04 #@! TO.C,D34*
G36*
X99574500Y67820001D02*
G01*
X98674500Y67820001D01*
X99574500Y68720001D01*
X99574500Y67820001D01*
G37*
D10*
X99574500Y67820001D02*
X98674500Y67820001D01*
X99574500Y68720001D01*
X99574500Y67820001D01*
G04 #@! TO.C,D56*
G36*
X237687000Y48770001D02*
G01*
X236787000Y48770001D01*
X237687000Y49670001D01*
X237687000Y48770001D01*
G37*
X237687000Y48770001D02*
X236787000Y48770001D01*
X237687000Y49670001D01*
X237687000Y48770001D01*
D11*
G04 #@! TO.C,MX49*
X105562000Y43600000D02*
X110662000Y43600000D01*
X109462000Y39400000D02*
X114562000Y39400000D01*
X105562000Y43600000D02*
G75*
G03*
X103562000Y41600000I-1J-1999999D01*
G01*
X109462000Y39400000D02*
G75*
G03*
X107462000Y37400000I-1J-1999999D01*
G01*
G04 #@! TO.C,MX53*
X181762000Y43600000D02*
X186862000Y43600000D01*
X185662000Y39400000D02*
X190762000Y39400000D01*
X181762000Y43600000D02*
G75*
G03*
X179762000Y41600000I-1J-1999999D01*
G01*
X185662000Y39400000D02*
G75*
G03*
X183662000Y37400000I-1J-1999999D01*
G01*
G04 #@! TO.C,D68*
G36*
X209112000Y29720001D02*
G01*
X208212000Y29720001D01*
X209112000Y30620001D01*
X209112000Y29720001D01*
G37*
D10*
X209112000Y29720001D02*
X208212000Y29720001D01*
X209112000Y30620001D01*
X209112000Y29720001D01*
D11*
G04 #@! TO.C,MX50*
X124612000Y43600000D02*
X129712000Y43600000D01*
X128512000Y39400000D02*
X133612000Y39400000D01*
X124612000Y43600000D02*
G75*
G03*
X122612000Y41600000I-1J-1999999D01*
G01*
X128512000Y39400000D02*
G75*
G03*
X126512000Y37400000I-1J-1999999D01*
G01*
G04 #@! TO.C,D61*
G36*
X75762000Y29720001D02*
G01*
X74862000Y29720001D01*
X75762000Y30620001D01*
X75762000Y29720001D01*
G37*
D10*
X75762000Y29720001D02*
X74862000Y29720001D01*
X75762000Y30620001D01*
X75762000Y29720001D01*
G04 #@! TO.C,D43*
G36*
X275787000Y67820001D02*
G01*
X274887000Y67820001D01*
X275787000Y68720001D01*
X275787000Y67820001D01*
G37*
X275787000Y67820001D02*
X274887000Y67820001D01*
X275787000Y68720001D01*
X275787000Y67820001D01*
G04 #@! TO.C,D57*
G36*
X268643250Y48770001D02*
G01*
X267743250Y48770001D01*
X268643250Y49670001D01*
X268643250Y48770001D01*
G37*
X268643250Y48770001D02*
X267743250Y48770001D01*
X268643250Y49670001D01*
X268643250Y48770001D01*
G04 #@! TO.C,D80*
G36*
X230543250Y10670001D02*
G01*
X229643250Y10670001D01*
X230543250Y11570001D01*
X230543250Y10670001D01*
G37*
X230543250Y10670001D02*
X229643250Y10670001D01*
X230543250Y11570001D01*
X230543250Y10670001D01*
D11*
G04 #@! TO.C,MX41*
X210337000Y62650000D02*
X215437000Y62650000D01*
X214237000Y58450000D02*
X219337000Y58450000D01*
X210337000Y62650000D02*
G75*
G03*
X208337000Y60650000I-1J-1999999D01*
G01*
X214237000Y58450000D02*
G75*
G03*
X212237000Y56450000I-1J-1999999D01*
G01*
G04 #@! TO.C,D26*
G36*
X223399500Y86870001D02*
G01*
X222499500Y86870001D01*
X223399500Y87770001D01*
X223399500Y86870001D01*
G37*
D10*
X223399500Y86870001D02*
X222499500Y86870001D01*
X223399500Y87770001D01*
X223399500Y86870001D01*
D11*
G04 #@! TO.C,MX11*
X196049500Y100750000D02*
X201149500Y100750000D01*
X199949500Y96550000D02*
X205049500Y96550000D01*
X196049500Y100750000D02*
G75*
G03*
X194049500Y98750000I-1J-1999999D01*
G01*
X199949500Y96550000D02*
G75*
G03*
X197949500Y94550000I-1J-1999999D01*
G01*
G04 #@! TO.C,D41*
G36*
X232924500Y67820001D02*
G01*
X232024500Y67820001D01*
X232924500Y68720001D01*
X232924500Y67820001D01*
G37*
D10*
X232924500Y67820001D02*
X232024500Y67820001D01*
X232924500Y68720001D01*
X232924500Y67820001D01*
D11*
G04 #@! TO.C,MX65*
X253199500Y24550000D02*
X258299500Y24550000D01*
X257099500Y20350000D02*
X262199500Y20350000D01*
X253199500Y24550000D02*
G75*
G03*
X251199500Y22550000I-1J-1999999D01*
G01*
X257099500Y20350000D02*
G75*
G03*
X255099500Y18350000I-1J-1999999D01*
G01*
G04 #@! TO.C,D31*
G36*
X42424500Y67820001D02*
G01*
X41524500Y67820001D01*
X42424500Y68720001D01*
X42424500Y67820001D01*
G37*
D10*
X42424500Y67820001D02*
X41524500Y67820001D01*
X42424500Y68720001D01*
X42424500Y67820001D01*
D11*
G04 #@! TO.C,MX24*
X167474500Y81700000D02*
X172574500Y81700000D01*
X171374500Y77500000D02*
X176474500Y77500000D01*
X167474500Y81700000D02*
G75*
G03*
X165474500Y79700000I-1J-1999999D01*
G01*
X171374500Y77500000D02*
G75*
G03*
X169374500Y75500000I-1J-1999999D01*
G01*
G04 #@! TO.C,MX14*
X262724500Y100750000D02*
X267824500Y100750000D01*
X266624500Y96550000D02*
X271724500Y96550000D01*
X262724500Y100750000D02*
G75*
G03*
X260724500Y98750000I-1J-1999999D01*
G01*
X266624500Y96550000D02*
G75*
G03*
X264624500Y94550000I-1J-1999999D01*
G01*
G04 #@! TO.C,MX4*
X62699500Y100750000D02*
X67799500Y100750000D01*
X66599500Y96550000D02*
X71699500Y96550000D01*
X62699500Y100750000D02*
G75*
G03*
X60699500Y98750000I-1J-1999999D01*
G01*
X66599500Y96550000D02*
G75*
G03*
X64599500Y94550000I-1J-1999999D01*
G01*
G04 #@! TO.C,MX13*
X234149500Y100750000D02*
X239249500Y100750000D01*
X238049500Y96550000D02*
X243149500Y96550000D01*
X234149500Y100750000D02*
G75*
G03*
X232149500Y98750000I-1J-1999999D01*
G01*
X238049500Y96550000D02*
G75*
G03*
X236049500Y94550000I-1J-1999999D01*
G01*
G04 #@! TO.C,MX3*
X43649500Y100750000D02*
X48749500Y100750000D01*
X47549500Y96550000D02*
X52649500Y96550000D01*
X43649500Y100750000D02*
G75*
G03*
X41649500Y98750000I-1J-1999999D01*
G01*
X47549500Y96550000D02*
G75*
G03*
X45549500Y94550000I-1J-1999999D01*
G01*
G04 #@! TO.C,MX66*
X272249500Y24550000D02*
X277349500Y24550000D01*
X276149500Y20350000D02*
X281249500Y20350000D01*
X272249500Y24550000D02*
G75*
G03*
X270249500Y22550000I-1J-1999999D01*
G01*
X276149500Y20350000D02*
G75*
G03*
X274149500Y18350000I-1J-1999999D01*
G01*
G04 #@! TO.C,D79*
G36*
X206730750Y10670001D02*
G01*
X205830750Y10670001D01*
X206730750Y11570001D01*
X206730750Y10670001D01*
G37*
D10*
X206730750Y10670001D02*
X205830750Y10670001D01*
X206730750Y11570001D01*
X206730750Y10670001D01*
D11*
G04 #@! TO.C,MX15*
X291299500Y100750000D02*
X296399500Y100750000D01*
X295199500Y96550000D02*
X300299500Y96550000D01*
X291299500Y100750000D02*
G75*
G03*
X289299500Y98750000I-1J-1999999D01*
G01*
X295199500Y96550000D02*
G75*
G03*
X293199500Y94550000I-1J-1999999D01*
G01*
G04 #@! TO.C,D63*
G36*
X113862000Y29720001D02*
G01*
X112962000Y29720001D01*
X113862000Y30620001D01*
X113862000Y29720001D01*
G37*
D10*
X113862000Y29720001D02*
X112962000Y29720001D01*
X113862000Y30620001D01*
X113862000Y29720001D01*
G04 #@! TO.C,D35*
G36*
X118624500Y67820001D02*
G01*
X117724500Y67820001D01*
X118624500Y68720001D01*
X118624500Y67820001D01*
G37*
X118624500Y67820001D02*
X117724500Y67820001D01*
X118624500Y68720001D01*
X118624500Y67820001D01*
D11*
G04 #@! TO.C,MX31*
X12693250Y62650000D02*
X17793250Y62650000D01*
X16593250Y58450000D02*
X21693250Y58450000D01*
X12693250Y62650000D02*
G75*
G03*
X10693250Y60650000I-1J-1999999D01*
G01*
X16593250Y58450000D02*
G75*
G03*
X14593250Y56450000I-1J-1999999D01*
G01*
G04 #@! TO.C,D62*
G36*
X94812000Y29720001D02*
G01*
X93912000Y29720001D01*
X94812000Y30620001D01*
X94812000Y29720001D01*
G37*
D10*
X94812000Y29720001D02*
X93912000Y29720001D01*
X94812000Y30620001D01*
X94812000Y29720001D01*
D11*
G04 #@! TO.C,MX27*
X224624500Y81700000D02*
X229724500Y81700000D01*
X228524500Y77500000D02*
X233624500Y77500000D01*
X224624500Y81700000D02*
G75*
G03*
X222624500Y79700000I-1J-1999999D01*
G01*
X228524500Y77500000D02*
G75*
G03*
X226524500Y75500000I-1J-1999999D01*
G01*
G04 #@! TO.C,D59*
G36*
X25755750Y29720001D02*
G01*
X24855750Y29720001D01*
X25755750Y30620001D01*
X25755750Y29720001D01*
G37*
D10*
X25755750Y29720001D02*
X24855750Y29720001D01*
X25755750Y30620001D01*
X25755750Y29720001D01*
D11*
G04 #@! TO.C,MX61*
X55555750Y24550000D02*
X60655750Y24550000D01*
X59455750Y20350000D02*
X64555750Y20350000D01*
X55555750Y24550000D02*
G75*
G03*
X53555750Y22550000I-1J-1999999D01*
G01*
X59455750Y20350000D02*
G75*
G03*
X57455750Y18350000I-1J-1999999D01*
G01*
G04 #@! TO.C,MX47*
X67462000Y43600000D02*
X72562000Y43600000D01*
X71362000Y39400000D02*
X76462000Y39400000D01*
X67462000Y43600000D02*
G75*
G03*
X65462000Y41600000I-1J-1999999D01*
G01*
X71362000Y39400000D02*
G75*
G03*
X69362000Y37400000I-1J-1999999D01*
G01*
G04 #@! TO.C,MX32*
X38887000Y62650000D02*
X43987000Y62650000D01*
X42787000Y58450000D02*
X47887000Y58450000D01*
X38887000Y62650000D02*
G75*
G03*
X36887000Y60650000I-1J-1999999D01*
G01*
X42787000Y58450000D02*
G75*
G03*
X40787000Y56450000I-1J-1999999D01*
G01*
G04 #@! TO.C,MX10*
X176999500Y100750000D02*
X182099500Y100750000D01*
X180899500Y96550000D02*
X185999500Y96550000D01*
X176999500Y100750000D02*
G75*
G03*
X174999500Y98750000I-1J-1999999D01*
G01*
X180899500Y96550000D02*
G75*
G03*
X178899500Y94550000I-1J-1999999D01*
G01*
G04 #@! TO.C,D20*
G36*
X109099500Y86870001D02*
G01*
X108199500Y86870001D01*
X109099500Y87770001D01*
X109099500Y86870001D01*
G37*
D10*
X109099500Y86870001D02*
X108199500Y86870001D01*
X109099500Y87770001D01*
X109099500Y86870001D01*
D11*
G04 #@! TO.C,MX51*
X143662000Y43600000D02*
X148762000Y43600000D01*
X147562000Y39400000D02*
X152662000Y39400000D01*
X143662000Y43600000D02*
G75*
G03*
X141662000Y41600000I-1J-1999999D01*
G01*
X147562000Y39400000D02*
G75*
G03*
X145562000Y37400000I-1J-1999999D01*
G01*
G04 #@! TO.C,D83*
G36*
X299599500Y10670001D02*
G01*
X298699500Y10670001D01*
X299599500Y11570001D01*
X299599500Y10670001D01*
G37*
D10*
X299599500Y10670001D02*
X298699500Y10670001D01*
X299599500Y11570001D01*
X299599500Y10670001D01*
D11*
G04 #@! TO.C,MX30*
X291299500Y81700000D02*
X296399500Y81700000D01*
X295199500Y77500000D02*
X300299500Y77500000D01*
X291299500Y81700000D02*
G75*
G03*
X289299500Y79700000I-1J-1999999D01*
G01*
X295199500Y77500000D02*
G75*
G03*
X293199500Y75500000I-1J-1999999D01*
G01*
G04 #@! TO.C,D82*
G36*
X280549500Y10670001D02*
G01*
X279649500Y10670001D01*
X280549500Y11570001D01*
X280549500Y10670001D01*
G37*
D10*
X280549500Y10670001D02*
X279649500Y10670001D01*
X280549500Y11570001D01*
X280549500Y10670001D01*
G04 #@! TO.C,D70*
G36*
X254355750Y29720001D02*
G01*
X253455750Y29720001D01*
X254355750Y30620001D01*
X254355750Y29720001D01*
G37*
X254355750Y29720001D02*
X253455750Y29720001D01*
X254355750Y30620001D01*
X254355750Y29720001D01*
D11*
G04 #@! TO.C,MX22*
X129374500Y81700000D02*
X134474500Y81700000D01*
X133274500Y77500000D02*
X138374500Y77500000D01*
X129374500Y81700000D02*
G75*
G03*
X127374500Y79700000I-1J-1999999D01*
G01*
X133274500Y77500000D02*
G75*
G03*
X131274500Y75500000I-1J-1999999D01*
G01*
G04 #@! TO.C,D45*
G36*
X20993250Y48770001D02*
G01*
X20093250Y48770001D01*
X20993250Y49670001D01*
X20993250Y48770001D01*
G37*
D10*
X20993250Y48770001D02*
X20093250Y48770001D01*
X20993250Y49670001D01*
X20993250Y48770001D01*
D11*
G04 #@! TO.C,MX37*
X134137000Y62650000D02*
X139237000Y62650000D01*
X138037000Y58450000D02*
X143137000Y58450000D01*
X134137000Y62650000D02*
G75*
G03*
X132137000Y60650000I-1J-1999999D01*
G01*
X138037000Y58450000D02*
G75*
G03*
X136037000Y56450000I-1J-1999999D01*
G01*
G04 #@! TO.C,D21*
G36*
X128149500Y86870001D02*
G01*
X127249500Y86870001D01*
X128149500Y87770001D01*
X128149500Y86870001D01*
G37*
D10*
X128149500Y86870001D02*
X127249500Y86870001D01*
X128149500Y87770001D01*
X128149500Y86870001D01*
G04 #@! TO.C,D46*
G36*
X47187000Y48770001D02*
G01*
X46287000Y48770001D01*
X47187000Y49670001D01*
X47187000Y48770001D01*
G37*
X47187000Y48770001D02*
X46287000Y48770001D01*
X47187000Y49670001D01*
X47187000Y48770001D01*
D11*
G04 #@! TO.C,MX25*
X186524500Y81700000D02*
X191624500Y81700000D01*
X190424500Y77500000D02*
X195524500Y77500000D01*
X186524500Y81700000D02*
G75*
G03*
X184524500Y79700000I-1J-1999999D01*
G01*
X190424500Y77500000D02*
G75*
G03*
X188424500Y75500000I-1J-1999999D01*
G01*
G04 #@! TO.C,D30*
G36*
X18612000Y67820001D02*
G01*
X17712000Y67820001D01*
X18612000Y68720001D01*
X18612000Y67820001D01*
G37*
D10*
X18612000Y67820001D02*
X17712000Y67820001D01*
X18612000Y68720001D01*
X18612000Y67820001D01*
D11*
G04 #@! TO.C,D108*
X60477000Y42720000D02*
X60477000Y42070000D01*
X60477000Y42720000D02*
X60477000Y43370000D01*
X63597000Y42720000D02*
X63597000Y41045000D01*
X63597000Y42720000D02*
X63597000Y43370000D01*
G04 #@! TO.C,D6*
G36*
X112567000Y88550000D02*
G01*
X112017000Y88550000D01*
X112017000Y89150000D01*
X112567000Y88550000D01*
G37*
D10*
X112567000Y88550000D02*
X112017000Y88550000D01*
X112017000Y89150000D01*
X112567000Y88550000D01*
D11*
G04 #@! TO.C,D90*
X246217000Y99870000D02*
X246217000Y99220000D01*
X246217000Y99870000D02*
X246217000Y100520000D01*
X249337000Y99870000D02*
X249337000Y98195000D01*
X249337000Y99870000D02*
X249337000Y100520000D01*
G04 #@! TO.C,D109*
X98577000Y42720000D02*
X98577000Y42070000D01*
X98577000Y42720000D02*
X98577000Y43370000D01*
X101697000Y42720000D02*
X101697000Y41045000D01*
X101697000Y42720000D02*
X101697000Y43370000D01*
G04 #@! TO.C,D91*
X281177000Y99840000D02*
X281177000Y99190000D01*
X281177000Y99840000D02*
X281177000Y100490000D01*
X284297000Y99840000D02*
X284297000Y98165000D01*
X284297000Y99840000D02*
X284297000Y100490000D01*
G04 #@! TO.C,Y2*
X164590324Y60613223D02*
X166923777Y62946676D01*
X166570223Y58633324D02*
X164590324Y60613223D01*
G04 #@! TO.C,D4*
G36*
X74477000Y88550000D02*
G01*
X73927000Y88550000D01*
X73927000Y89150000D01*
X74477000Y88550000D01*
G37*
D10*
X74477000Y88550000D02*
X73927000Y88550000D01*
X73927000Y89150000D01*
X74477000Y88550000D01*
D11*
G04 #@! TO.C,D92*
X22367000Y84320000D02*
X22367000Y83670000D01*
X22367000Y84320000D02*
X22367000Y84970000D01*
X25487000Y84320000D02*
X25487000Y82645000D01*
X25487000Y84320000D02*
X25487000Y84970000D01*
G04 #@! TO.C,U2*
X152237000Y86080000D02*
X152237000Y87680000D01*
X154037000Y87680000D02*
X154037000Y85780000D01*
G04 #@! TO.C,D84*
X17177000Y96770000D02*
X17177000Y96120000D01*
X17177000Y96770000D02*
X17177000Y97420000D01*
X20297000Y96770000D02*
X20297000Y95095000D01*
X20297000Y96770000D02*
X20297000Y97420000D01*
G04 #@! TO.C,D104*
X184307000Y61770000D02*
X184307000Y61120000D01*
X184307000Y61770000D02*
X184307000Y62420000D01*
X187427000Y61770000D02*
X187427000Y60095000D01*
X187427000Y61770000D02*
X187427000Y62420000D01*
D12*
G04 #@! TO.C,J1*
X171037000Y82690000D02*
G75*
G03*
X171037000Y82690000I-100000J0D01*
G01*
D11*
G04 #@! TO.C,D110*
X136677000Y42720000D02*
X136677000Y42070000D01*
X136677000Y42720000D02*
X136677000Y43370000D01*
X139797000Y42720000D02*
X139797000Y41045000D01*
X139797000Y42720000D02*
X139797000Y43370000D01*
G04 #@! TO.C,D88*
X170017000Y99860000D02*
X170017000Y99210000D01*
X170017000Y99860000D02*
X170017000Y100510000D01*
X173137000Y99860000D02*
X173137000Y98185000D01*
X173137000Y99860000D02*
X173137000Y100510000D01*
G04 #@! TO.C,D116*
X67617000Y23670000D02*
X67617000Y23020000D01*
X67617000Y23670000D02*
X67617000Y24320000D01*
X70737000Y23670000D02*
X70737000Y21995000D01*
X70737000Y23670000D02*
X70737000Y24320000D01*
G04 #@! TO.C,D107*
X24757000Y46230000D02*
X24757000Y45580000D01*
X24757000Y46230000D02*
X24757000Y46880000D01*
X27877000Y46230000D02*
X27877000Y44555000D01*
X27877000Y46230000D02*
X27877000Y46880000D01*
D13*
G04 #@! TO.C,U1*
X163426000Y76980000D02*
X163426000Y74630000D01*
X159428000Y75480000D02*
X159428000Y76980000D01*
G04 #@! TO.C,D5*
G36*
X93527000Y88550000D02*
G01*
X92977000Y88550000D01*
X92977000Y89150000D01*
X93527000Y88550000D01*
G37*
D10*
X93527000Y88550000D02*
X92977000Y88550000D01*
X92977000Y89150000D01*
X93527000Y88550000D01*
G04 #@! TO.C,D2*
G36*
X36377000Y88550000D02*
G01*
X35827000Y88550000D01*
X35827000Y89150000D01*
X36377000Y88550000D01*
G37*
X36377000Y88550000D02*
X35827000Y88550000D01*
X35827000Y89150000D01*
X36377000Y88550000D01*
D11*
G04 #@! TO.C,D96*
X179537000Y80820000D02*
X179537000Y80170000D01*
X179537000Y80820000D02*
X179537000Y81470000D01*
X182657000Y80820000D02*
X182657000Y79145000D01*
X182657000Y80820000D02*
X182657000Y81470000D01*
G04 #@! TO.C,D95*
X141437000Y80820000D02*
X141437000Y80170000D01*
X141437000Y80820000D02*
X141437000Y81470000D01*
X144557000Y80820000D02*
X144557000Y79145000D01*
X144557000Y80820000D02*
X144557000Y81470000D01*
G04 #@! TO.C,D106*
X284317000Y61770000D02*
X284317000Y61120000D01*
X284317000Y61770000D02*
X284317000Y62420000D01*
X287437000Y61770000D02*
X287437000Y60095000D01*
X287437000Y61770000D02*
X287437000Y62420000D01*
D12*
G04 #@! TO.C,J2*
X147747000Y103700000D02*
X157327000Y103700000D01*
X147747000Y102420000D02*
X147747000Y103700000D01*
X147747000Y98450000D02*
X147747000Y99700000D01*
X157327000Y103700000D02*
X157327000Y102420000D01*
X157327000Y98450000D02*
X157327000Y99700000D01*
D11*
G04 #@! TO.C,D100*
X24757000Y61770000D02*
X24757000Y61120000D01*
X24757000Y61770000D02*
X24757000Y62420000D01*
X27877000Y61770000D02*
X27877000Y60095000D01*
X27877000Y61770000D02*
X27877000Y62420000D01*
G04 #@! TO.C,U6*
X167142311Y68288629D02*
X166682692Y68748248D01*
X166682692Y67829010D02*
X167142311Y68288629D01*
X161577381Y72934321D02*
X162037000Y73393940D01*
X162496619Y63642937D02*
X162037000Y63183318D01*
X157391308Y68748248D02*
X156931689Y68288629D01*
X162037000Y63183318D02*
X161577381Y63642937D01*
X156931689Y68288629D02*
X157391308Y67829010D01*
G04 #@! TO.C,D117*
X210497000Y23670000D02*
X210497000Y23020000D01*
X210497000Y23670000D02*
X210497000Y24320000D01*
X213617000Y23670000D02*
X213617000Y21995000D01*
X213617000Y23670000D02*
X213617000Y24320000D01*
G04 #@! TO.C,D102*
X108107000Y61770000D02*
X108107000Y61120000D01*
X108107000Y61770000D02*
X108107000Y62420000D01*
X111227000Y61770000D02*
X111227000Y60095000D01*
X111227000Y61770000D02*
X111227000Y62420000D01*
G04 #@! TO.C,D113*
X265267000Y46220000D02*
X265267000Y45570000D01*
X265267000Y46220000D02*
X265267000Y46870000D01*
X268387000Y46220000D02*
X268387000Y44545000D01*
X268387000Y46220000D02*
X268387000Y46870000D01*
G04 #@! TO.C,D114*
X284317000Y42720000D02*
X284317000Y42070000D01*
X284317000Y42720000D02*
X284317000Y43370000D01*
X287437000Y42720000D02*
X287437000Y41045000D01*
X287437000Y42720000D02*
X287437000Y43370000D01*
G04 #@! TO.C,D87*
X131917000Y99870000D02*
X131917000Y99220000D01*
X131917000Y99870000D02*
X131917000Y100520000D01*
X135037000Y99870000D02*
X135037000Y98195000D01*
X135037000Y99870000D02*
X135037000Y100520000D01*
G04 #@! TO.C,D9*
G36*
X174397000Y88300000D02*
G01*
X173797000Y88300000D01*
X174397000Y88850000D01*
X174397000Y88300000D01*
G37*
D10*
X174397000Y88300000D02*
X173797000Y88300000D01*
X174397000Y88850000D01*
X174397000Y88300000D01*
D11*
G04 #@! TO.C,D86*
X93817000Y99870000D02*
X93817000Y99220000D01*
X93817000Y99870000D02*
X93817000Y100520000D01*
X96937000Y99870000D02*
X96937000Y98195000D01*
X96937000Y99870000D02*
X96937000Y100520000D01*
G04 #@! TO.C,C40*
X165367000Y85397836D02*
X165367000Y85182164D01*
X164647000Y85397836D02*
X164647000Y85182164D01*
G04 #@! TO.C,D97*
X217637000Y80820000D02*
X217637000Y80170000D01*
X217637000Y80820000D02*
X217637000Y81470000D01*
X220757000Y80820000D02*
X220757000Y79145000D01*
X220757000Y80820000D02*
X220757000Y81470000D01*
G04 #@! TO.C,D85*
X55717000Y99860000D02*
X55717000Y99210000D01*
X55717000Y99860000D02*
X55717000Y100510000D01*
X58837000Y99860000D02*
X58837000Y98185000D01*
X58837000Y99860000D02*
X58837000Y100510000D01*
G04 #@! TO.C,D8*
G36*
X155297000Y88290000D02*
G01*
X154697000Y88290000D01*
X155297000Y88840000D01*
X155297000Y88290000D01*
G37*
D10*
X155297000Y88290000D02*
X154697000Y88290000D01*
X155297000Y88840000D01*
X155297000Y88290000D01*
G04 #@! TO.C,D10*
G36*
X188777000Y88550000D02*
G01*
X188227000Y88550000D01*
X188227000Y89150000D01*
X188777000Y88550000D01*
G37*
X188777000Y88550000D02*
X188227000Y88550000D01*
X188227000Y89150000D01*
X188777000Y88550000D01*
D11*
G04 #@! TO.C,D98*
X260497000Y84320000D02*
X260497000Y83670000D01*
X260497000Y84320000D02*
X260497000Y84970000D01*
X263617000Y84320000D02*
X263617000Y82645000D01*
X263617000Y84320000D02*
X263617000Y84970000D01*
G04 #@! TO.C,D94*
X103337000Y80820000D02*
X103337000Y80170000D01*
X103337000Y80820000D02*
X103337000Y81470000D01*
X106457000Y80820000D02*
X106457000Y79145000D01*
X106457000Y80820000D02*
X106457000Y81470000D01*
G04 #@! TO.C,U7*
X146987000Y84520000D02*
X148537000Y84520000D01*
X148537000Y86320000D02*
X147237000Y86320000D01*
G04 #@! TO.C,D13*
G36*
X249967000Y88530000D02*
G01*
X249417000Y88530000D01*
X249417000Y89130000D01*
X249967000Y88530000D01*
G37*
D10*
X249967000Y88530000D02*
X249417000Y88530000D01*
X249417000Y89130000D01*
X249967000Y88530000D01*
D11*
G04 #@! TO.C,D111*
X174777000Y42720000D02*
X174777000Y42070000D01*
X174777000Y42720000D02*
X174777000Y43370000D01*
X177897000Y42720000D02*
X177897000Y41045000D01*
X177897000Y42720000D02*
X177897000Y43370000D01*
G04 #@! TO.C,C15*
X159997000Y85407836D02*
X159997000Y85192164D01*
X159277000Y85407836D02*
X159277000Y85192164D01*
G04 #@! TO.C,D7*
G36*
X131337000Y92540000D02*
G01*
X131337000Y93090000D01*
X131937000Y93090000D01*
X131337000Y92540000D01*
G37*
D10*
X131337000Y92540000D02*
X131337000Y93090000D01*
X131937000Y93090000D01*
X131337000Y92540000D01*
D11*
G04 #@! TO.C,D120*
X157467000Y82160000D02*
X157467000Y86020000D01*
X159467000Y82160000D02*
X157467000Y82160000D01*
X159467000Y82160000D02*
X159467000Y86020000D01*
G04 #@! TO.C,F1*
X155968422Y86480000D02*
X156485578Y86480000D01*
X155968422Y85060000D02*
X156485578Y85060000D01*
G04 #@! TO.C,D89*
X207657000Y96800000D02*
X207657000Y96150000D01*
X207657000Y96800000D02*
X207657000Y97450000D01*
X210777000Y96800000D02*
X210777000Y95125000D01*
X210777000Y96800000D02*
X210777000Y97450000D01*
G04 #@! TO.C,D1*
G36*
X17327000Y88550000D02*
G01*
X16777000Y88550000D01*
X16777000Y89150000D01*
X17327000Y88550000D01*
G37*
D10*
X17327000Y88550000D02*
X16777000Y88550000D01*
X16777000Y89150000D01*
X17327000Y88550000D01*
G04 #@! TO.C,D3*
G36*
X55427000Y88550000D02*
G01*
X54877000Y88550000D01*
X54877000Y89150000D01*
X55427000Y88550000D01*
G37*
X55427000Y88550000D02*
X54877000Y88550000D01*
X54877000Y89150000D01*
X55427000Y88550000D01*
D11*
G04 #@! TO.C,D112*
X212877000Y42720000D02*
X212877000Y42070000D01*
X212877000Y42720000D02*
X212877000Y43370000D01*
X215997000Y42720000D02*
X215997000Y41045000D01*
X215997000Y42720000D02*
X215997000Y43370000D01*
G04 #@! TO.C,D103*
X146207000Y61770000D02*
X146207000Y61120000D01*
X146207000Y61770000D02*
X146207000Y62420000D01*
X149327000Y61770000D02*
X149327000Y60095000D01*
X149327000Y61770000D02*
X149327000Y62420000D01*
G04 #@! TO.C,D11*
G36*
X207827000Y88550000D02*
G01*
X207277000Y88550000D01*
X207277000Y89150000D01*
X207827000Y88550000D01*
G37*
D10*
X207827000Y88550000D02*
X207277000Y88550000D01*
X207277000Y89150000D01*
X207827000Y88550000D01*
D11*
G04 #@! TO.C,D119*
X284317000Y23670000D02*
X284317000Y23020000D01*
X284317000Y23670000D02*
X284317000Y24320000D01*
X287437000Y23670000D02*
X287437000Y21995000D01*
X287437000Y23670000D02*
X287437000Y24320000D01*
G04 #@! TO.C,D12*
G36*
X226887000Y88550000D02*
G01*
X226337000Y88550000D01*
X226337000Y89150000D01*
X226887000Y88550000D01*
G37*
D10*
X226887000Y88550000D02*
X226337000Y88550000D01*
X226337000Y89150000D01*
X226887000Y88550000D01*
D11*
G04 #@! TO.C,D115*
X19997000Y27160000D02*
X19997000Y26510000D01*
X19997000Y27160000D02*
X19997000Y27810000D01*
X23117000Y27160000D02*
X23117000Y25485000D01*
X23117000Y27160000D02*
X23117000Y27810000D01*
G04 #@! TO.C,D101*
X69997000Y61770000D02*
X69997000Y61120000D01*
X69997000Y61770000D02*
X69997000Y62420000D01*
X73117000Y61770000D02*
X73117000Y60095000D01*
X73117000Y61770000D02*
X73117000Y62420000D01*
G04 #@! TO.C,D105*
X222407000Y61770000D02*
X222407000Y61120000D01*
X222407000Y61770000D02*
X222407000Y62420000D01*
X225527000Y61770000D02*
X225527000Y60095000D01*
X225527000Y61770000D02*
X225527000Y62420000D01*
G04 #@! TO.C,D93*
X65237000Y80820000D02*
X65237000Y80170000D01*
X65237000Y80820000D02*
X65237000Y81470000D01*
X68357000Y80820000D02*
X68357000Y79145000D01*
X68357000Y80820000D02*
X68357000Y81470000D01*
G04 #@! TO.C,D14*
G36*
X281147000Y88540000D02*
G01*
X280597000Y88540000D01*
X280597000Y89140000D01*
X281147000Y88540000D01*
G37*
D10*
X281147000Y88540000D02*
X280597000Y88540000D01*
X280597000Y89140000D01*
X281147000Y88540000D01*
D11*
G04 #@! TO.C,D118*
X265267000Y23670000D02*
X265267000Y23020000D01*
X265267000Y23670000D02*
X265267000Y24320000D01*
X268387000Y23670000D02*
X268387000Y21995000D01*
X268387000Y23670000D02*
X268387000Y24320000D01*
G04 #@! TO.C,D99*
X284317000Y84320000D02*
X284317000Y83670000D01*
X284317000Y84320000D02*
X284317000Y84970000D01*
X287437000Y84320000D02*
X287437000Y82645000D01*
X287437000Y84320000D02*
X287437000Y84970000D01*
G04 #@! TO.C,C39*
X162817000Y85407836D02*
X162817000Y85192164D01*
X162097000Y85407836D02*
X162097000Y85192164D01*
G04 #@! TD*
M02*
