G04 #@! TF.GenerationSoftware,KiCad,Pcbnew,(7.0.0)*
G04 #@! TF.CreationDate,2023-05-15T23:08:46-07:00*
G04 #@! TF.ProjectId,pcb-solder-rails,7063622d-736f-46c6-9465-722d7261696c,1.0*
G04 #@! TF.SameCoordinates,Original*
G04 #@! TF.FileFunction,Legend,Bot*
G04 #@! TF.FilePolarity,Positive*
%FSLAX46Y46*%
G04 Gerber Fmt 4.6, Leading zero omitted, Abs format (unit mm)*
G04 Created by KiCad (PCBNEW (7.0.0)) date 2023-05-15 23:08:46*
%MOMM*%
%LPD*%
G01*
G04 APERTURE LIST*
%ADD10C,0.150000*%
%ADD11C,0.100000*%
%ADD12C,0.120000*%
%ADD13C,0.200000*%
%ADD14C,0.254000*%
G04 APERTURE END LIST*
D10*
G04 #@! TO.C,D122*
X167199380Y25360476D02*
X166199380Y25360476D01*
X166199380Y25360476D02*
X166199380Y25122381D01*
X166199380Y25122381D02*
X166247000Y24979524D01*
X166247000Y24979524D02*
X166342238Y24884286D01*
X166342238Y24884286D02*
X166437476Y24836667D01*
X166437476Y24836667D02*
X166627952Y24789048D01*
X166627952Y24789048D02*
X166770809Y24789048D01*
X166770809Y24789048D02*
X166961285Y24836667D01*
X166961285Y24836667D02*
X167056523Y24884286D01*
X167056523Y24884286D02*
X167151761Y24979524D01*
X167151761Y24979524D02*
X167199380Y25122381D01*
X167199380Y25122381D02*
X167199380Y25360476D01*
X167199380Y23836667D02*
X167199380Y24408095D01*
X167199380Y24122381D02*
X166199380Y24122381D01*
X166199380Y24122381D02*
X166342238Y24217619D01*
X166342238Y24217619D02*
X166437476Y24312857D01*
X166437476Y24312857D02*
X166485095Y24408095D01*
X166294619Y23455714D02*
X166247000Y23408095D01*
X166247000Y23408095D02*
X166199380Y23312857D01*
X166199380Y23312857D02*
X166199380Y23074762D01*
X166199380Y23074762D02*
X166247000Y22979524D01*
X166247000Y22979524D02*
X166294619Y22931905D01*
X166294619Y22931905D02*
X166389857Y22884286D01*
X166389857Y22884286D02*
X166485095Y22884286D01*
X166485095Y22884286D02*
X166627952Y22931905D01*
X166627952Y22931905D02*
X167199380Y23503333D01*
X167199380Y23503333D02*
X167199380Y22884286D01*
X166294619Y22503333D02*
X166247000Y22455714D01*
X166247000Y22455714D02*
X166199380Y22360476D01*
X166199380Y22360476D02*
X166199380Y22122381D01*
X166199380Y22122381D02*
X166247000Y22027143D01*
X166247000Y22027143D02*
X166294619Y21979524D01*
X166294619Y21979524D02*
X166389857Y21931905D01*
X166389857Y21931905D02*
X166485095Y21931905D01*
X166485095Y21931905D02*
X166627952Y21979524D01*
X166627952Y21979524D02*
X167199380Y22550952D01*
X167199380Y22550952D02*
X167199380Y21931905D01*
G04 #@! TO.C,D121*
X247784380Y63452976D02*
X246784380Y63452976D01*
X246784380Y63452976D02*
X246784380Y63214881D01*
X246784380Y63214881D02*
X246832000Y63072024D01*
X246832000Y63072024D02*
X246927238Y62976786D01*
X246927238Y62976786D02*
X247022476Y62929167D01*
X247022476Y62929167D02*
X247212952Y62881548D01*
X247212952Y62881548D02*
X247355809Y62881548D01*
X247355809Y62881548D02*
X247546285Y62929167D01*
X247546285Y62929167D02*
X247641523Y62976786D01*
X247641523Y62976786D02*
X247736761Y63072024D01*
X247736761Y63072024D02*
X247784380Y63214881D01*
X247784380Y63214881D02*
X247784380Y63452976D01*
X247784380Y61929167D02*
X247784380Y62500595D01*
X247784380Y62214881D02*
X246784380Y62214881D01*
X246784380Y62214881D02*
X246927238Y62310119D01*
X246927238Y62310119D02*
X247022476Y62405357D01*
X247022476Y62405357D02*
X247070095Y62500595D01*
X246879619Y61548214D02*
X246832000Y61500595D01*
X246832000Y61500595D02*
X246784380Y61405357D01*
X246784380Y61405357D02*
X246784380Y61167262D01*
X246784380Y61167262D02*
X246832000Y61072024D01*
X246832000Y61072024D02*
X246879619Y61024405D01*
X246879619Y61024405D02*
X246974857Y60976786D01*
X246974857Y60976786D02*
X247070095Y60976786D01*
X247070095Y60976786D02*
X247212952Y61024405D01*
X247212952Y61024405D02*
X247784380Y61595833D01*
X247784380Y61595833D02*
X247784380Y60976786D01*
X247784380Y60024405D02*
X247784380Y60595833D01*
X247784380Y60310119D02*
X246784380Y60310119D01*
X246784380Y60310119D02*
X246927238Y60405357D01*
X246927238Y60405357D02*
X247022476Y60500595D01*
X247022476Y60500595D02*
X247070095Y60595833D01*
G04 #@! TO.C,D16*
G36*
X32899500Y86870001D02*
G01*
X31999500Y86870001D01*
X32899500Y87770001D01*
X32899500Y86870001D01*
G37*
D11*
X32899500Y86870001D02*
X31999500Y86870001D01*
X32899500Y87770001D01*
X32899500Y86870001D01*
G04 #@! TO.C,D65*
G36*
X151962000Y29720001D02*
G01*
X151062000Y29720001D01*
X151962000Y30620001D01*
X151962000Y29720001D01*
G37*
X151962000Y29720001D02*
X151062000Y29720001D01*
X151962000Y30620001D01*
X151962000Y29720001D01*
G04 #@! TO.C,D81*
G36*
X261499500Y10670001D02*
G01*
X260599500Y10670001D01*
X261499500Y11570001D01*
X261499500Y10670001D01*
G37*
X261499500Y10670001D02*
X260599500Y10670001D01*
X261499500Y11570001D01*
X261499500Y10670001D01*
G04 #@! TO.C,D72*
G36*
X299599500Y29720001D02*
G01*
X298699500Y29720001D01*
X299599500Y30620001D01*
X299599500Y29720001D01*
G37*
X299599500Y29720001D02*
X298699500Y29720001D01*
X299599500Y30620001D01*
X299599500Y29720001D01*
G04 #@! TO.C,D25*
G36*
X204349500Y86870001D02*
G01*
X203449500Y86870001D01*
X204349500Y87770001D01*
X204349500Y86870001D01*
G37*
X204349500Y86870001D02*
X203449500Y86870001D01*
X204349500Y87770001D01*
X204349500Y86870001D01*
G04 #@! TO.C,D17*
G36*
X51949500Y86870001D02*
G01*
X51049500Y86870001D01*
X51949500Y87770001D01*
X51949500Y86870001D01*
G37*
X51949500Y86870001D02*
X51049500Y86870001D01*
X51949500Y87770001D01*
X51949500Y86870001D01*
G04 #@! TO.C,D78*
G36*
X177026000Y10670001D02*
G01*
X176126000Y10670001D01*
X177026000Y11570001D01*
X177026000Y10670001D01*
G37*
X177026000Y10670001D02*
X176126000Y10670001D01*
X177026000Y11570001D01*
X177026000Y10670001D01*
G04 #@! TO.C,D71*
G36*
X280549500Y29720001D02*
G01*
X279649500Y29720001D01*
X280549500Y30620001D01*
X280549500Y29720001D01*
G37*
X280549500Y29720001D02*
X279649500Y29720001D01*
X280549500Y30620001D01*
X280549500Y29720001D01*
G04 #@! TO.C,D29*
G36*
X299599500Y86870001D02*
G01*
X298699500Y86870001D01*
X299599500Y87770001D01*
X299599500Y86870001D01*
G37*
X299599500Y86870001D02*
X298699500Y86870001D01*
X299599500Y87770001D01*
X299599500Y86870001D01*
G04 #@! TO.C,D48*
G36*
X85287000Y48770001D02*
G01*
X84387000Y48770001D01*
X85287000Y49670001D01*
X85287000Y48770001D01*
G37*
X85287000Y48770001D02*
X84387000Y48770001D01*
X85287000Y49670001D01*
X85287000Y48770001D01*
G04 #@! TO.C,D73*
G36*
X16230750Y10670001D02*
G01*
X15330750Y10670001D01*
X16230750Y11570001D01*
X16230750Y10670001D01*
G37*
X16230750Y10670001D02*
X15330750Y10670001D01*
X16230750Y11570001D01*
X16230750Y10670001D01*
G04 #@! TO.C,D67*
G36*
X190062000Y29720001D02*
G01*
X189162000Y29720001D01*
X190062000Y30620001D01*
X190062000Y29720001D01*
G37*
X190062000Y29720001D02*
X189162000Y29720001D01*
X190062000Y30620001D01*
X190062000Y29720001D01*
G04 #@! TO.C,D37*
G36*
X156724500Y67820001D02*
G01*
X155824500Y67820001D01*
X156724500Y68720001D01*
X156724500Y67820001D01*
G37*
X156724500Y67820001D02*
X155824500Y67820001D01*
X156724500Y68720001D01*
X156724500Y67820001D01*
G04 #@! TO.C,D28*
G36*
X271024500Y86870001D02*
G01*
X270124500Y86870001D01*
X271024500Y87770001D01*
X271024500Y86870001D01*
G37*
X271024500Y86870001D02*
X270124500Y86870001D01*
X271024500Y87770001D01*
X271024500Y86870001D01*
G04 #@! TO.C,D51*
G36*
X142437000Y48770001D02*
G01*
X141537000Y48770001D01*
X142437000Y49670001D01*
X142437000Y48770001D01*
G37*
X142437000Y48770001D02*
X141537000Y48770001D01*
X142437000Y49670001D01*
X142437000Y48770001D01*
G04 #@! TO.C,D38*
G36*
X175774500Y67820001D02*
G01*
X174874500Y67820001D01*
X175774500Y68720001D01*
X175774500Y67820001D01*
G37*
X175774500Y67820001D02*
X174874500Y67820001D01*
X175774500Y68720001D01*
X175774500Y67820001D01*
G04 #@! TO.C,D55*
G36*
X218637000Y48770001D02*
G01*
X217737000Y48770001D01*
X218637000Y49670001D01*
X218637000Y48770001D01*
G37*
X218637000Y48770001D02*
X217737000Y48770001D01*
X218637000Y49670001D01*
X218637000Y48770001D01*
G04 #@! TO.C,D76*
G36*
X100040500Y10667901D02*
G01*
X99140500Y10667901D01*
X100040500Y11567901D01*
X100040500Y10667901D01*
G37*
X100040500Y10667901D02*
X99140500Y10667901D01*
X100040500Y11567901D01*
X100040500Y10667901D01*
G04 #@! TO.C,D15*
G36*
X13849500Y86870001D02*
G01*
X12949500Y86870001D01*
X13849500Y87770001D01*
X13849500Y86870001D01*
G37*
X13849500Y86870001D02*
X12949500Y86870001D01*
X13849500Y87770001D01*
X13849500Y86870001D01*
G04 #@! TO.C,D74*
G36*
X40043250Y10670001D02*
G01*
X39143250Y10670001D01*
X40043250Y11570001D01*
X40043250Y10670001D01*
G37*
X40043250Y10670001D02*
X39143250Y10670001D01*
X40043250Y11570001D01*
X40043250Y10670001D01*
G04 #@! TO.C,D27*
G36*
X242449500Y86870001D02*
G01*
X241549500Y86870001D01*
X242449500Y87770001D01*
X242449500Y86870001D01*
G37*
X242449500Y86870001D02*
X241549500Y86870001D01*
X242449500Y87770001D01*
X242449500Y86870001D01*
G04 #@! TO.C,D58*
G36*
X299599500Y48770001D02*
G01*
X298699500Y48770001D01*
X299599500Y49670001D01*
X299599500Y48770001D01*
G37*
X299599500Y48770001D02*
X298699500Y48770001D01*
X299599500Y49670001D01*
X299599500Y48770001D01*
G04 #@! TO.C,D54*
G36*
X199587000Y48770001D02*
G01*
X198687000Y48770001D01*
X199587000Y49670001D01*
X199587000Y48770001D01*
G37*
X199587000Y48770001D02*
X198687000Y48770001D01*
X199587000Y49670001D01*
X199587000Y48770001D01*
G04 #@! TO.C,D22*
G36*
X138799500Y99929999D02*
G01*
X138799500Y100829999D01*
X139699500Y100829999D01*
X138799500Y99929999D01*
G37*
X138799500Y99929999D02*
X138799500Y100829999D01*
X139699500Y100829999D01*
X138799500Y99929999D01*
G04 #@! TO.C,D52*
G36*
X161487000Y48770001D02*
G01*
X160587000Y48770001D01*
X161487000Y49670001D01*
X161487000Y48770001D01*
G37*
X161487000Y48770001D02*
X160587000Y48770001D01*
X161487000Y49670001D01*
X161487000Y48770001D01*
G04 #@! TO.C,D40*
G36*
X213874500Y67820001D02*
G01*
X212974500Y67820001D01*
X213874500Y68720001D01*
X213874500Y67820001D01*
G37*
X213874500Y67820001D02*
X212974500Y67820001D01*
X213874500Y68720001D01*
X213874500Y67820001D01*
G04 #@! TO.C,D49*
G36*
X104337000Y48770001D02*
G01*
X103437000Y48770001D01*
X104337000Y49670001D01*
X104337000Y48770001D01*
G37*
X104337000Y48770001D02*
X103437000Y48770001D01*
X104337000Y49670001D01*
X104337000Y48770001D01*
G04 #@! TO.C,D33*
G36*
X80524500Y67820001D02*
G01*
X79624500Y67820001D01*
X80524500Y68720001D01*
X80524500Y67820001D01*
G37*
X80524500Y67820001D02*
X79624500Y67820001D01*
X80524500Y68720001D01*
X80524500Y67820001D01*
G04 #@! TO.C,D66*
G36*
X171012000Y29720001D02*
G01*
X170112000Y29720001D01*
X171012000Y30620001D01*
X171012000Y29720001D01*
G37*
X171012000Y29720001D02*
X170112000Y29720001D01*
X171012000Y30620001D01*
X171012000Y29720001D01*
G04 #@! TO.C,D64*
G36*
X132912000Y29720001D02*
G01*
X132012000Y29720001D01*
X132912000Y30620001D01*
X132912000Y29720001D01*
G37*
X132912000Y29720001D02*
X132012000Y29720001D01*
X132912000Y30620001D01*
X132912000Y29720001D01*
G04 #@! TO.C,D69*
G36*
X228162000Y29720001D02*
G01*
X227262000Y29720001D01*
X228162000Y30620001D01*
X228162000Y29720001D01*
G37*
X228162000Y29720001D02*
X227262000Y29720001D01*
X228162000Y30620001D01*
X228162000Y29720001D01*
G04 #@! TO.C,D19*
G36*
X90049500Y86870001D02*
G01*
X89149500Y86870001D01*
X90049500Y87770001D01*
X90049500Y86870001D01*
G37*
X90049500Y86870001D02*
X89149500Y86870001D01*
X90049500Y87770001D01*
X90049500Y86870001D01*
G04 #@! TO.C,D39*
G36*
X194824500Y67820001D02*
G01*
X193924500Y67820001D01*
X194824500Y68720001D01*
X194824500Y67820001D01*
G37*
X194824500Y67820001D02*
X193924500Y67820001D01*
X194824500Y68720001D01*
X194824500Y67820001D01*
G04 #@! TO.C,D77*
G36*
X141441250Y10670001D02*
G01*
X140541250Y10670001D01*
X141441250Y11570001D01*
X141441250Y10670001D01*
G37*
X141441250Y10670001D02*
X140541250Y10670001D01*
X141441250Y11570001D01*
X141441250Y10670001D01*
G04 #@! TO.C,D23*
G36*
X157849500Y99929999D02*
G01*
X157849500Y100829999D01*
X158749500Y100829999D01*
X157849500Y99929999D01*
G37*
X157849500Y99929999D02*
X157849500Y100829999D01*
X158749500Y100829999D01*
X157849500Y99929999D01*
G04 #@! TO.C,D53*
G36*
X180537000Y48770001D02*
G01*
X179637000Y48770001D01*
X180537000Y49670001D01*
X180537000Y48770001D01*
G37*
X180537000Y48770001D02*
X179637000Y48770001D01*
X180537000Y49670001D01*
X180537000Y48770001D01*
G04 #@! TO.C,D75*
G36*
X63855750Y10670001D02*
G01*
X62955750Y10670001D01*
X63855750Y11570001D01*
X63855750Y10670001D01*
G37*
X63855750Y10670001D02*
X62955750Y10670001D01*
X63855750Y11570001D01*
X63855750Y10670001D01*
G04 #@! TO.C,D60*
G36*
X56712000Y29720001D02*
G01*
X55812000Y29720001D01*
X56712000Y30620001D01*
X56712000Y29720001D01*
G37*
X56712000Y29720001D02*
X55812000Y29720001D01*
X56712000Y30620001D01*
X56712000Y29720001D01*
G04 #@! TO.C,D18*
G36*
X70999500Y86870001D02*
G01*
X70099500Y86870001D01*
X70999500Y87770001D01*
X70999500Y86870001D01*
G37*
X70999500Y86870001D02*
X70099500Y86870001D01*
X70999500Y87770001D01*
X70999500Y86870001D01*
G04 #@! TO.C,D24*
G36*
X185299500Y86870001D02*
G01*
X184399500Y86870001D01*
X185299500Y87770001D01*
X185299500Y86870001D01*
G37*
X185299500Y86870001D02*
X184399500Y86870001D01*
X185299500Y87770001D01*
X185299500Y86870001D01*
G04 #@! TO.C,D50*
G36*
X123387000Y48770001D02*
G01*
X122487000Y48770001D01*
X123387000Y49670001D01*
X123387000Y48770001D01*
G37*
X123387000Y48770001D02*
X122487000Y48770001D01*
X123387000Y49670001D01*
X123387000Y48770001D01*
G04 #@! TO.C,D47*
G36*
X66237000Y48770001D02*
G01*
X65337000Y48770001D01*
X66237000Y49670001D01*
X66237000Y48770001D01*
G37*
X66237000Y48770001D02*
X65337000Y48770001D01*
X66237000Y49670001D01*
X66237000Y48770001D01*
G04 #@! TO.C,D42*
G36*
X251974500Y67820001D02*
G01*
X251074500Y67820001D01*
X251974500Y68720001D01*
X251974500Y67820001D01*
G37*
X251974500Y67820001D02*
X251074500Y67820001D01*
X251974500Y68720001D01*
X251974500Y67820001D01*
G04 #@! TO.C,D44*
G36*
X299599500Y67820001D02*
G01*
X298699500Y67820001D01*
X299599500Y68720001D01*
X299599500Y67820001D01*
G37*
X299599500Y67820001D02*
X298699500Y67820001D01*
X299599500Y68720001D01*
X299599500Y67820001D01*
G04 #@! TO.C,D32*
G36*
X61474500Y67820001D02*
G01*
X60574500Y67820001D01*
X61474500Y68720001D01*
X61474500Y67820001D01*
G37*
X61474500Y67820001D02*
X60574500Y67820001D01*
X61474500Y68720001D01*
X61474500Y67820001D01*
G04 #@! TO.C,D36*
G36*
X137674500Y67820001D02*
G01*
X136774500Y67820001D01*
X137674500Y68720001D01*
X137674500Y67820001D01*
G37*
X137674500Y67820001D02*
X136774500Y67820001D01*
X137674500Y68720001D01*
X137674500Y67820001D01*
G04 #@! TO.C,D34*
G36*
X99574500Y67820001D02*
G01*
X98674500Y67820001D01*
X99574500Y68720001D01*
X99574500Y67820001D01*
G37*
X99574500Y67820001D02*
X98674500Y67820001D01*
X99574500Y68720001D01*
X99574500Y67820001D01*
G04 #@! TO.C,D56*
G36*
X237687000Y48770001D02*
G01*
X236787000Y48770001D01*
X237687000Y49670001D01*
X237687000Y48770001D01*
G37*
X237687000Y48770001D02*
X236787000Y48770001D01*
X237687000Y49670001D01*
X237687000Y48770001D01*
G04 #@! TO.C,D68*
G36*
X209112000Y29720001D02*
G01*
X208212000Y29720001D01*
X209112000Y30620001D01*
X209112000Y29720001D01*
G37*
X209112000Y29720001D02*
X208212000Y29720001D01*
X209112000Y30620001D01*
X209112000Y29720001D01*
G04 #@! TO.C,D61*
G36*
X75762000Y29720001D02*
G01*
X74862000Y29720001D01*
X75762000Y30620001D01*
X75762000Y29720001D01*
G37*
X75762000Y29720001D02*
X74862000Y29720001D01*
X75762000Y30620001D01*
X75762000Y29720001D01*
G04 #@! TO.C,D43*
G36*
X275787000Y67820001D02*
G01*
X274887000Y67820001D01*
X275787000Y68720001D01*
X275787000Y67820001D01*
G37*
X275787000Y67820001D02*
X274887000Y67820001D01*
X275787000Y68720001D01*
X275787000Y67820001D01*
G04 #@! TO.C,D57*
G36*
X268643250Y48770001D02*
G01*
X267743250Y48770001D01*
X268643250Y49670001D01*
X268643250Y48770001D01*
G37*
X268643250Y48770001D02*
X267743250Y48770001D01*
X268643250Y49670001D01*
X268643250Y48770001D01*
G04 #@! TO.C,D80*
G36*
X230543250Y10670001D02*
G01*
X229643250Y10670001D01*
X230543250Y11570001D01*
X230543250Y10670001D01*
G37*
X230543250Y10670001D02*
X229643250Y10670001D01*
X230543250Y11570001D01*
X230543250Y10670001D01*
G04 #@! TO.C,D26*
G36*
X223399500Y86870001D02*
G01*
X222499500Y86870001D01*
X223399500Y87770001D01*
X223399500Y86870001D01*
G37*
X223399500Y86870001D02*
X222499500Y86870001D01*
X223399500Y87770001D01*
X223399500Y86870001D01*
G04 #@! TO.C,D41*
G36*
X232924500Y67820001D02*
G01*
X232024500Y67820001D01*
X232924500Y68720001D01*
X232924500Y67820001D01*
G37*
X232924500Y67820001D02*
X232024500Y67820001D01*
X232924500Y68720001D01*
X232924500Y67820001D01*
G04 #@! TO.C,D31*
G36*
X42424500Y67820001D02*
G01*
X41524500Y67820001D01*
X42424500Y68720001D01*
X42424500Y67820001D01*
G37*
X42424500Y67820001D02*
X41524500Y67820001D01*
X42424500Y68720001D01*
X42424500Y67820001D01*
G04 #@! TO.C,D79*
G36*
X211454950Y10670001D02*
G01*
X210554950Y10670001D01*
X211454950Y11570001D01*
X211454950Y10670001D01*
G37*
X211454950Y10670001D02*
X210554950Y10670001D01*
X211454950Y11570001D01*
X211454950Y10670001D01*
G04 #@! TO.C,D63*
G36*
X113862000Y29720001D02*
G01*
X112962000Y29720001D01*
X113862000Y30620001D01*
X113862000Y29720001D01*
G37*
X113862000Y29720001D02*
X112962000Y29720001D01*
X113862000Y30620001D01*
X113862000Y29720001D01*
G04 #@! TO.C,D35*
G36*
X118624500Y67820001D02*
G01*
X117724500Y67820001D01*
X118624500Y68720001D01*
X118624500Y67820001D01*
G37*
X118624500Y67820001D02*
X117724500Y67820001D01*
X118624500Y68720001D01*
X118624500Y67820001D01*
G04 #@! TO.C,D62*
G36*
X94812000Y29720001D02*
G01*
X93912000Y29720001D01*
X94812000Y30620001D01*
X94812000Y29720001D01*
G37*
X94812000Y29720001D02*
X93912000Y29720001D01*
X94812000Y30620001D01*
X94812000Y29720001D01*
G04 #@! TO.C,D59*
G36*
X25755750Y29720001D02*
G01*
X24855750Y29720001D01*
X25755750Y30620001D01*
X25755750Y29720001D01*
G37*
X25755750Y29720001D02*
X24855750Y29720001D01*
X25755750Y30620001D01*
X25755750Y29720001D01*
G04 #@! TO.C,D20*
G36*
X109099500Y86870001D02*
G01*
X108199500Y86870001D01*
X109099500Y87770001D01*
X109099500Y86870001D01*
G37*
X109099500Y86870001D02*
X108199500Y86870001D01*
X109099500Y87770001D01*
X109099500Y86870001D01*
G04 #@! TO.C,D83*
G36*
X299599500Y10670001D02*
G01*
X298699500Y10670001D01*
X299599500Y11570001D01*
X299599500Y10670001D01*
G37*
X299599500Y10670001D02*
X298699500Y10670001D01*
X299599500Y11570001D01*
X299599500Y10670001D01*
G04 #@! TO.C,D82*
G36*
X280549500Y10670001D02*
G01*
X279649500Y10670001D01*
X280549500Y11570001D01*
X280549500Y10670001D01*
G37*
X280549500Y10670001D02*
X279649500Y10670001D01*
X280549500Y11570001D01*
X280549500Y10670001D01*
G04 #@! TO.C,D70*
G36*
X254355750Y29720001D02*
G01*
X253455750Y29720001D01*
X254355750Y30620001D01*
X254355750Y29720001D01*
G37*
X254355750Y29720001D02*
X253455750Y29720001D01*
X254355750Y30620001D01*
X254355750Y29720001D01*
G04 #@! TO.C,D45*
G36*
X20993250Y48770001D02*
G01*
X20093250Y48770001D01*
X20993250Y49670001D01*
X20993250Y48770001D01*
G37*
X20993250Y48770001D02*
X20093250Y48770001D01*
X20993250Y49670001D01*
X20993250Y48770001D01*
G04 #@! TO.C,D21*
G36*
X128149500Y86870001D02*
G01*
X127249500Y86870001D01*
X128149500Y87770001D01*
X128149500Y86870001D01*
G37*
X128149500Y86870001D02*
X127249500Y86870001D01*
X128149500Y87770001D01*
X128149500Y86870001D01*
G04 #@! TO.C,D46*
G36*
X47187000Y48770001D02*
G01*
X46287000Y48770001D01*
X47187000Y49670001D01*
X47187000Y48770001D01*
G37*
X47187000Y48770001D02*
X46287000Y48770001D01*
X47187000Y49670001D01*
X47187000Y48770001D01*
G04 #@! TO.C,D30*
G36*
X18612000Y67820001D02*
G01*
X17712000Y67820001D01*
X18612000Y68720001D01*
X18612000Y67820001D01*
G37*
X18612000Y67820001D02*
X17712000Y67820001D01*
X18612000Y68720001D01*
X18612000Y67820001D01*
D12*
G04 #@! TO.C,D108*
X60477000Y42720000D02*
X60477000Y42070000D01*
X60477000Y42720000D02*
X60477000Y43370000D01*
X63597000Y42720000D02*
X63597000Y41045000D01*
X63597000Y42720000D02*
X63597000Y43370000D01*
G04 #@! TO.C,D6*
G36*
X112567000Y88550000D02*
G01*
X112017000Y88550000D01*
X112017000Y89150000D01*
X112567000Y88550000D01*
G37*
D11*
X112567000Y88550000D02*
X112017000Y88550000D01*
X112017000Y89150000D01*
X112567000Y88550000D01*
D12*
G04 #@! TO.C,D90*
X246217000Y99870000D02*
X246217000Y99220000D01*
X246217000Y99870000D02*
X246217000Y100520000D01*
X249337000Y99870000D02*
X249337000Y98195000D01*
X249337000Y99870000D02*
X249337000Y100520000D01*
G04 #@! TO.C,D109*
X98577000Y42720000D02*
X98577000Y42070000D01*
X98577000Y42720000D02*
X98577000Y43370000D01*
X101697000Y42720000D02*
X101697000Y41045000D01*
X101697000Y42720000D02*
X101697000Y43370000D01*
G04 #@! TO.C,D91*
X281177000Y99840000D02*
X281177000Y99190000D01*
X281177000Y99840000D02*
X281177000Y100490000D01*
X284297000Y99840000D02*
X284297000Y98165000D01*
X284297000Y99840000D02*
X284297000Y100490000D01*
G04 #@! TO.C,Y2*
X164590324Y60613223D02*
X166923777Y62946676D01*
X166570223Y58633324D02*
X164590324Y60613223D01*
G04 #@! TO.C,D4*
G36*
X74477000Y88550000D02*
G01*
X73927000Y88550000D01*
X73927000Y89150000D01*
X74477000Y88550000D01*
G37*
D11*
X74477000Y88550000D02*
X73927000Y88550000D01*
X73927000Y89150000D01*
X74477000Y88550000D01*
D12*
G04 #@! TO.C,D92*
X22367000Y84320000D02*
X22367000Y83670000D01*
X22367000Y84320000D02*
X22367000Y84970000D01*
X25487000Y84320000D02*
X25487000Y82645000D01*
X25487000Y84320000D02*
X25487000Y84970000D01*
G04 #@! TO.C,U2*
X152237000Y86080000D02*
X152237000Y87680000D01*
X154037000Y87680000D02*
X154037000Y85780000D01*
G04 #@! TO.C,D84*
X17177000Y96770000D02*
X17177000Y96120000D01*
X17177000Y96770000D02*
X17177000Y97420000D01*
X20297000Y96770000D02*
X20297000Y95095000D01*
X20297000Y96770000D02*
X20297000Y97420000D01*
G04 #@! TO.C,D122*
X162872000Y23670000D02*
X162872000Y23020000D01*
X162872000Y23670000D02*
X162872000Y24320000D01*
X165992000Y23670000D02*
X165992000Y21995000D01*
X165992000Y23670000D02*
X165992000Y24320000D01*
G04 #@! TO.C,D104*
X184307000Y61770000D02*
X184307000Y61120000D01*
X184307000Y61770000D02*
X184307000Y62420000D01*
X187427000Y61770000D02*
X187427000Y60095000D01*
X187427000Y61770000D02*
X187427000Y62420000D01*
D13*
G04 #@! TO.C,J1*
X171037000Y82690000D02*
G75*
G03*
X171037000Y82690000I-100000J0D01*
G01*
D12*
G04 #@! TO.C,D110*
X136677000Y42720000D02*
X136677000Y42070000D01*
X136677000Y42720000D02*
X136677000Y43370000D01*
X139797000Y42720000D02*
X139797000Y41045000D01*
X139797000Y42720000D02*
X139797000Y43370000D01*
G04 #@! TO.C,D88*
X170017000Y99860000D02*
X170017000Y99210000D01*
X170017000Y99860000D02*
X170017000Y100510000D01*
X173137000Y99860000D02*
X173137000Y98185000D01*
X173137000Y99860000D02*
X173137000Y100510000D01*
G04 #@! TO.C,D121*
X243457000Y61762500D02*
X243457000Y61112500D01*
X243457000Y61762500D02*
X243457000Y62412500D01*
X246577000Y61762500D02*
X246577000Y60087500D01*
X246577000Y61762500D02*
X246577000Y62412500D01*
G04 #@! TO.C,D116*
X67617000Y23670000D02*
X67617000Y23020000D01*
X67617000Y23670000D02*
X67617000Y24320000D01*
X70737000Y23670000D02*
X70737000Y21995000D01*
X70737000Y23670000D02*
X70737000Y24320000D01*
G04 #@! TO.C,D107*
X24757000Y46230000D02*
X24757000Y45580000D01*
X24757000Y46230000D02*
X24757000Y46880000D01*
X27877000Y46230000D02*
X27877000Y44555000D01*
X27877000Y46230000D02*
X27877000Y46880000D01*
D14*
G04 #@! TO.C,U1*
X163426000Y76980000D02*
X163426000Y74630000D01*
X159428000Y75480000D02*
X159428000Y76980000D01*
G04 #@! TO.C,D5*
G36*
X93527000Y88550000D02*
G01*
X92977000Y88550000D01*
X92977000Y89150000D01*
X93527000Y88550000D01*
G37*
D11*
X93527000Y88550000D02*
X92977000Y88550000D01*
X92977000Y89150000D01*
X93527000Y88550000D01*
G04 #@! TO.C,D2*
G36*
X36377000Y88550000D02*
G01*
X35827000Y88550000D01*
X35827000Y89150000D01*
X36377000Y88550000D01*
G37*
X36377000Y88550000D02*
X35827000Y88550000D01*
X35827000Y89150000D01*
X36377000Y88550000D01*
D12*
G04 #@! TO.C,D96*
X179537000Y80820000D02*
X179537000Y80170000D01*
X179537000Y80820000D02*
X179537000Y81470000D01*
X182657000Y80820000D02*
X182657000Y79145000D01*
X182657000Y80820000D02*
X182657000Y81470000D01*
G04 #@! TO.C,D95*
X141437000Y80820000D02*
X141437000Y80170000D01*
X141437000Y80820000D02*
X141437000Y81470000D01*
X144557000Y80820000D02*
X144557000Y79145000D01*
X144557000Y80820000D02*
X144557000Y81470000D01*
G04 #@! TO.C,D106*
X284317000Y61770000D02*
X284317000Y61120000D01*
X284317000Y61770000D02*
X284317000Y62420000D01*
X287437000Y61770000D02*
X287437000Y60095000D01*
X287437000Y61770000D02*
X287437000Y62420000D01*
D13*
G04 #@! TO.C,J2*
X147747000Y103700000D02*
X157327000Y103700000D01*
X147747000Y102420000D02*
X147747000Y103700000D01*
X147747000Y98450000D02*
X147747000Y99700000D01*
X157327000Y103700000D02*
X157327000Y102420000D01*
X157327000Y98450000D02*
X157327000Y99700000D01*
D12*
G04 #@! TO.C,D100*
X24757000Y61770000D02*
X24757000Y61120000D01*
X24757000Y61770000D02*
X24757000Y62420000D01*
X27877000Y61770000D02*
X27877000Y60095000D01*
X27877000Y61770000D02*
X27877000Y62420000D01*
G04 #@! TO.C,U6*
X167142311Y68288629D02*
X166682692Y68748248D01*
X166682692Y67829010D02*
X167142311Y68288629D01*
X161577381Y72934321D02*
X162037000Y73393940D01*
X162496619Y63642937D02*
X162037000Y63183318D01*
X157391308Y68748248D02*
X156931689Y68288629D01*
X162037000Y63183318D02*
X161577381Y63642937D01*
X156931689Y68288629D02*
X157391308Y67829010D01*
G04 #@! TO.C,D117*
X210497000Y23670000D02*
X210497000Y23020000D01*
X210497000Y23670000D02*
X210497000Y24320000D01*
X213617000Y23670000D02*
X213617000Y21995000D01*
X213617000Y23670000D02*
X213617000Y24320000D01*
G04 #@! TO.C,D102*
X108107000Y61770000D02*
X108107000Y61120000D01*
X108107000Y61770000D02*
X108107000Y62420000D01*
X111227000Y61770000D02*
X111227000Y60095000D01*
X111227000Y61770000D02*
X111227000Y62420000D01*
G04 #@! TO.C,D113*
X265267000Y46220000D02*
X265267000Y45570000D01*
X265267000Y46220000D02*
X265267000Y46870000D01*
X268387000Y46220000D02*
X268387000Y44545000D01*
X268387000Y46220000D02*
X268387000Y46870000D01*
G04 #@! TO.C,D114*
X284317000Y42720000D02*
X284317000Y42070000D01*
X284317000Y42720000D02*
X284317000Y43370000D01*
X287437000Y42720000D02*
X287437000Y41045000D01*
X287437000Y42720000D02*
X287437000Y43370000D01*
G04 #@! TO.C,D87*
X131917000Y99870000D02*
X131917000Y99220000D01*
X131917000Y99870000D02*
X131917000Y100520000D01*
X135037000Y99870000D02*
X135037000Y98195000D01*
X135037000Y99870000D02*
X135037000Y100520000D01*
G04 #@! TO.C,D9*
G36*
X174397000Y88300000D02*
G01*
X173797000Y88300000D01*
X174397000Y88850000D01*
X174397000Y88300000D01*
G37*
D11*
X174397000Y88300000D02*
X173797000Y88300000D01*
X174397000Y88850000D01*
X174397000Y88300000D01*
D12*
G04 #@! TO.C,D86*
X93817000Y99870000D02*
X93817000Y99220000D01*
X93817000Y99870000D02*
X93817000Y100520000D01*
X96937000Y99870000D02*
X96937000Y98195000D01*
X96937000Y99870000D02*
X96937000Y100520000D01*
G04 #@! TO.C,C40*
X165367000Y85397836D02*
X165367000Y85182164D01*
X164647000Y85397836D02*
X164647000Y85182164D01*
G04 #@! TO.C,D97*
X217637000Y80820000D02*
X217637000Y80170000D01*
X217637000Y80820000D02*
X217637000Y81470000D01*
X220757000Y80820000D02*
X220757000Y79145000D01*
X220757000Y80820000D02*
X220757000Y81470000D01*
G04 #@! TO.C,D85*
X55717000Y99860000D02*
X55717000Y99210000D01*
X55717000Y99860000D02*
X55717000Y100510000D01*
X58837000Y99860000D02*
X58837000Y98185000D01*
X58837000Y99860000D02*
X58837000Y100510000D01*
G04 #@! TO.C,D8*
G36*
X155297000Y88290000D02*
G01*
X154697000Y88290000D01*
X155297000Y88840000D01*
X155297000Y88290000D01*
G37*
D11*
X155297000Y88290000D02*
X154697000Y88290000D01*
X155297000Y88840000D01*
X155297000Y88290000D01*
G04 #@! TO.C,D10*
G36*
X188777000Y88550000D02*
G01*
X188227000Y88550000D01*
X188227000Y89150000D01*
X188777000Y88550000D01*
G37*
X188777000Y88550000D02*
X188227000Y88550000D01*
X188227000Y89150000D01*
X188777000Y88550000D01*
D12*
G04 #@! TO.C,D98*
X260497000Y84320000D02*
X260497000Y83670000D01*
X260497000Y84320000D02*
X260497000Y84970000D01*
X263617000Y84320000D02*
X263617000Y82645000D01*
X263617000Y84320000D02*
X263617000Y84970000D01*
G04 #@! TO.C,D94*
X103337000Y80820000D02*
X103337000Y80170000D01*
X103337000Y80820000D02*
X103337000Y81470000D01*
X106457000Y80820000D02*
X106457000Y79145000D01*
X106457000Y80820000D02*
X106457000Y81470000D01*
G04 #@! TO.C,U7*
X146987000Y84520000D02*
X148537000Y84520000D01*
X148537000Y86320000D02*
X147237000Y86320000D01*
G04 #@! TO.C,D13*
G36*
X249967000Y88530000D02*
G01*
X249417000Y88530000D01*
X249417000Y89130000D01*
X249967000Y88530000D01*
G37*
D11*
X249967000Y88530000D02*
X249417000Y88530000D01*
X249417000Y89130000D01*
X249967000Y88530000D01*
D12*
G04 #@! TO.C,D111*
X174777000Y42720000D02*
X174777000Y42070000D01*
X174777000Y42720000D02*
X174777000Y43370000D01*
X177897000Y42720000D02*
X177897000Y41045000D01*
X177897000Y42720000D02*
X177897000Y43370000D01*
G04 #@! TO.C,C15*
X159997000Y85407836D02*
X159997000Y85192164D01*
X159277000Y85407836D02*
X159277000Y85192164D01*
G04 #@! TO.C,D7*
G36*
X131337000Y92540000D02*
G01*
X131337000Y93090000D01*
X131937000Y93090000D01*
X131337000Y92540000D01*
G37*
D11*
X131337000Y92540000D02*
X131337000Y93090000D01*
X131937000Y93090000D01*
X131337000Y92540000D01*
D12*
G04 #@! TO.C,D120*
X157467000Y82160000D02*
X157467000Y86020000D01*
X159467000Y82160000D02*
X157467000Y82160000D01*
X159467000Y82160000D02*
X159467000Y86020000D01*
G04 #@! TO.C,F1*
X155968422Y86480000D02*
X156485578Y86480000D01*
X155968422Y85060000D02*
X156485578Y85060000D01*
G04 #@! TO.C,D89*
X207657000Y96800000D02*
X207657000Y96150000D01*
X207657000Y96800000D02*
X207657000Y97450000D01*
X210777000Y96800000D02*
X210777000Y95125000D01*
X210777000Y96800000D02*
X210777000Y97450000D01*
G04 #@! TO.C,D1*
G36*
X17327000Y88550000D02*
G01*
X16777000Y88550000D01*
X16777000Y89150000D01*
X17327000Y88550000D01*
G37*
D11*
X17327000Y88550000D02*
X16777000Y88550000D01*
X16777000Y89150000D01*
X17327000Y88550000D01*
G04 #@! TO.C,D3*
G36*
X55427000Y88550000D02*
G01*
X54877000Y88550000D01*
X54877000Y89150000D01*
X55427000Y88550000D01*
G37*
X55427000Y88550000D02*
X54877000Y88550000D01*
X54877000Y89150000D01*
X55427000Y88550000D01*
D12*
G04 #@! TO.C,D112*
X212877000Y42720000D02*
X212877000Y42070000D01*
X212877000Y42720000D02*
X212877000Y43370000D01*
X215997000Y42720000D02*
X215997000Y41045000D01*
X215997000Y42720000D02*
X215997000Y43370000D01*
G04 #@! TO.C,D103*
X146207000Y61770000D02*
X146207000Y61120000D01*
X146207000Y61770000D02*
X146207000Y62420000D01*
X149327000Y61770000D02*
X149327000Y60095000D01*
X149327000Y61770000D02*
X149327000Y62420000D01*
G04 #@! TO.C,D11*
G36*
X207827000Y88550000D02*
G01*
X207277000Y88550000D01*
X207277000Y89150000D01*
X207827000Y88550000D01*
G37*
D11*
X207827000Y88550000D02*
X207277000Y88550000D01*
X207277000Y89150000D01*
X207827000Y88550000D01*
D12*
G04 #@! TO.C,D119*
X284317000Y23670000D02*
X284317000Y23020000D01*
X284317000Y23670000D02*
X284317000Y24320000D01*
X287437000Y23670000D02*
X287437000Y21995000D01*
X287437000Y23670000D02*
X287437000Y24320000D01*
G04 #@! TO.C,D12*
G36*
X226887000Y88550000D02*
G01*
X226337000Y88550000D01*
X226337000Y89150000D01*
X226887000Y88550000D01*
G37*
D11*
X226887000Y88550000D02*
X226337000Y88550000D01*
X226337000Y89150000D01*
X226887000Y88550000D01*
D12*
G04 #@! TO.C,D115*
X19997000Y27160000D02*
X19997000Y26510000D01*
X19997000Y27160000D02*
X19997000Y27810000D01*
X23117000Y27160000D02*
X23117000Y25485000D01*
X23117000Y27160000D02*
X23117000Y27810000D01*
G04 #@! TO.C,D101*
X69997000Y61770000D02*
X69997000Y61120000D01*
X69997000Y61770000D02*
X69997000Y62420000D01*
X73117000Y61770000D02*
X73117000Y60095000D01*
X73117000Y61770000D02*
X73117000Y62420000D01*
G04 #@! TO.C,D105*
X222407000Y61770000D02*
X222407000Y61120000D01*
X222407000Y61770000D02*
X222407000Y62420000D01*
X225527000Y61770000D02*
X225527000Y60095000D01*
X225527000Y61770000D02*
X225527000Y62420000D01*
G04 #@! TO.C,D93*
X65237000Y80820000D02*
X65237000Y80170000D01*
X65237000Y80820000D02*
X65237000Y81470000D01*
X68357000Y80820000D02*
X68357000Y79145000D01*
X68357000Y80820000D02*
X68357000Y81470000D01*
G04 #@! TO.C,D14*
G36*
X281147000Y88540000D02*
G01*
X280597000Y88540000D01*
X280597000Y89140000D01*
X281147000Y88540000D01*
G37*
D11*
X281147000Y88540000D02*
X280597000Y88540000D01*
X280597000Y89140000D01*
X281147000Y88540000D01*
D12*
G04 #@! TO.C,D118*
X265267000Y23670000D02*
X265267000Y23020000D01*
X265267000Y23670000D02*
X265267000Y24320000D01*
X268387000Y23670000D02*
X268387000Y21995000D01*
X268387000Y23670000D02*
X268387000Y24320000D01*
G04 #@! TO.C,D99*
X284317000Y84320000D02*
X284317000Y83670000D01*
X284317000Y84320000D02*
X284317000Y84970000D01*
X287437000Y84320000D02*
X287437000Y82645000D01*
X287437000Y84320000D02*
X287437000Y84970000D01*
G04 #@! TO.C,C39*
X162817000Y85407836D02*
X162817000Y85192164D01*
X162097000Y85407836D02*
X162097000Y85192164D01*
G04 #@! TD*
M02*
