G04 #@! TF.GenerationSoftware,KiCad,Pcbnew,(7.0.0)*
G04 #@! TF.CreationDate,2023-05-15T23:08:46-07:00*
G04 #@! TF.ProjectId,pcb-solder-rails,7063622d-736f-46c6-9465-722d7261696c,1.0*
G04 #@! TF.SameCoordinates,Original*
G04 #@! TF.FileFunction,Soldermask,Top*
G04 #@! TF.FilePolarity,Negative*
%FSLAX46Y46*%
G04 Gerber Fmt 4.6, Leading zero omitted, Abs format (unit mm)*
G04 Created by KiCad (PCBNEW (7.0.0)) date 2023-05-15 23:08:46*
%MOMM*%
%LPD*%
G01*
G04 APERTURE LIST*
%ADD10C,1.750000*%
%ADD11C,4.000000*%
%ADD12C,2.500000*%
%ADD13C,3.048000*%
%ADD14C,3.987800*%
%ADD15C,2.000000*%
%ADD16C,1.067000*%
%ADD17C,0.650000*%
%ADD18O,1.000000X2.000000*%
%ADD19O,1.050000X2.100000*%
G04 APERTURE END LIST*
D10*
G04 #@! TO.C,MX68*
X6950750Y55750000D03*
D11*
X12030750Y55750000D03*
D10*
X17110750Y55750000D03*
D12*
X8220750Y58290000D03*
X14570750Y60830000D03*
G04 #@! TD*
D10*
G04 #@! TO.C,MX18*
X52194500Y74800000D03*
D11*
X57274500Y74800000D03*
D10*
X62354500Y74800000D03*
D12*
X53464500Y77340000D03*
X59814500Y79880000D03*
G04 #@! TD*
D10*
G04 #@! TO.C,MX6*
X99819500Y93850000D03*
D11*
X104899500Y93850000D03*
D10*
X109979500Y93850000D03*
D12*
X101089500Y96390000D03*
X107439500Y98930000D03*
G04 #@! TD*
D10*
G04 #@! TO.C,MX67*
X290319500Y17650000D03*
D11*
X295399500Y17650000D03*
D10*
X300479500Y17650000D03*
D12*
X291589500Y20190000D03*
X297939500Y22730000D03*
G04 #@! TD*
D10*
G04 #@! TO.C,MX78*
X99819500Y17650000D03*
D11*
X104899500Y17650000D03*
D10*
X109979500Y17650000D03*
D12*
X101089500Y20190000D03*
X107439500Y22730000D03*
G04 #@! TD*
D10*
G04 #@! TO.C,MX73*
X6950750Y36700000D03*
D11*
X12030750Y36700000D03*
D10*
X17110750Y36700000D03*
D12*
X8220750Y39240000D03*
X14570750Y41780000D03*
G04 #@! TD*
D10*
G04 #@! TO.C,MX59*
X6950750Y17650000D03*
D11*
X12030750Y17650000D03*
D10*
X17110750Y17650000D03*
D12*
X8220750Y20190000D03*
X14570750Y22730000D03*
G04 #@! TD*
D10*
G04 #@! TO.C,MX36*
X114107000Y55750000D03*
D11*
X119187000Y55750000D03*
D10*
X124267000Y55750000D03*
D12*
X115377000Y58290000D03*
X121727000Y60830000D03*
G04 #@! TD*
D10*
G04 #@! TO.C,MX71*
X56957000Y17650000D03*
D11*
X62037000Y17650000D03*
D10*
X67117000Y17650000D03*
D12*
X58227000Y20190000D03*
X64577000Y22730000D03*
G04 #@! TD*
D10*
G04 #@! TO.C,MX2*
X23619500Y93850000D03*
D11*
X28699500Y93850000D03*
D10*
X33779500Y93850000D03*
D12*
X24889500Y96390000D03*
X31239500Y98930000D03*
G04 #@! TD*
D10*
G04 #@! TO.C,MX69*
X9332000Y17650000D03*
D11*
X14412000Y17650000D03*
D10*
X19492000Y17650000D03*
D12*
X10602000Y20190000D03*
X16952000Y22730000D03*
G04 #@! TD*
D10*
G04 #@! TO.C,MX60*
X30763250Y17650000D03*
D11*
X35843250Y17650000D03*
D10*
X40923250Y17650000D03*
D12*
X32033250Y20190000D03*
X38383250Y22730000D03*
G04 #@! TD*
D10*
G04 #@! TO.C,MX58*
X290319500Y36700000D03*
D11*
X295399500Y36700000D03*
D10*
X300479500Y36700000D03*
D12*
X291589500Y39240000D03*
X297939500Y41780000D03*
G04 #@! TD*
D13*
G04 #@! TO.C,REF\u002A\u002A*
X200149500Y10665000D03*
D14*
X200149500Y25905000D03*
D13*
X85849500Y10665000D03*
D14*
X85849500Y25905000D03*
G04 #@! TD*
D10*
G04 #@! TO.C,MX20*
X90294500Y74800000D03*
D11*
X95374500Y74800000D03*
D10*
X100454500Y74800000D03*
D12*
X91564500Y77340000D03*
X97914500Y79880000D03*
G04 #@! TD*
D10*
G04 #@! TO.C,MX40*
X190307000Y55750000D03*
D11*
X195387000Y55750000D03*
D10*
X200467000Y55750000D03*
D12*
X191577000Y58290000D03*
X197927000Y60830000D03*
G04 #@! TD*
D10*
G04 #@! TO.C,MX28*
X242694500Y74800000D03*
D11*
X247774500Y74800000D03*
D10*
X252854500Y74800000D03*
D12*
X243964500Y77340000D03*
X250314500Y79880000D03*
G04 #@! TD*
D10*
G04 #@! TO.C,MX52*
X161732000Y36700000D03*
D11*
X166812000Y36700000D03*
D10*
X171892000Y36700000D03*
D12*
X163002000Y39240000D03*
X169352000Y41780000D03*
G04 #@! TD*
D10*
G04 #@! TO.C,MX8*
X148079500Y93850000D03*
D11*
X142999500Y93850000D03*
D10*
X137919500Y93850000D03*
D12*
X146809500Y91310000D03*
X140459500Y88770000D03*
G04 #@! TD*
D10*
G04 #@! TO.C,MX12*
X214119500Y93850000D03*
D11*
X219199500Y93850000D03*
D10*
X224279500Y93850000D03*
D12*
X215389500Y96390000D03*
X221739500Y98930000D03*
G04 #@! TD*
D13*
G04 #@! TO.C,REF\u002A\u002A*
X200149500Y10665000D03*
D14*
X200149500Y25905000D03*
D13*
X162049500Y10665000D03*
D14*
X162049500Y25905000D03*
G04 #@! TD*
D10*
G04 #@! TO.C,MX46*
X47432000Y36700000D03*
D11*
X52512000Y36700000D03*
D10*
X57592000Y36700000D03*
D12*
X48702000Y39240000D03*
X55052000Y41780000D03*
G04 #@! TD*
D10*
G04 #@! TO.C,MX38*
X152207000Y55750000D03*
D11*
X157287000Y55750000D03*
D10*
X162367000Y55750000D03*
D12*
X153477000Y58290000D03*
X159827000Y60830000D03*
G04 #@! TD*
D10*
G04 #@! TO.C,MX72*
X137919500Y17650000D03*
D11*
X142999500Y17650000D03*
D10*
X148079500Y17650000D03*
D12*
X139189500Y20190000D03*
X145539500Y22730000D03*
G04 #@! TD*
D10*
G04 #@! TO.C,MX29*
X266507000Y74800000D03*
D11*
X271587000Y74800000D03*
D10*
X276667000Y74800000D03*
D12*
X267777000Y77340000D03*
X274127000Y79880000D03*
G04 #@! TD*
D15*
G04 #@! TO.C,REF\u002A\u002A*
X5000000Y3850000D03*
G04 #@! TD*
D10*
G04 #@! TO.C,MX33*
X56957000Y55750000D03*
D11*
X62037000Y55750000D03*
D10*
X67117000Y55750000D03*
D12*
X58227000Y58290000D03*
X64577000Y60830000D03*
G04 #@! TD*
D10*
G04 #@! TO.C,MX43*
X259363250Y55750000D03*
D11*
X264443250Y55750000D03*
D10*
X269523250Y55750000D03*
D12*
X260633250Y58290000D03*
X266983250Y60830000D03*
G04 #@! TD*
D10*
G04 #@! TO.C,MX34*
X76007000Y55750000D03*
D11*
X81087000Y55750000D03*
D10*
X86167000Y55750000D03*
D12*
X77277000Y58290000D03*
X83627000Y60830000D03*
G04 #@! TD*
D10*
G04 #@! TO.C,MX9*
X167129500Y93850000D03*
D11*
X162049500Y93850000D03*
D10*
X156969500Y93850000D03*
D12*
X165859500Y91310000D03*
X159509500Y88770000D03*
G04 #@! TD*
D10*
G04 #@! TO.C,MX64*
X221263250Y17650000D03*
D11*
X226343250Y17650000D03*
D10*
X231423250Y17650000D03*
D12*
X222533250Y20190000D03*
X228883250Y22730000D03*
G04 #@! TD*
D10*
G04 #@! TO.C,MX62*
X126013250Y17650000D03*
D11*
X131093250Y17650000D03*
D10*
X136173250Y17650000D03*
D12*
X127283250Y20190000D03*
X133633250Y22730000D03*
G04 #@! TD*
D10*
G04 #@! TO.C,MX1*
X4569500Y93850000D03*
D11*
X9649500Y93850000D03*
D10*
X14729500Y93850000D03*
D12*
X5839500Y96390000D03*
X12189500Y98930000D03*
G04 #@! TD*
D10*
G04 #@! TO.C,MX79*
X176019500Y17650000D03*
D11*
X181099500Y17650000D03*
D10*
X186179500Y17650000D03*
D12*
X177289500Y20190000D03*
X183639500Y22730000D03*
G04 #@! TD*
D15*
G04 #@! TO.C,REF\u002A\u002A*
X2500000Y109000000D03*
G04 #@! TD*
D10*
G04 #@! TO.C,MX54*
X199832000Y36700000D03*
D11*
X204912000Y36700000D03*
D10*
X209992000Y36700000D03*
D12*
X201102000Y39240000D03*
X207452000Y41780000D03*
G04 #@! TD*
D10*
G04 #@! TO.C,MX70*
X33144500Y17650000D03*
D11*
X38224500Y17650000D03*
D10*
X43304500Y17650000D03*
D12*
X34414500Y20190000D03*
X40764500Y22730000D03*
G04 #@! TD*
D10*
G04 #@! TO.C,MX48*
X85532000Y36700000D03*
D11*
X90612000Y36700000D03*
D10*
X95692000Y36700000D03*
D12*
X86802000Y39240000D03*
X93152000Y41780000D03*
G04 #@! TD*
D10*
G04 #@! TO.C,MX35*
X95057000Y55750000D03*
D11*
X100137000Y55750000D03*
D10*
X105217000Y55750000D03*
D12*
X96327000Y58290000D03*
X102677000Y60830000D03*
G04 #@! TD*
D10*
G04 #@! TO.C,MX57*
X271269500Y36700000D03*
D11*
X276349500Y36700000D03*
D10*
X281429500Y36700000D03*
D12*
X272539500Y39240000D03*
X278889500Y41780000D03*
G04 #@! TD*
D10*
G04 #@! TO.C,MX39*
X171257000Y55750000D03*
D11*
X176337000Y55750000D03*
D10*
X181417000Y55750000D03*
D12*
X172527000Y58290000D03*
X178877000Y60830000D03*
G04 #@! TD*
D10*
G04 #@! TO.C,MX21*
X109344500Y74800000D03*
D11*
X114424500Y74800000D03*
D10*
X119504500Y74800000D03*
D12*
X110614500Y77340000D03*
X116964500Y79880000D03*
G04 #@! TD*
D10*
G04 #@! TO.C,MX23*
X147444500Y74800000D03*
D11*
X152524500Y74800000D03*
D10*
X157604500Y74800000D03*
D12*
X148714500Y77340000D03*
X155064500Y79880000D03*
G04 #@! TD*
D10*
G04 #@! TO.C,MX19*
X71244500Y74800000D03*
D11*
X76324500Y74800000D03*
D10*
X81404500Y74800000D03*
D12*
X72514500Y77340000D03*
X78864500Y79880000D03*
G04 #@! TD*
D13*
G04 #@! TO.C,REF\u002A\u002A*
X123949500Y10665000D03*
D14*
X123949500Y25905000D03*
D13*
X85849500Y10665000D03*
D14*
X85849500Y25905000D03*
G04 #@! TD*
D10*
G04 #@! TO.C,MX82*
X252219500Y93850000D03*
D11*
X257299500Y93850000D03*
D10*
X262379500Y93850000D03*
D12*
X253489500Y96390000D03*
X259839500Y98930000D03*
G04 #@! TD*
D10*
G04 #@! TO.C,MX56*
X245075750Y36700000D03*
D11*
X250155750Y36700000D03*
D10*
X255235750Y36700000D03*
D12*
X246345750Y39240000D03*
X252695750Y41780000D03*
G04 #@! TD*
D15*
G04 #@! TO.C,REF\u002A\u002A*
X2500000Y2500000D03*
G04 #@! TD*
D10*
G04 #@! TO.C,MX44*
X290319500Y55750000D03*
D11*
X295399500Y55750000D03*
D10*
X300479500Y55750000D03*
D12*
X291589500Y58290000D03*
X297939500Y60830000D03*
G04 #@! TD*
D10*
G04 #@! TO.C,MX74*
X218882000Y17650000D03*
D11*
X223962000Y17650000D03*
D10*
X229042000Y17650000D03*
D12*
X220152000Y20190000D03*
X226502000Y22730000D03*
G04 #@! TD*
D13*
G04 #@! TO.C,REF\u002A\u002A*
X254886500Y100835000D03*
D14*
X254886500Y85595000D03*
D13*
X278762500Y100835000D03*
D14*
X278762500Y85595000D03*
G04 #@! TD*
D10*
G04 #@! TO.C,MX7*
X118869500Y93850000D03*
D11*
X123949500Y93850000D03*
D10*
X129029500Y93850000D03*
D12*
X120139500Y96390000D03*
X126489500Y98930000D03*
G04 #@! TD*
D10*
G04 #@! TO.C,MX17*
X33144500Y74800000D03*
D11*
X38224500Y74800000D03*
D10*
X43304500Y74800000D03*
D12*
X34414500Y77340000D03*
X40764500Y79880000D03*
G04 #@! TD*
D10*
G04 #@! TO.C,MX63*
X197450750Y17650000D03*
D11*
X202530750Y17650000D03*
D10*
X207610750Y17650000D03*
D12*
X198720750Y20190000D03*
X205070750Y22730000D03*
G04 #@! TD*
D10*
G04 #@! TO.C,MX45*
X16475750Y36700000D03*
D11*
X21555750Y36700000D03*
D10*
X26635750Y36700000D03*
D12*
X17745750Y39240000D03*
X24095750Y41780000D03*
G04 #@! TD*
D10*
G04 #@! TO.C,MX16*
X9332000Y74800000D03*
D11*
X14412000Y74800000D03*
D10*
X19492000Y74800000D03*
D12*
X10602000Y77340000D03*
X16952000Y79880000D03*
G04 #@! TD*
D15*
G04 #@! TO.C,REF\u002A\u002A*
X302549000Y109000000D03*
G04 #@! TD*
D10*
G04 #@! TO.C,MX81*
X271269500Y93850000D03*
D11*
X276349500Y93850000D03*
D10*
X281429500Y93850000D03*
D12*
X272539500Y96390000D03*
X278889500Y98930000D03*
G04 #@! TD*
D10*
G04 #@! TO.C,MX55*
X218882000Y36700000D03*
D11*
X223962000Y36700000D03*
D10*
X229042000Y36700000D03*
D12*
X220152000Y39240000D03*
X226502000Y41780000D03*
G04 #@! TD*
D13*
G04 #@! TO.C,REF\u002A\u002A*
X181093250Y10665000D03*
D14*
X181093250Y25905000D03*
D13*
X81093250Y10665000D03*
D14*
X81093250Y25905000D03*
G04 #@! TD*
D13*
G04 #@! TO.C,REF\u002A\u002A*
X252505250Y62735000D03*
D14*
X252505250Y47495000D03*
D13*
X276381250Y62735000D03*
D14*
X276381250Y47495000D03*
G04 #@! TD*
D10*
G04 #@! TO.C,MX42*
X228407000Y55750000D03*
D11*
X233487000Y55750000D03*
D10*
X238567000Y55750000D03*
D12*
X229677000Y58290000D03*
X236027000Y60830000D03*
G04 #@! TD*
D10*
G04 #@! TO.C,MX26*
X204594500Y74800000D03*
D11*
X209674500Y74800000D03*
D10*
X214754500Y74800000D03*
D12*
X205864500Y77340000D03*
X212214500Y79880000D03*
G04 #@! TD*
D10*
G04 #@! TO.C,MX5*
X80769500Y93850000D03*
D11*
X85849500Y93850000D03*
D10*
X90929500Y93850000D03*
D12*
X82039500Y96390000D03*
X88389500Y98930000D03*
G04 #@! TD*
D10*
G04 #@! TO.C,MX49*
X104582000Y36700000D03*
D11*
X109662000Y36700000D03*
D10*
X114742000Y36700000D03*
D12*
X105852000Y39240000D03*
X112202000Y41780000D03*
G04 #@! TD*
D10*
G04 #@! TO.C,MX53*
X180782000Y36700000D03*
D11*
X185862000Y36700000D03*
D10*
X190942000Y36700000D03*
D12*
X182052000Y39240000D03*
X188402000Y41780000D03*
G04 #@! TD*
D10*
G04 #@! TO.C,MX50*
X123632000Y36700000D03*
D11*
X128712000Y36700000D03*
D10*
X133792000Y36700000D03*
D12*
X124902000Y39240000D03*
X131252000Y41780000D03*
G04 #@! TD*
D10*
G04 #@! TO.C,MX41*
X209357000Y55750000D03*
D11*
X214437000Y55750000D03*
D10*
X219517000Y55750000D03*
D12*
X210627000Y58290000D03*
X216977000Y60830000D03*
G04 #@! TD*
D10*
G04 #@! TO.C,MX11*
X195069500Y93850000D03*
D11*
X200149500Y93850000D03*
D10*
X205229500Y93850000D03*
D12*
X196339500Y96390000D03*
X202689500Y98930000D03*
G04 #@! TD*
D10*
G04 #@! TO.C,MX65*
X252219500Y17650000D03*
D11*
X257299500Y17650000D03*
D10*
X262379500Y17650000D03*
D12*
X253489500Y20190000D03*
X259839500Y22730000D03*
G04 #@! TD*
D10*
G04 #@! TO.C,MX24*
X166494500Y74800000D03*
D11*
X171574500Y74800000D03*
D10*
X176654500Y74800000D03*
D12*
X167764500Y77340000D03*
X174114500Y79880000D03*
G04 #@! TD*
D10*
G04 #@! TO.C,MX14*
X261744500Y93850000D03*
D11*
X266824500Y93850000D03*
D10*
X271904500Y93850000D03*
D12*
X263014500Y96390000D03*
X269364500Y98930000D03*
G04 #@! TD*
D10*
G04 #@! TO.C,MX4*
X61719500Y93850000D03*
D11*
X66799500Y93850000D03*
D10*
X71879500Y93850000D03*
D12*
X62989500Y96390000D03*
X69339500Y98930000D03*
G04 #@! TD*
D10*
G04 #@! TO.C,MX13*
X233169500Y93850000D03*
D11*
X238249500Y93850000D03*
D10*
X243329500Y93850000D03*
D12*
X234439500Y96390000D03*
X240789500Y98930000D03*
G04 #@! TD*
D10*
G04 #@! TO.C,MX3*
X42669500Y93850000D03*
D11*
X47749500Y93850000D03*
D10*
X52829500Y93850000D03*
D12*
X43939500Y96390000D03*
X50289500Y98930000D03*
G04 #@! TD*
D10*
G04 #@! TO.C,MX80*
X28382000Y36700000D03*
D11*
X33462000Y36700000D03*
D10*
X38542000Y36700000D03*
D12*
X29652000Y39240000D03*
X36002000Y41780000D03*
G04 #@! TD*
D10*
G04 #@! TO.C,MX66*
X271269500Y17650000D03*
D11*
X276349500Y17650000D03*
D10*
X281429500Y17650000D03*
D12*
X272539500Y20190000D03*
X278889500Y22730000D03*
G04 #@! TD*
D10*
G04 #@! TO.C,MX15*
X290319500Y93850000D03*
D11*
X295399500Y93850000D03*
D10*
X300479500Y93850000D03*
D12*
X291589500Y96390000D03*
X297939500Y98930000D03*
G04 #@! TD*
D10*
G04 #@! TO.C,MX31*
X11713250Y55750000D03*
D11*
X16793250Y55750000D03*
D10*
X21873250Y55750000D03*
D12*
X12983250Y58290000D03*
X19333250Y60830000D03*
G04 #@! TD*
D10*
G04 #@! TO.C,MX27*
X223644500Y74800000D03*
D11*
X228724500Y74800000D03*
D10*
X233804500Y74800000D03*
D12*
X224914500Y77340000D03*
X231264500Y79880000D03*
G04 #@! TD*
D10*
G04 #@! TO.C,MX61*
X54575750Y17650000D03*
D11*
X59655750Y17650000D03*
D10*
X64735750Y17650000D03*
D12*
X55845750Y20190000D03*
X62195750Y22730000D03*
G04 #@! TD*
D10*
G04 #@! TO.C,MX47*
X66482000Y36700000D03*
D11*
X71562000Y36700000D03*
D10*
X76642000Y36700000D03*
D12*
X67752000Y39240000D03*
X74102000Y41780000D03*
G04 #@! TD*
D10*
G04 #@! TO.C,MX32*
X37907000Y55750000D03*
D11*
X42987000Y55750000D03*
D10*
X48067000Y55750000D03*
D12*
X39177000Y58290000D03*
X45527000Y60830000D03*
G04 #@! TD*
D10*
G04 #@! TO.C,MX10*
X176019500Y93850000D03*
D11*
X181099500Y93850000D03*
D10*
X186179500Y93850000D03*
D12*
X177289500Y96390000D03*
X183639500Y98930000D03*
G04 #@! TD*
D13*
G04 #@! TO.C,REF\u002A\u002A*
X9617750Y43685000D03*
D14*
X9617750Y28445000D03*
D13*
X33493750Y43685000D03*
D14*
X33493750Y28445000D03*
G04 #@! TD*
D10*
G04 #@! TO.C,MX51*
X142682000Y36700000D03*
D11*
X147762000Y36700000D03*
D10*
X152842000Y36700000D03*
D12*
X143952000Y39240000D03*
X150302000Y41780000D03*
G04 #@! TD*
D10*
G04 #@! TO.C,MX30*
X290319500Y74800000D03*
D11*
X295399500Y74800000D03*
D10*
X300479500Y74800000D03*
D12*
X291589500Y77340000D03*
X297939500Y79880000D03*
G04 #@! TD*
D15*
G04 #@! TO.C,REF\u002A\u002A*
X300049000Y107650000D03*
G04 #@! TD*
D10*
G04 #@! TO.C,MX22*
X128394500Y74800000D03*
D11*
X133474500Y74800000D03*
D10*
X138554500Y74800000D03*
D12*
X129664500Y77340000D03*
X136014500Y79880000D03*
G04 #@! TD*
D15*
G04 #@! TO.C,REF\u002A\u002A*
X5000000Y107650000D03*
G04 #@! TD*
D10*
G04 #@! TO.C,MX37*
X133157000Y55750000D03*
D11*
X138237000Y55750000D03*
D10*
X143317000Y55750000D03*
D12*
X134427000Y58290000D03*
X140777000Y60830000D03*
G04 #@! TD*
D10*
G04 #@! TO.C,MX25*
X185544500Y74800000D03*
D11*
X190624500Y74800000D03*
D10*
X195704500Y74800000D03*
D12*
X186814500Y77340000D03*
X193164500Y79880000D03*
G04 #@! TD*
D16*
G04 #@! TO.C,J1*
X172207000Y83970000D03*
X167127000Y82954000D03*
X167127000Y84986000D03*
G04 #@! TD*
D17*
G04 #@! TO.C,J2*
X149647000Y97420000D03*
X155427000Y97420000D03*
D18*
X148216999Y101099999D03*
X156856999Y101099999D03*
D19*
X148216999Y96919999D03*
X156856999Y96919999D03*
G04 #@! TD*
M02*
