G04 #@! TF.GenerationSoftware,KiCad,Pcbnew,7.0.0-da2b9df05c~165~ubuntu22.04.1*
G04 #@! TF.CreationDate,2023-04-25T17:32:56+00:00*
G04 #@! TF.ProjectId,pcb-rails,7063622d-7261-4696-9c73-2e6b69636164,1.0*
G04 #@! TF.SameCoordinates,Original*
G04 #@! TF.FileFunction,Paste,Bot*
G04 #@! TF.FilePolarity,Positive*
%FSLAX46Y46*%
G04 Gerber Fmt 4.6, Leading zero omitted, Abs format (unit mm)*
G04 Created by KiCad (PCBNEW 7.0.0-da2b9df05c~165~ubuntu22.04.1) date 2023-04-25 17:32:56*
%MOMM*%
%LPD*%
G01*
G04 APERTURE LIST*
G04 Aperture macros list*
%AMRoundRect*
0 Rectangle with rounded corners*
0 $1 Rounding radius*
0 $2 $3 $4 $5 $6 $7 $8 $9 X,Y pos of 4 corners*
0 Add a 4 corners polygon primitive as box body*
4,1,4,$2,$3,$4,$5,$6,$7,$8,$9,$2,$3,0*
0 Add four circle primitives for the rounded corners*
1,1,$1+$1,$2,$3*
1,1,$1+$1,$4,$5*
1,1,$1+$1,$6,$7*
1,1,$1+$1,$8,$9*
0 Add four rect primitives between the rounded corners*
20,1,$1+$1,$2,$3,$4,$5,0*
20,1,$1+$1,$4,$5,$6,$7,0*
20,1,$1+$1,$6,$7,$8,$9,0*
20,1,$1+$1,$8,$9,$2,$3,0*%
%AMRotRect*
0 Rectangle, with rotation*
0 The origin of the aperture is its center*
0 $1 length*
0 $2 width*
0 $3 Rotation angle, in degrees counterclockwise*
0 Add horizontal line*
21,1,$1,$2,0,0,$3*%
G04 Aperture macros list end*
%ADD10C,0.010000*%
%ADD11RoundRect,0.082000X-0.718000X0.328000X-0.718000X-0.328000X0.718000X-0.328000X0.718000X0.328000X0*%
%ADD12R,2.550000X2.500000*%
%ADD13C,2.000000*%
%ADD14RoundRect,0.082000X0.718000X-0.328000X0.718000X0.328000X-0.718000X0.328000X-0.718000X-0.328000X0*%
%ADD15RoundRect,0.079500X0.079500X0.100500X-0.079500X0.100500X-0.079500X-0.100500X0.079500X-0.100500X0*%
%ADD16RoundRect,0.150000X0.150000X-0.587500X0.150000X0.587500X-0.150000X0.587500X-0.150000X-0.587500X0*%
%ADD17RoundRect,0.090000X0.560000X-0.360000X0.560000X0.360000X-0.560000X0.360000X-0.560000X-0.360000X0*%
%ADD18RotRect,1.150000X1.000000X45.000000*%
%ADD19RoundRect,0.079500X0.014849X-0.127279X0.127279X-0.014849X-0.014849X0.127279X-0.127279X0.014849X0*%
%ADD20RoundRect,0.079500X-0.100500X0.079500X-0.100500X-0.079500X0.100500X-0.079500X0.100500X0.079500X0*%
%ADD21R,0.375000X0.500000*%
%ADD22R,0.300000X0.650000*%
%ADD23RoundRect,0.079500X-0.127279X-0.014849X-0.014849X-0.127279X0.127279X0.014849X0.014849X0.127279X0*%
%ADD24RoundRect,0.079500X0.100500X-0.079500X0.100500X0.079500X-0.100500X0.079500X-0.100500X-0.079500X0*%
%ADD25R,0.400000X0.800000*%
%ADD26R,0.800000X0.350000*%
%ADD27R,0.600000X1.150000*%
%ADD28R,0.300000X1.150000*%
%ADD29RoundRect,0.079500X0.127279X0.014849X0.014849X0.127279X-0.127279X-0.014849X-0.014849X-0.127279X0*%
%ADD30RoundRect,0.249999X0.000000X0.558616X-0.558616X0.000000X0.000000X-0.558616X0.558616X0.000000X0*%
%ADD31RoundRect,0.050000X0.238649X0.309359X-0.309359X-0.238649X-0.238649X-0.309359X0.309359X0.238649X0*%
%ADD32RoundRect,0.050000X-0.238649X0.309359X-0.309359X0.238649X0.238649X-0.309359X0.309359X-0.238649X0*%
%ADD33RoundRect,0.079500X-0.079500X-0.100500X0.079500X-0.100500X0.079500X0.100500X-0.079500X0.100500X0*%
%ADD34RoundRect,0.090000X0.360000X0.560000X-0.360000X0.560000X-0.360000X-0.560000X0.360000X-0.560000X0*%
%ADD35RoundRect,0.140000X-0.170000X0.140000X-0.170000X-0.140000X0.170000X-0.140000X0.170000X0.140000X0*%
%ADD36RoundRect,0.079500X-0.014849X0.127279X-0.127279X0.014849X0.014849X-0.127279X0.127279X-0.014849X0*%
%ADD37R,0.700000X0.340000*%
%ADD38RoundRect,0.090000X-0.360000X-0.560000X0.360000X-0.560000X0.360000X0.560000X-0.360000X0.560000X0*%
%ADD39RoundRect,0.250000X0.300000X-0.300000X0.300000X0.300000X-0.300000X0.300000X-0.300000X-0.300000X0*%
%ADD40RoundRect,0.243750X-0.243750X-0.456250X0.243750X-0.456250X0.243750X0.456250X-0.243750X0.456250X0*%
G04 APERTURE END LIST*
G04 #@! TO.C,U8*
G36*
X164108663Y85461663D02*
G01*
X163767000Y85120001D01*
X163425337Y85461663D01*
X163767000Y85803326D01*
X164108663Y85461663D01*
G37*
D10*
X164108663Y85461663D02*
X163767000Y85120001D01*
X163425337Y85461663D01*
X163767000Y85803326D01*
X164108663Y85461663D01*
G36*
X164377000Y85030000D02*
G01*
X163952000Y85030000D01*
X163952000Y85060000D01*
X164197000Y85310000D01*
X164377000Y85310000D01*
X164377000Y85030000D01*
G37*
G36*
X164377000Y85610000D02*
G01*
X164197000Y85610000D01*
X163952000Y85860000D01*
X163952000Y85890000D01*
X164377000Y85890000D01*
X164377000Y85610000D01*
G37*
G36*
X163582000Y85060000D02*
G01*
X163582000Y85030000D01*
X163157000Y85030000D01*
X163157000Y85310000D01*
X163337000Y85310000D01*
X163582000Y85060000D01*
G37*
G36*
X163582000Y85860000D02*
G01*
X163337000Y85610000D01*
X163157000Y85610000D01*
X163157000Y85890000D01*
X163582000Y85890000D01*
X163582000Y85860000D01*
G37*
G04 #@! TD*
D11*
G04 #@! TO.C,D16*
X26099500Y89520001D03*
X26099500Y88020001D03*
X31299500Y88020001D03*
X31299500Y89520001D03*
G04 #@! TD*
D12*
G04 #@! TO.C,MX18*
X50189499Y77339999D03*
X63116499Y79879999D03*
G04 #@! TD*
G04 #@! TO.C,MX6*
X97814499Y96389999D03*
X110741499Y98929999D03*
G04 #@! TD*
G04 #@! TO.C,MX67*
X288314499Y20189999D03*
X301241499Y22729999D03*
G04 #@! TD*
D11*
G04 #@! TO.C,D65*
X145162000Y32370001D03*
X145162000Y30870001D03*
X150362000Y30870001D03*
X150362000Y32370001D03*
G04 #@! TD*
G04 #@! TO.C,D81*
X254699500Y13320001D03*
X254699500Y11820001D03*
X259899500Y11820001D03*
X259899500Y13320001D03*
G04 #@! TD*
G04 #@! TO.C,D72*
X292799500Y32370001D03*
X292799500Y30870001D03*
X297999500Y30870001D03*
X297999500Y32370001D03*
G04 #@! TD*
D12*
G04 #@! TO.C,MX59*
X4945749Y20189999D03*
X17872749Y22729999D03*
G04 #@! TD*
G04 #@! TO.C,MX36*
X112101999Y58289999D03*
X125028999Y60829999D03*
G04 #@! TD*
G04 #@! TO.C,MX2*
X21614499Y96389999D03*
X34541499Y98929999D03*
G04 #@! TD*
D11*
G04 #@! TO.C,D25*
X197549500Y89520001D03*
X197549500Y88020001D03*
X202749500Y88020001D03*
X202749500Y89520001D03*
G04 #@! TD*
G04 #@! TO.C,D17*
X45149500Y89520001D03*
X45149500Y88020001D03*
X50349500Y88020001D03*
X50349500Y89520001D03*
G04 #@! TD*
G04 #@! TO.C,D78*
X164212000Y13320001D03*
X164212000Y11820001D03*
X169412000Y11820001D03*
X169412000Y13320001D03*
G04 #@! TD*
D13*
G04 #@! TO.C,REF\u002A\u002A*
X2500000Y2500000D03*
G04 #@! TD*
D11*
G04 #@! TO.C,D71*
X273749500Y32370001D03*
X273749500Y30870001D03*
X278949500Y30870001D03*
X278949500Y32370001D03*
G04 #@! TD*
D12*
G04 #@! TO.C,MX60*
X28758249Y20189999D03*
X41685249Y22729999D03*
G04 #@! TD*
G04 #@! TO.C,MX58*
X288314499Y39239999D03*
X301241499Y41779999D03*
G04 #@! TD*
D11*
G04 #@! TO.C,D29*
X292799500Y89520001D03*
X292799500Y88020001D03*
X297999500Y88020001D03*
X297999500Y89520001D03*
G04 #@! TD*
G04 #@! TO.C,D48*
X78487000Y51420001D03*
X78487000Y49920001D03*
X83687000Y49920001D03*
X83687000Y51420001D03*
G04 #@! TD*
D12*
G04 #@! TO.C,MX20*
X88289499Y77339999D03*
X101216499Y79879999D03*
G04 #@! TD*
G04 #@! TO.C,MX40*
X188301999Y58289999D03*
X201228999Y60829999D03*
G04 #@! TD*
D11*
G04 #@! TO.C,D73*
X9430750Y13320001D03*
X9430750Y11820001D03*
X14630750Y11820001D03*
X14630750Y13320001D03*
G04 #@! TD*
G04 #@! TO.C,D67*
X183262000Y32370001D03*
X183262000Y30870001D03*
X188462000Y30870001D03*
X188462000Y32370001D03*
G04 #@! TD*
D12*
G04 #@! TO.C,MX28*
X240689499Y77339999D03*
X253616499Y79879999D03*
G04 #@! TD*
D11*
G04 #@! TO.C,D37*
X149924500Y70470001D03*
X149924500Y68970001D03*
X155124500Y68970001D03*
X155124500Y70470001D03*
G04 #@! TD*
D12*
G04 #@! TO.C,MX52*
X159726999Y39239999D03*
X172653999Y41779999D03*
G04 #@! TD*
D11*
G04 #@! TO.C,D28*
X264224500Y89520001D03*
X264224500Y88020001D03*
X269424500Y88020001D03*
X269424500Y89520001D03*
G04 #@! TD*
D12*
G04 #@! TO.C,MX8*
X150084499Y91309999D03*
X137157499Y88769999D03*
G04 #@! TD*
G04 #@! TO.C,MX12*
X212114499Y96389999D03*
X225041499Y98929999D03*
G04 #@! TD*
G04 #@! TO.C,MX46*
X45426999Y39239999D03*
X58353999Y41779999D03*
G04 #@! TD*
G04 #@! TO.C,MX38*
X150201999Y58289999D03*
X163128999Y60829999D03*
G04 #@! TD*
D11*
G04 #@! TO.C,D51*
X135637000Y51420001D03*
X135637000Y49920001D03*
X140837000Y49920001D03*
X140837000Y51420001D03*
G04 #@! TD*
G04 #@! TO.C,D38*
X168974500Y70470001D03*
X168974500Y68970001D03*
X174174500Y68970001D03*
X174174500Y70470001D03*
G04 #@! TD*
D12*
G04 #@! TO.C,MX29*
X264501999Y77339999D03*
X277428999Y79879999D03*
G04 #@! TD*
D11*
G04 #@! TO.C,D55*
X211837000Y51420001D03*
X211837000Y49920001D03*
X217037000Y49920001D03*
X217037000Y51420001D03*
G04 #@! TD*
G04 #@! TO.C,D76*
X92774500Y13320001D03*
X92774500Y11820001D03*
X97974500Y11820001D03*
X97974500Y13320001D03*
G04 #@! TD*
D12*
G04 #@! TO.C,MX33*
X54951999Y58289999D03*
X67878999Y60829999D03*
G04 #@! TD*
D11*
G04 #@! TO.C,D15*
X7049500Y89520001D03*
X7049500Y88020001D03*
X12249500Y88020001D03*
X12249500Y89520001D03*
G04 #@! TD*
D12*
G04 #@! TO.C,MX43*
X257358249Y58289999D03*
X270285249Y60829999D03*
G04 #@! TD*
D11*
G04 #@! TO.C,D74*
X33243250Y13320001D03*
X33243250Y11820001D03*
X38443250Y11820001D03*
X38443250Y13320001D03*
G04 #@! TD*
G04 #@! TO.C,D27*
X235649500Y89520001D03*
X235649500Y88020001D03*
X240849500Y88020001D03*
X240849500Y89520001D03*
G04 #@! TD*
D12*
G04 #@! TO.C,MX34*
X74001999Y58289999D03*
X86928999Y60829999D03*
G04 #@! TD*
G04 #@! TO.C,MX9*
X169134499Y91309999D03*
X156207499Y88769999D03*
G04 #@! TD*
D11*
G04 #@! TO.C,D58*
X292799500Y51420001D03*
X292799500Y49920001D03*
X297999500Y49920001D03*
X297999500Y51420001D03*
G04 #@! TD*
D12*
G04 #@! TO.C,MX64*
X219258249Y20189999D03*
X232185249Y22729999D03*
G04 #@! TD*
G04 #@! TO.C,MX62*
X124008249Y20189999D03*
X136935249Y22729999D03*
G04 #@! TD*
G04 #@! TO.C,MX1*
X2564499Y96389999D03*
X15491499Y98929999D03*
G04 #@! TD*
D11*
G04 #@! TO.C,D54*
X192787000Y51420001D03*
X192787000Y49920001D03*
X197987000Y49920001D03*
X197987000Y51420001D03*
G04 #@! TD*
D14*
G04 #@! TO.C,D22*
X145599500Y98179999D03*
X145599500Y99679999D03*
X140399500Y99679999D03*
X140399500Y98179999D03*
G04 #@! TD*
D12*
G04 #@! TO.C,MX54*
X197826999Y39239999D03*
X210753999Y41779999D03*
G04 #@! TD*
G04 #@! TO.C,MX48*
X83526999Y39239999D03*
X96453999Y41779999D03*
G04 #@! TD*
D11*
G04 #@! TO.C,D52*
X154687000Y51420001D03*
X154687000Y49920001D03*
X159887000Y49920001D03*
X159887000Y51420001D03*
G04 #@! TD*
D12*
G04 #@! TO.C,MX35*
X93051999Y58289999D03*
X105978999Y60829999D03*
G04 #@! TD*
D11*
G04 #@! TO.C,D40*
X207074500Y70470001D03*
X207074500Y68970001D03*
X212274500Y68970001D03*
X212274500Y70470001D03*
G04 #@! TD*
G04 #@! TO.C,D49*
X97537000Y51420001D03*
X97537000Y49920001D03*
X102737000Y49920001D03*
X102737000Y51420001D03*
G04 #@! TD*
D12*
G04 #@! TO.C,MX57*
X269264499Y39239999D03*
X282191499Y41779999D03*
G04 #@! TD*
D11*
G04 #@! TO.C,D33*
X73724500Y70470001D03*
X73724500Y68970001D03*
X78924500Y68970001D03*
X78924500Y70470001D03*
G04 #@! TD*
G04 #@! TO.C,D66*
X164212000Y32370001D03*
X164212000Y30870001D03*
X169412000Y30870001D03*
X169412000Y32370001D03*
G04 #@! TD*
G04 #@! TO.C,D64*
X126112000Y32370001D03*
X126112000Y30870001D03*
X131312000Y30870001D03*
X131312000Y32370001D03*
G04 #@! TD*
D12*
G04 #@! TO.C,MX39*
X169251999Y58289999D03*
X182178999Y60829999D03*
G04 #@! TD*
G04 #@! TO.C,MX21*
X107339499Y77339999D03*
X120266499Y79879999D03*
G04 #@! TD*
G04 #@! TO.C,MX23*
X145439499Y77339999D03*
X158366499Y79879999D03*
G04 #@! TD*
D11*
G04 #@! TO.C,D69*
X221362000Y32370001D03*
X221362000Y30870001D03*
X226562000Y30870001D03*
X226562000Y32370001D03*
G04 #@! TD*
D12*
G04 #@! TO.C,MX19*
X69239499Y77339999D03*
X82166499Y79879999D03*
G04 #@! TD*
D11*
G04 #@! TO.C,D19*
X83249500Y89520001D03*
X83249500Y88020001D03*
X88449500Y88020001D03*
X88449500Y89520001D03*
G04 #@! TD*
G04 #@! TO.C,D39*
X188024500Y70470001D03*
X188024500Y68970001D03*
X193224500Y68970001D03*
X193224500Y70470001D03*
G04 #@! TD*
G04 #@! TO.C,D77*
X128493250Y13320001D03*
X128493250Y11820001D03*
X133693250Y11820001D03*
X133693250Y13320001D03*
G04 #@! TD*
D14*
G04 #@! TO.C,D23*
X164649500Y98179999D03*
X164649500Y99679999D03*
X159449500Y99679999D03*
X159449500Y98179999D03*
G04 #@! TD*
D12*
G04 #@! TO.C,MX56*
X243070749Y39239999D03*
X255997749Y41779999D03*
G04 #@! TD*
D11*
G04 #@! TO.C,D53*
X173737000Y51420001D03*
X173737000Y49920001D03*
X178937000Y49920001D03*
X178937000Y51420001D03*
G04 #@! TD*
D12*
G04 #@! TO.C,MX44*
X288314499Y58289999D03*
X301241499Y60829999D03*
G04 #@! TD*
D11*
G04 #@! TO.C,D75*
X57055750Y13320001D03*
X57055750Y11820001D03*
X62255750Y11820001D03*
X62255750Y13320001D03*
G04 #@! TD*
G04 #@! TO.C,D60*
X49912000Y32370001D03*
X49912000Y30870001D03*
X55112000Y30870001D03*
X55112000Y32370001D03*
G04 #@! TD*
D12*
G04 #@! TO.C,MX7*
X116864499Y96389999D03*
X129791499Y98929999D03*
G04 #@! TD*
G04 #@! TO.C,MX17*
X31139499Y77339999D03*
X44066499Y79879999D03*
G04 #@! TD*
D11*
G04 #@! TO.C,D18*
X64199500Y89520001D03*
X64199500Y88020001D03*
X69399500Y88020001D03*
X69399500Y89520001D03*
G04 #@! TD*
D12*
G04 #@! TO.C,MX63*
X195445749Y20189999D03*
X208372749Y22729999D03*
G04 #@! TD*
G04 #@! TO.C,MX45*
X14470749Y39239999D03*
X27397749Y41779999D03*
G04 #@! TD*
G04 #@! TO.C,MX16*
X7326999Y77339999D03*
X20253999Y79879999D03*
G04 #@! TD*
D11*
G04 #@! TO.C,D24*
X178499500Y89520001D03*
X178499500Y88020001D03*
X183699500Y88020001D03*
X183699500Y89520001D03*
G04 #@! TD*
G04 #@! TO.C,D50*
X116587000Y51420001D03*
X116587000Y49920001D03*
X121787000Y49920001D03*
X121787000Y51420001D03*
G04 #@! TD*
G04 #@! TO.C,D47*
X59437000Y51420001D03*
X59437000Y49920001D03*
X64637000Y49920001D03*
X64637000Y51420001D03*
G04 #@! TD*
D12*
G04 #@! TO.C,MX55*
X216876999Y39239999D03*
X229803999Y41779999D03*
G04 #@! TD*
D11*
G04 #@! TO.C,D42*
X245174500Y70470001D03*
X245174500Y68970001D03*
X250374500Y68970001D03*
X250374500Y70470001D03*
G04 #@! TD*
G04 #@! TO.C,D44*
X292799500Y70470001D03*
X292799500Y68970001D03*
X297999500Y68970001D03*
X297999500Y70470001D03*
G04 #@! TD*
G04 #@! TO.C,D32*
X54674500Y70470001D03*
X54674500Y68970001D03*
X59874500Y68970001D03*
X59874500Y70470001D03*
G04 #@! TD*
G04 #@! TO.C,D36*
X130874500Y70470001D03*
X130874500Y68970001D03*
X136074500Y68970001D03*
X136074500Y70470001D03*
G04 #@! TD*
D12*
G04 #@! TO.C,MX42*
X226401999Y58289999D03*
X239328999Y60829999D03*
G04 #@! TD*
G04 #@! TO.C,MX26*
X202589499Y77339999D03*
X215516499Y79879999D03*
G04 #@! TD*
G04 #@! TO.C,MX5*
X78764499Y96389999D03*
X91691499Y98929999D03*
G04 #@! TD*
D11*
G04 #@! TO.C,D34*
X92774500Y70470001D03*
X92774500Y68970001D03*
X97974500Y68970001D03*
X97974500Y70470001D03*
G04 #@! TD*
G04 #@! TO.C,D56*
X230887000Y51420001D03*
X230887000Y49920001D03*
X236087000Y49920001D03*
X236087000Y51420001D03*
G04 #@! TD*
D12*
G04 #@! TO.C,MX49*
X102576999Y39239999D03*
X115503999Y41779999D03*
G04 #@! TD*
D13*
G04 #@! TO.C,REF\u002A\u002A*
X302549000Y109000000D03*
G04 #@! TD*
D12*
G04 #@! TO.C,MX53*
X178776999Y39239999D03*
X191703999Y41779999D03*
G04 #@! TD*
D11*
G04 #@! TO.C,D68*
X202312000Y32370001D03*
X202312000Y30870001D03*
X207512000Y30870001D03*
X207512000Y32370001D03*
G04 #@! TD*
D12*
G04 #@! TO.C,MX50*
X121626999Y39239999D03*
X134553999Y41779999D03*
G04 #@! TD*
D13*
G04 #@! TO.C,REF\u002A\u002A*
X2500000Y109000000D03*
G04 #@! TD*
D11*
G04 #@! TO.C,D61*
X68962000Y32370001D03*
X68962000Y30870001D03*
X74162000Y30870001D03*
X74162000Y32370001D03*
G04 #@! TD*
G04 #@! TO.C,D43*
X268987000Y70470001D03*
X268987000Y68970001D03*
X274187000Y68970001D03*
X274187000Y70470001D03*
G04 #@! TD*
G04 #@! TO.C,D57*
X261843250Y51420001D03*
X261843250Y49920001D03*
X267043250Y49920001D03*
X267043250Y51420001D03*
G04 #@! TD*
G04 #@! TO.C,D80*
X223743250Y13320001D03*
X223743250Y11820001D03*
X228943250Y11820001D03*
X228943250Y13320001D03*
G04 #@! TD*
D12*
G04 #@! TO.C,MX41*
X207351999Y58289999D03*
X220278999Y60829999D03*
G04 #@! TD*
D11*
G04 #@! TO.C,D26*
X216599500Y89520001D03*
X216599500Y88020001D03*
X221799500Y88020001D03*
X221799500Y89520001D03*
G04 #@! TD*
D12*
G04 #@! TO.C,MX11*
X193064499Y96389999D03*
X205991499Y98929999D03*
G04 #@! TD*
D11*
G04 #@! TO.C,D41*
X226124500Y70470001D03*
X226124500Y68970001D03*
X231324500Y68970001D03*
X231324500Y70470001D03*
G04 #@! TD*
D12*
G04 #@! TO.C,MX65*
X250214499Y20189999D03*
X263141499Y22729999D03*
G04 #@! TD*
D11*
G04 #@! TO.C,D31*
X35624500Y70470001D03*
X35624500Y68970001D03*
X40824500Y68970001D03*
X40824500Y70470001D03*
G04 #@! TD*
D12*
G04 #@! TO.C,MX24*
X164489499Y77339999D03*
X177416499Y79879999D03*
G04 #@! TD*
G04 #@! TO.C,MX14*
X259739499Y96389999D03*
X272666499Y98929999D03*
G04 #@! TD*
G04 #@! TO.C,MX4*
X59714499Y96389999D03*
X72641499Y98929999D03*
G04 #@! TD*
G04 #@! TO.C,MX13*
X231164499Y96389999D03*
X244091499Y98929999D03*
G04 #@! TD*
G04 #@! TO.C,MX3*
X40664499Y96389999D03*
X53591499Y98929999D03*
G04 #@! TD*
G04 #@! TO.C,MX66*
X269264499Y20189999D03*
X282191499Y22729999D03*
G04 #@! TD*
D11*
G04 #@! TO.C,D79*
X199930750Y13320001D03*
X199930750Y11820001D03*
X205130750Y11820001D03*
X205130750Y13320001D03*
G04 #@! TD*
D12*
G04 #@! TO.C,MX15*
X288314499Y96389999D03*
X301241499Y98929999D03*
G04 #@! TD*
D11*
G04 #@! TO.C,D63*
X107062000Y32370001D03*
X107062000Y30870001D03*
X112262000Y30870001D03*
X112262000Y32370001D03*
G04 #@! TD*
G04 #@! TO.C,D35*
X111824500Y70470001D03*
X111824500Y68970001D03*
X117024500Y68970001D03*
X117024500Y70470001D03*
G04 #@! TD*
D12*
G04 #@! TO.C,MX31*
X9708249Y58289999D03*
X22635249Y60829999D03*
G04 #@! TD*
D11*
G04 #@! TO.C,D62*
X88012000Y32370001D03*
X88012000Y30870001D03*
X93212000Y30870001D03*
X93212000Y32370001D03*
G04 #@! TD*
D12*
G04 #@! TO.C,MX27*
X221639499Y77339999D03*
X234566499Y79879999D03*
G04 #@! TD*
D11*
G04 #@! TO.C,D59*
X18955750Y32370001D03*
X18955750Y30870001D03*
X24155750Y30870001D03*
X24155750Y32370001D03*
G04 #@! TD*
D12*
G04 #@! TO.C,MX61*
X52570749Y20189999D03*
X65497749Y22729999D03*
G04 #@! TD*
G04 #@! TO.C,MX47*
X64476999Y39239999D03*
X77403999Y41779999D03*
G04 #@! TD*
G04 #@! TO.C,MX32*
X35901999Y58289999D03*
X48828999Y60829999D03*
G04 #@! TD*
G04 #@! TO.C,MX10*
X174014499Y96389999D03*
X186941499Y98929999D03*
G04 #@! TD*
D11*
G04 #@! TO.C,D20*
X102299500Y89520001D03*
X102299500Y88020001D03*
X107499500Y88020001D03*
X107499500Y89520001D03*
G04 #@! TD*
D12*
G04 #@! TO.C,MX51*
X140676999Y39239999D03*
X153603999Y41779999D03*
G04 #@! TD*
D11*
G04 #@! TO.C,D83*
X292799500Y13320001D03*
X292799500Y11820001D03*
X297999500Y11820001D03*
X297999500Y13320001D03*
G04 #@! TD*
D12*
G04 #@! TO.C,MX30*
X288314499Y77339999D03*
X301241499Y79879999D03*
G04 #@! TD*
D11*
G04 #@! TO.C,D82*
X273749500Y13320001D03*
X273749500Y11820001D03*
X278949500Y11820001D03*
X278949500Y13320001D03*
G04 #@! TD*
G04 #@! TO.C,D70*
X247555750Y32370001D03*
X247555750Y30870001D03*
X252755750Y30870001D03*
X252755750Y32370001D03*
G04 #@! TD*
D12*
G04 #@! TO.C,MX22*
X126389499Y77339999D03*
X139316499Y79879999D03*
G04 #@! TD*
D11*
G04 #@! TO.C,D45*
X14193250Y51420001D03*
X14193250Y49920001D03*
X19393250Y49920001D03*
X19393250Y51420001D03*
G04 #@! TD*
D12*
G04 #@! TO.C,MX37*
X131151999Y58289999D03*
X144078999Y60829999D03*
G04 #@! TD*
D11*
G04 #@! TO.C,D21*
X121349500Y89520001D03*
X121349500Y88020001D03*
X126549500Y88020001D03*
X126549500Y89520001D03*
G04 #@! TD*
G04 #@! TO.C,D46*
X40387000Y51420001D03*
X40387000Y49920001D03*
X45587000Y49920001D03*
X45587000Y51420001D03*
G04 #@! TD*
D12*
G04 #@! TO.C,MX25*
X183539499Y77339999D03*
X196466499Y79879999D03*
G04 #@! TD*
D11*
G04 #@! TO.C,D30*
X11812000Y70470001D03*
X11812000Y68970001D03*
X17012000Y68970001D03*
X17012000Y70470001D03*
G04 #@! TD*
D15*
G04 #@! TO.C,FB2*
X147212000Y101100000D03*
X146522000Y101100000D03*
G04 #@! TD*
D16*
G04 #@! TO.C,D108*
X62987000Y41782500D03*
X61087000Y41782500D03*
X62037000Y43657500D03*
G04 #@! TD*
D17*
G04 #@! TO.C,D6*
X112667000Y89650000D03*
X112667000Y91750000D03*
X116117000Y91750000D03*
X116117000Y89650000D03*
G04 #@! TD*
D16*
G04 #@! TO.C,D90*
X248727000Y98932500D03*
X246827000Y98932500D03*
X247777000Y100807500D03*
G04 #@! TD*
G04 #@! TO.C,D109*
X101087000Y41782500D03*
X99187000Y41782500D03*
X100137000Y43657500D03*
G04 #@! TD*
G04 #@! TO.C,D91*
X283687000Y98902500D03*
X281787000Y98902500D03*
X282737000Y100777500D03*
G04 #@! TD*
D18*
G04 #@! TO.C,Y2*
X165633306Y60666255D03*
X166870743Y61903692D03*
X167860692Y60913743D03*
X166623255Y59676306D03*
G04 #@! TD*
D17*
G04 #@! TO.C,D4*
X74577000Y89650000D03*
X74577000Y91750000D03*
X78027000Y91750000D03*
X78027000Y89650000D03*
G04 #@! TD*
D19*
G04 #@! TO.C,C32*
X163393048Y73326048D03*
X163880952Y73813952D03*
G04 #@! TD*
D20*
G04 #@! TO.C,C12*
X15017000Y32385000D03*
X15017000Y31695000D03*
G04 #@! TD*
D16*
G04 #@! TO.C,D92*
X24877000Y83382500D03*
X22977000Y83382500D03*
X23927000Y85257500D03*
G04 #@! TD*
D21*
G04 #@! TO.C,U2*
X153674499Y86029999D03*
D22*
X153136999Y85954999D03*
D21*
X152599499Y86029999D03*
X152599499Y87729999D03*
D22*
X153136999Y87804999D03*
D21*
X153674499Y87729999D03*
G04 #@! TD*
D15*
G04 #@! TO.C,C31*
X156622000Y66960000D03*
X155932000Y66960000D03*
G04 #@! TD*
D16*
G04 #@! TO.C,D84*
X19687000Y95832500D03*
X17787000Y95832500D03*
X18737000Y97707500D03*
G04 #@! TD*
G04 #@! TO.C,D104*
X186817000Y60832500D03*
X184917000Y60832500D03*
X185867000Y62707500D03*
G04 #@! TD*
D23*
G04 #@! TO.C,R2*
X157023048Y72083952D03*
X157510952Y71596048D03*
G04 #@! TD*
D24*
G04 #@! TO.C,FB1*
X160457000Y85755000D03*
X160457000Y86445000D03*
G04 #@! TD*
D15*
G04 #@! TO.C,C30*
X157402000Y63400000D03*
X156712000Y63400000D03*
G04 #@! TD*
D16*
G04 #@! TO.C,D110*
X139187000Y41782500D03*
X137287000Y41782500D03*
X138237000Y43657500D03*
G04 #@! TD*
G04 #@! TO.C,D88*
X172527000Y98922500D03*
X170627000Y98922500D03*
X171577000Y100797500D03*
G04 #@! TD*
G04 #@! TO.C,D116*
X70127000Y22732500D03*
X68227000Y22732500D03*
X69177000Y24607500D03*
G04 #@! TD*
G04 #@! TO.C,D107*
X27267000Y45292500D03*
X25367000Y45292500D03*
X26317000Y47167500D03*
G04 #@! TD*
D25*
G04 #@! TO.C,U1*
X162624999Y74929999D03*
X161824999Y74929999D03*
X161024999Y74929999D03*
X160224999Y74929999D03*
X160224999Y77529999D03*
X161024999Y77529999D03*
X161824999Y77529999D03*
X162624999Y77529999D03*
D26*
X162226999Y76229999D03*
X160626999Y76229999D03*
G04 #@! TD*
D17*
G04 #@! TO.C,D5*
X93627000Y89650000D03*
X93627000Y91750000D03*
X97077000Y91750000D03*
X97077000Y89650000D03*
G04 #@! TD*
G04 #@! TO.C,D2*
X36477000Y89650000D03*
X36477000Y91750000D03*
X39927000Y91750000D03*
X39927000Y89650000D03*
G04 #@! TD*
D16*
G04 #@! TO.C,D96*
X182047000Y79882500D03*
X180147000Y79882500D03*
X181097000Y81757500D03*
G04 #@! TD*
G04 #@! TO.C,D95*
X143947000Y79882500D03*
X142047000Y79882500D03*
X142997000Y81757500D03*
G04 #@! TD*
G04 #@! TO.C,D106*
X286827000Y60832500D03*
X284927000Y60832500D03*
X285877000Y62707500D03*
G04 #@! TD*
D20*
G04 #@! TO.C,C9*
X4177000Y89535000D03*
X4177000Y88845000D03*
G04 #@! TD*
D27*
G04 #@! TO.C,J2*
X149336999Y96344999D03*
X150136999Y96344999D03*
D28*
X151286999Y96344999D03*
X152286999Y96344999D03*
X152786999Y96344999D03*
X153786999Y96344999D03*
D27*
X154936999Y96344999D03*
X155736999Y96344999D03*
X155736999Y96344999D03*
X154936999Y96344999D03*
D28*
X154286999Y96344999D03*
X153286999Y96344999D03*
X151786999Y96344999D03*
X150786999Y96344999D03*
D27*
X150136999Y96344999D03*
X149336999Y96344999D03*
G04 #@! TD*
D16*
G04 #@! TO.C,D100*
X27267000Y60832500D03*
X25367000Y60832500D03*
X26317000Y62707500D03*
G04 #@! TD*
D29*
G04 #@! TO.C,C27*
X158020952Y72086048D03*
X157533048Y72573952D03*
G04 #@! TD*
D15*
G04 #@! TO.C,C1*
X162672000Y78890000D03*
X161982000Y78890000D03*
G04 #@! TD*
D20*
G04 #@! TO.C,C11*
X10267000Y51435000D03*
X10267000Y50745000D03*
G04 #@! TD*
D29*
G04 #@! TO.C,C33*
X155720952Y71506048D03*
X155233048Y71993952D03*
G04 #@! TD*
D30*
G04 #@! TO.C,U6*
X163168371Y68288629D03*
X162037000Y69420000D03*
X162037000Y67157258D03*
X160905629Y68288629D03*
D31*
X162629202Y72557786D03*
X162912045Y72274943D03*
X163194887Y71992101D03*
X163477730Y71709258D03*
X163760573Y71426415D03*
X164043415Y71143573D03*
X164326258Y70860730D03*
X164609101Y70577887D03*
X164891944Y70295044D03*
X165174786Y70012202D03*
X165457629Y69729359D03*
X165740472Y69446516D03*
X166023314Y69163674D03*
X166306157Y68880831D03*
D32*
X166306157Y67696427D03*
X166023314Y67413584D03*
X165740472Y67130742D03*
X165457629Y66847899D03*
X165174786Y66565056D03*
X164891944Y66282214D03*
X164609101Y65999371D03*
X164326258Y65716528D03*
X164043415Y65433685D03*
X163760573Y65150843D03*
X163477730Y64868000D03*
X163194887Y64585157D03*
X162912045Y64302315D03*
X162629202Y64019472D03*
D31*
X161444798Y64019472D03*
X161161955Y64302315D03*
X160879113Y64585157D03*
X160596270Y64868000D03*
X160313427Y65150843D03*
X160030585Y65433685D03*
X159747742Y65716528D03*
X159464899Y65999371D03*
X159182056Y66282214D03*
X158899214Y66565056D03*
X158616371Y66847899D03*
X158333528Y67130742D03*
X158050686Y67413584D03*
X157767843Y67696427D03*
D32*
X157767843Y68880831D03*
X158050686Y69163674D03*
X158333528Y69446516D03*
X158616371Y69729359D03*
X158899214Y70012202D03*
X159182056Y70295044D03*
X159464899Y70577887D03*
X159747742Y70860730D03*
X160030585Y71143573D03*
X160313427Y71426415D03*
X160596270Y71709258D03*
X160879113Y71992101D03*
X161161955Y72274943D03*
X161444798Y72557786D03*
G04 #@! TD*
D16*
G04 #@! TO.C,D117*
X213007000Y22732500D03*
X211107000Y22732500D03*
X212057000Y24607500D03*
G04 #@! TD*
D20*
G04 #@! TO.C,C13*
X5537000Y13345000D03*
X5537000Y12655000D03*
G04 #@! TD*
G04 #@! TO.C,C16*
X161157000Y86435000D03*
X161157000Y85745000D03*
G04 #@! TD*
D16*
G04 #@! TO.C,D102*
X110617000Y60832500D03*
X108717000Y60832500D03*
X109667000Y62707500D03*
G04 #@! TD*
G04 #@! TO.C,D113*
X267777000Y45282500D03*
X265877000Y45282500D03*
X266827000Y47157500D03*
G04 #@! TD*
G04 #@! TO.C,D114*
X286827000Y41782500D03*
X284927000Y41782500D03*
X285877000Y43657500D03*
G04 #@! TD*
D33*
G04 #@! TO.C,R4*
X156522000Y95400000D03*
X157212000Y95400000D03*
G04 #@! TD*
D16*
G04 #@! TO.C,D87*
X134427000Y98932500D03*
X132527000Y98932500D03*
X133477000Y100807500D03*
G04 #@! TD*
D33*
G04 #@! TO.C,C25*
X150842000Y66970000D03*
X151532000Y66970000D03*
G04 #@! TD*
D34*
G04 #@! TO.C,D9*
X173297000Y88950000D03*
X171197000Y88950000D03*
X171197000Y92400000D03*
X173297000Y92400000D03*
G04 #@! TD*
D19*
G04 #@! TO.C,R20*
X165443048Y61866048D03*
X165930952Y62353952D03*
G04 #@! TD*
D16*
G04 #@! TO.C,D86*
X96327000Y98932500D03*
X94427000Y98932500D03*
X95377000Y100807500D03*
G04 #@! TD*
D35*
G04 #@! TO.C,C40*
X165007000Y85770000D03*
X165007000Y84810000D03*
G04 #@! TD*
D16*
G04 #@! TO.C,D97*
X220147000Y79882500D03*
X218247000Y79882500D03*
X219197000Y81757500D03*
G04 #@! TD*
D29*
G04 #@! TO.C,C24*
X165630952Y59196048D03*
X165143048Y59683952D03*
G04 #@! TD*
D16*
G04 #@! TO.C,D85*
X58227000Y98922500D03*
X56327000Y98922500D03*
X57277000Y100797500D03*
G04 #@! TD*
D36*
G04 #@! TO.C,C35*
X165460952Y62833952D03*
X164973048Y62346048D03*
G04 #@! TD*
D19*
G04 #@! TO.C,C28*
X165933048Y70756048D03*
X166420952Y71243952D03*
G04 #@! TD*
D34*
G04 #@! TO.C,D8*
X154197000Y88940000D03*
X152097000Y88940000D03*
X152097000Y92390000D03*
X154197000Y92390000D03*
G04 #@! TD*
D23*
G04 #@! TO.C,C23*
X167853048Y62383952D03*
X168340952Y61896048D03*
G04 #@! TD*
D17*
G04 #@! TO.C,D10*
X188877000Y89650000D03*
X188877000Y91750000D03*
X192327000Y91750000D03*
X192327000Y89650000D03*
G04 #@! TD*
D16*
G04 #@! TO.C,D98*
X263007000Y83382500D03*
X261107000Y83382500D03*
X262057000Y85257500D03*
G04 #@! TD*
D23*
G04 #@! TO.C,R1*
X156563048Y71593952D03*
X157050952Y71106048D03*
G04 #@! TD*
D15*
G04 #@! TO.C,C34*
X154022000Y66980000D03*
X153332000Y66980000D03*
G04 #@! TD*
D16*
G04 #@! TO.C,D94*
X105847000Y79882500D03*
X103947000Y79882500D03*
X104897000Y81757500D03*
G04 #@! TD*
D37*
G04 #@! TO.C,U7*
X147136999Y84919999D03*
X147136999Y85419999D03*
X147136999Y85919999D03*
X148636999Y85919999D03*
X148636999Y85419999D03*
X148636999Y84919999D03*
G04 #@! TD*
D15*
G04 #@! TO.C,R3*
X148552000Y95400000D03*
X147862000Y95400000D03*
G04 #@! TD*
D19*
G04 #@! TO.C,C26*
X156493048Y69146048D03*
X156980952Y69633952D03*
G04 #@! TD*
D33*
G04 #@! TO.C,R5*
X164242000Y81440000D03*
X164932000Y81440000D03*
G04 #@! TD*
D17*
G04 #@! TO.C,D13*
X250067000Y89630000D03*
X250067000Y91730000D03*
X253517000Y91730000D03*
X253517000Y89630000D03*
G04 #@! TD*
D16*
G04 #@! TO.C,D111*
X177287000Y41782500D03*
X175387000Y41782500D03*
X176337000Y43657500D03*
G04 #@! TD*
D35*
G04 #@! TO.C,C15*
X159637000Y85780000D03*
X159637000Y84820000D03*
G04 #@! TD*
D38*
G04 #@! TO.C,D7*
X132437000Y92440000D03*
X134537000Y92440000D03*
X134537000Y88990000D03*
X132437000Y88990000D03*
G04 #@! TD*
D39*
G04 #@! TO.C,D120*
X158467000Y82970000D03*
X158467000Y85770000D03*
G04 #@! TD*
D40*
G04 #@! TO.C,F1*
X155289500Y85770000D03*
X157164500Y85770000D03*
G04 #@! TD*
D16*
G04 #@! TO.C,D89*
X210167000Y95862500D03*
X208267000Y95862500D03*
X209217000Y97737500D03*
G04 #@! TD*
D17*
G04 #@! TO.C,D1*
X17427000Y89650000D03*
X17427000Y91750000D03*
X20877000Y91750000D03*
X20877000Y89650000D03*
G04 #@! TD*
G04 #@! TO.C,D3*
X55527000Y89650000D03*
X55527000Y91750000D03*
X58977000Y91750000D03*
X58977000Y89650000D03*
G04 #@! TD*
D16*
G04 #@! TO.C,D112*
X215387000Y41782500D03*
X213487000Y41782500D03*
X214437000Y43657500D03*
G04 #@! TD*
D19*
G04 #@! TO.C,R17*
X162893048Y73826048D03*
X163380952Y74313952D03*
G04 #@! TD*
D16*
G04 #@! TO.C,D103*
X148717000Y60832500D03*
X146817000Y60832500D03*
X147767000Y62707500D03*
G04 #@! TD*
D17*
G04 #@! TO.C,D11*
X207927000Y89650000D03*
X207927000Y91750000D03*
X211377000Y91750000D03*
X211377000Y89650000D03*
G04 #@! TD*
D20*
G04 #@! TO.C,C10*
X7867000Y70495000D03*
X7867000Y69805000D03*
G04 #@! TD*
D16*
G04 #@! TO.C,D119*
X286827000Y22732500D03*
X284927000Y22732500D03*
X285877000Y24607500D03*
G04 #@! TD*
D17*
G04 #@! TO.C,D12*
X226987000Y89650000D03*
X226987000Y91750000D03*
X230437000Y91750000D03*
X230437000Y89650000D03*
G04 #@! TD*
D20*
G04 #@! TO.C,C14*
X19157000Y87675000D03*
X19157000Y86985000D03*
G04 #@! TD*
D16*
G04 #@! TO.C,D115*
X22507000Y26222500D03*
X20607000Y26222500D03*
X21557000Y28097500D03*
G04 #@! TD*
G04 #@! TO.C,D101*
X72507000Y60832500D03*
X70607000Y60832500D03*
X71557000Y62707500D03*
G04 #@! TD*
G04 #@! TO.C,D105*
X224917000Y60832500D03*
X223017000Y60832500D03*
X223967000Y62707500D03*
G04 #@! TD*
G04 #@! TO.C,D93*
X67747000Y79882500D03*
X65847000Y79882500D03*
X66797000Y81757500D03*
G04 #@! TD*
D17*
G04 #@! TO.C,D14*
X281247000Y89640000D03*
X281247000Y91740000D03*
X284697000Y91740000D03*
X284697000Y89640000D03*
G04 #@! TD*
D16*
G04 #@! TO.C,D118*
X267777000Y22732500D03*
X265877000Y22732500D03*
X266827000Y24607500D03*
G04 #@! TD*
D23*
G04 #@! TO.C,C29*
X166483048Y64453952D03*
X166970952Y63966048D03*
G04 #@! TD*
D16*
G04 #@! TO.C,D99*
X286827000Y83382500D03*
X284927000Y83382500D03*
X285877000Y85257500D03*
G04 #@! TD*
D35*
G04 #@! TO.C,C39*
X162457000Y85780000D03*
X162457000Y84820000D03*
G04 #@! TD*
M02*
