G04 #@! TF.GenerationSoftware,KiCad,Pcbnew,(7.0.0)*
G04 #@! TF.CreationDate,2023-05-11T10:29:33-07:00*
G04 #@! TF.ProjectId,pcb-rails,7063622d-7261-4696-9c73-2e6b69636164,1.0*
G04 #@! TF.SameCoordinates,Original*
G04 #@! TF.FileFunction,Legend,Top*
G04 #@! TF.FilePolarity,Positive*
%FSLAX46Y46*%
G04 Gerber Fmt 4.6, Leading zero omitted, Abs format (unit mm)*
G04 Created by KiCad (PCBNEW (7.0.0)) date 2023-05-11 10:29:33*
%MOMM*%
%LPD*%
G01*
G04 APERTURE LIST*
%ADD10C,0.300000*%
G04 APERTURE END LIST*
D10*
X132703072Y108520358D02*
X132917358Y108448929D01*
X132917358Y108448929D02*
X133274500Y108448929D01*
X133274500Y108448929D02*
X133417358Y108520358D01*
X133417358Y108520358D02*
X133488786Y108591786D01*
X133488786Y108591786D02*
X133560215Y108734643D01*
X133560215Y108734643D02*
X133560215Y108877500D01*
X133560215Y108877500D02*
X133488786Y109020358D01*
X133488786Y109020358D02*
X133417358Y109091786D01*
X133417358Y109091786D02*
X133274500Y109163215D01*
X133274500Y109163215D02*
X132988786Y109234643D01*
X132988786Y109234643D02*
X132845929Y109306072D01*
X132845929Y109306072D02*
X132774500Y109377500D01*
X132774500Y109377500D02*
X132703072Y109520358D01*
X132703072Y109520358D02*
X132703072Y109663215D01*
X132703072Y109663215D02*
X132774500Y109806072D01*
X132774500Y109806072D02*
X132845929Y109877500D01*
X132845929Y109877500D02*
X132988786Y109948929D01*
X132988786Y109948929D02*
X133345929Y109948929D01*
X133345929Y109948929D02*
X133560215Y109877500D01*
X134060214Y109448929D02*
X134417357Y108448929D01*
X134774500Y109448929D02*
X134417357Y108448929D01*
X134417357Y108448929D02*
X134274500Y108091786D01*
X134274500Y108091786D02*
X134203071Y108020358D01*
X134203071Y108020358D02*
X134060214Y107948929D01*
X135345928Y109448929D02*
X135345928Y108448929D01*
X135345928Y109306072D02*
X135417357Y109377500D01*
X135417357Y109377500D02*
X135560214Y109448929D01*
X135560214Y109448929D02*
X135774500Y109448929D01*
X135774500Y109448929D02*
X135917357Y109377500D01*
X135917357Y109377500D02*
X135988786Y109234643D01*
X135988786Y109234643D02*
X135988786Y108448929D01*
X136488786Y109448929D02*
X137060214Y109448929D01*
X136703071Y109948929D02*
X136703071Y108663215D01*
X136703071Y108663215D02*
X136774500Y108520358D01*
X136774500Y108520358D02*
X136917357Y108448929D01*
X136917357Y108448929D02*
X137060214Y108448929D01*
X137560214Y108448929D02*
X137560214Y109948929D01*
X138203072Y108448929D02*
X138203072Y109234643D01*
X138203072Y109234643D02*
X138131643Y109377500D01*
X138131643Y109377500D02*
X137988786Y109448929D01*
X137988786Y109448929D02*
X137774500Y109448929D01*
X137774500Y109448929D02*
X137631643Y109377500D01*
X137631643Y109377500D02*
X137560214Y109306072D01*
X139631643Y108448929D02*
X138917357Y108448929D01*
X138917357Y108448929D02*
X138917357Y109948929D01*
X140774501Y108448929D02*
X140774501Y109234643D01*
X140774501Y109234643D02*
X140703072Y109377500D01*
X140703072Y109377500D02*
X140560215Y109448929D01*
X140560215Y109448929D02*
X140274501Y109448929D01*
X140274501Y109448929D02*
X140131643Y109377500D01*
X140774501Y108520358D02*
X140631643Y108448929D01*
X140631643Y108448929D02*
X140274501Y108448929D01*
X140274501Y108448929D02*
X140131643Y108520358D01*
X140131643Y108520358D02*
X140060215Y108663215D01*
X140060215Y108663215D02*
X140060215Y108806072D01*
X140060215Y108806072D02*
X140131643Y108948929D01*
X140131643Y108948929D02*
X140274501Y109020358D01*
X140274501Y109020358D02*
X140631643Y109020358D01*
X140631643Y109020358D02*
X140774501Y109091786D01*
X141488786Y108448929D02*
X141488786Y109948929D01*
X141488786Y109377500D02*
X141631644Y109448929D01*
X141631644Y109448929D02*
X141917358Y109448929D01*
X141917358Y109448929D02*
X142060215Y109377500D01*
X142060215Y109377500D02*
X142131644Y109306072D01*
X142131644Y109306072D02*
X142203072Y109163215D01*
X142203072Y109163215D02*
X142203072Y108734643D01*
X142203072Y108734643D02*
X142131644Y108591786D01*
X142131644Y108591786D02*
X142060215Y108520358D01*
X142060215Y108520358D02*
X141917358Y108448929D01*
X141917358Y108448929D02*
X141631644Y108448929D01*
X141631644Y108448929D02*
X141488786Y108520358D01*
X142774501Y108520358D02*
X142917358Y108448929D01*
X142917358Y108448929D02*
X143203072Y108448929D01*
X143203072Y108448929D02*
X143345929Y108520358D01*
X143345929Y108520358D02*
X143417358Y108663215D01*
X143417358Y108663215D02*
X143417358Y108734643D01*
X143417358Y108734643D02*
X143345929Y108877500D01*
X143345929Y108877500D02*
X143203072Y108948929D01*
X143203072Y108948929D02*
X142988787Y108948929D01*
X142988787Y108948929D02*
X142845929Y109020358D01*
X142845929Y109020358D02*
X142774501Y109163215D01*
X142774501Y109163215D02*
X142774501Y109234643D01*
X142774501Y109234643D02*
X142845929Y109377500D01*
X142845929Y109377500D02*
X142988787Y109448929D01*
X142988787Y109448929D02*
X143203072Y109448929D01*
X143203072Y109448929D02*
X143345929Y109377500D01*
X145245930Y109948929D02*
X145388787Y109948929D01*
X145388787Y109948929D02*
X145531644Y109877500D01*
X145531644Y109877500D02*
X145603073Y109806072D01*
X145603073Y109806072D02*
X145674501Y109663215D01*
X145674501Y109663215D02*
X145745930Y109377500D01*
X145745930Y109377500D02*
X145745930Y109020358D01*
X145745930Y109020358D02*
X145674501Y108734643D01*
X145674501Y108734643D02*
X145603073Y108591786D01*
X145603073Y108591786D02*
X145531644Y108520358D01*
X145531644Y108520358D02*
X145388787Y108448929D01*
X145388787Y108448929D02*
X145245930Y108448929D01*
X145245930Y108448929D02*
X145103073Y108520358D01*
X145103073Y108520358D02*
X145031644Y108591786D01*
X145031644Y108591786D02*
X144960215Y108734643D01*
X144960215Y108734643D02*
X144888787Y109020358D01*
X144888787Y109020358D02*
X144888787Y109377500D01*
X144888787Y109377500D02*
X144960215Y109663215D01*
X144960215Y109663215D02*
X145031644Y109806072D01*
X145031644Y109806072D02*
X145103073Y109877500D01*
X145103073Y109877500D02*
X145245930Y109948929D01*
X147031644Y109948929D02*
X146745929Y109948929D01*
X146745929Y109948929D02*
X146603072Y109877500D01*
X146603072Y109877500D02*
X146531644Y109806072D01*
X146531644Y109806072D02*
X146388786Y109591786D01*
X146388786Y109591786D02*
X146317358Y109306072D01*
X146317358Y109306072D02*
X146317358Y108734643D01*
X146317358Y108734643D02*
X146388786Y108591786D01*
X146388786Y108591786D02*
X146460215Y108520358D01*
X146460215Y108520358D02*
X146603072Y108448929D01*
X146603072Y108448929D02*
X146888786Y108448929D01*
X146888786Y108448929D02*
X147031644Y108520358D01*
X147031644Y108520358D02*
X147103072Y108591786D01*
X147103072Y108591786D02*
X147174501Y108734643D01*
X147174501Y108734643D02*
X147174501Y109091786D01*
X147174501Y109091786D02*
X147103072Y109234643D01*
X147103072Y109234643D02*
X147031644Y109306072D01*
X147031644Y109306072D02*
X146888786Y109377500D01*
X146888786Y109377500D02*
X146603072Y109377500D01*
X146603072Y109377500D02*
X146460215Y109306072D01*
X146460215Y109306072D02*
X146388786Y109234643D01*
X146388786Y109234643D02*
X146317358Y109091786D01*
X148531643Y109948929D02*
X147817357Y109948929D01*
X147817357Y109948929D02*
X147745929Y109234643D01*
X147745929Y109234643D02*
X147817357Y109306072D01*
X147817357Y109306072D02*
X147960215Y109377500D01*
X147960215Y109377500D02*
X148317357Y109377500D01*
X148317357Y109377500D02*
X148460215Y109306072D01*
X148460215Y109306072D02*
X148531643Y109234643D01*
X148531643Y109234643D02*
X148603072Y109091786D01*
X148603072Y109091786D02*
X148603072Y108734643D01*
X148603072Y108734643D02*
X148531643Y108591786D01*
X148531643Y108591786D02*
X148460215Y108520358D01*
X148460215Y108520358D02*
X148317357Y108448929D01*
X148317357Y108448929D02*
X147960215Y108448929D01*
X147960215Y108448929D02*
X147817357Y108520358D01*
X147817357Y108520358D02*
X147745929Y108591786D01*
X150145928Y108448929D02*
X150145928Y109948929D01*
X150145928Y109948929D02*
X150717357Y109948929D01*
X150717357Y109948929D02*
X150860214Y109877500D01*
X150860214Y109877500D02*
X150931643Y109806072D01*
X150931643Y109806072D02*
X151003071Y109663215D01*
X151003071Y109663215D02*
X151003071Y109448929D01*
X151003071Y109448929D02*
X150931643Y109306072D01*
X150931643Y109306072D02*
X150860214Y109234643D01*
X150860214Y109234643D02*
X150717357Y109163215D01*
X150717357Y109163215D02*
X150145928Y109163215D01*
X152503071Y108591786D02*
X152431643Y108520358D01*
X152431643Y108520358D02*
X152217357Y108448929D01*
X152217357Y108448929D02*
X152074500Y108448929D01*
X152074500Y108448929D02*
X151860214Y108520358D01*
X151860214Y108520358D02*
X151717357Y108663215D01*
X151717357Y108663215D02*
X151645928Y108806072D01*
X151645928Y108806072D02*
X151574500Y109091786D01*
X151574500Y109091786D02*
X151574500Y109306072D01*
X151574500Y109306072D02*
X151645928Y109591786D01*
X151645928Y109591786D02*
X151717357Y109734643D01*
X151717357Y109734643D02*
X151860214Y109877500D01*
X151860214Y109877500D02*
X152074500Y109948929D01*
X152074500Y109948929D02*
X152217357Y109948929D01*
X152217357Y109948929D02*
X152431643Y109877500D01*
X152431643Y109877500D02*
X152503071Y109806072D01*
X153645928Y109234643D02*
X153860214Y109163215D01*
X153860214Y109163215D02*
X153931643Y109091786D01*
X153931643Y109091786D02*
X154003071Y108948929D01*
X154003071Y108948929D02*
X154003071Y108734643D01*
X154003071Y108734643D02*
X153931643Y108591786D01*
X153931643Y108591786D02*
X153860214Y108520358D01*
X153860214Y108520358D02*
X153717357Y108448929D01*
X153717357Y108448929D02*
X153145928Y108448929D01*
X153145928Y108448929D02*
X153145928Y109948929D01*
X153145928Y109948929D02*
X153645928Y109948929D01*
X153645928Y109948929D02*
X153788786Y109877500D01*
X153788786Y109877500D02*
X153860214Y109806072D01*
X153860214Y109806072D02*
X153931643Y109663215D01*
X153931643Y109663215D02*
X153931643Y109520358D01*
X153931643Y109520358D02*
X153860214Y109377500D01*
X153860214Y109377500D02*
X153788786Y109306072D01*
X153788786Y109306072D02*
X153645928Y109234643D01*
X153645928Y109234643D02*
X153145928Y109234643D01*
X155545928Y108448929D02*
X155545928Y109948929D01*
X155545928Y109377500D02*
X155688786Y109448929D01*
X155688786Y109448929D02*
X155974500Y109448929D01*
X155974500Y109448929D02*
X156117357Y109377500D01*
X156117357Y109377500D02*
X156188786Y109306072D01*
X156188786Y109306072D02*
X156260214Y109163215D01*
X156260214Y109163215D02*
X156260214Y108734643D01*
X156260214Y108734643D02*
X156188786Y108591786D01*
X156188786Y108591786D02*
X156117357Y108520358D01*
X156117357Y108520358D02*
X155974500Y108448929D01*
X155974500Y108448929D02*
X155688786Y108448929D01*
X155688786Y108448929D02*
X155545928Y108520358D01*
X156760214Y109448929D02*
X157117357Y108448929D01*
X157474500Y109448929D02*
X157117357Y108448929D01*
X157117357Y108448929D02*
X156974500Y108091786D01*
X156974500Y108091786D02*
X156903071Y108020358D01*
X156903071Y108020358D02*
X156760214Y107948929D01*
X159231643Y109948929D02*
X159374500Y109948929D01*
X159374500Y109948929D02*
X159517357Y109877500D01*
X159517357Y109877500D02*
X159588786Y109806072D01*
X159588786Y109806072D02*
X159660214Y109663215D01*
X159660214Y109663215D02*
X159731643Y109377500D01*
X159731643Y109377500D02*
X159731643Y109020358D01*
X159731643Y109020358D02*
X159660214Y108734643D01*
X159660214Y108734643D02*
X159588786Y108591786D01*
X159588786Y108591786D02*
X159517357Y108520358D01*
X159517357Y108520358D02*
X159374500Y108448929D01*
X159374500Y108448929D02*
X159231643Y108448929D01*
X159231643Y108448929D02*
X159088786Y108520358D01*
X159088786Y108520358D02*
X159017357Y108591786D01*
X159017357Y108591786D02*
X158945928Y108734643D01*
X158945928Y108734643D02*
X158874500Y109020358D01*
X158874500Y109020358D02*
X158874500Y109377500D01*
X158874500Y109377500D02*
X158945928Y109663215D01*
X158945928Y109663215D02*
X159017357Y109806072D01*
X159017357Y109806072D02*
X159088786Y109877500D01*
X159088786Y109877500D02*
X159231643Y109948929D01*
X160231642Y108448929D02*
X161017357Y109448929D01*
X160231642Y109448929D02*
X161017357Y108448929D01*
X162445928Y108591786D02*
X162374500Y108520358D01*
X162374500Y108520358D02*
X162160214Y108448929D01*
X162160214Y108448929D02*
X162017357Y108448929D01*
X162017357Y108448929D02*
X161803071Y108520358D01*
X161803071Y108520358D02*
X161660214Y108663215D01*
X161660214Y108663215D02*
X161588785Y108806072D01*
X161588785Y108806072D02*
X161517357Y109091786D01*
X161517357Y109091786D02*
X161517357Y109306072D01*
X161517357Y109306072D02*
X161588785Y109591786D01*
X161588785Y109591786D02*
X161660214Y109734643D01*
X161660214Y109734643D02*
X161803071Y109877500D01*
X161803071Y109877500D02*
X162017357Y109948929D01*
X162017357Y109948929D02*
X162160214Y109948929D01*
X162160214Y109948929D02*
X162374500Y109877500D01*
X162374500Y109877500D02*
X162445928Y109806072D01*
X163588785Y109234643D02*
X163803071Y109163215D01*
X163803071Y109163215D02*
X163874500Y109091786D01*
X163874500Y109091786D02*
X163945928Y108948929D01*
X163945928Y108948929D02*
X163945928Y108734643D01*
X163945928Y108734643D02*
X163874500Y108591786D01*
X163874500Y108591786D02*
X163803071Y108520358D01*
X163803071Y108520358D02*
X163660214Y108448929D01*
X163660214Y108448929D02*
X163088785Y108448929D01*
X163088785Y108448929D02*
X163088785Y109948929D01*
X163088785Y109948929D02*
X163588785Y109948929D01*
X163588785Y109948929D02*
X163731643Y109877500D01*
X163731643Y109877500D02*
X163803071Y109806072D01*
X163803071Y109806072D02*
X163874500Y109663215D01*
X163874500Y109663215D02*
X163874500Y109520358D01*
X163874500Y109520358D02*
X163803071Y109377500D01*
X163803071Y109377500D02*
X163731643Y109306072D01*
X163731643Y109306072D02*
X163588785Y109234643D01*
X163588785Y109234643D02*
X163088785Y109234643D01*
X166345928Y108448929D02*
X165845928Y109163215D01*
X165488785Y108448929D02*
X165488785Y109948929D01*
X165488785Y109948929D02*
X166060214Y109948929D01*
X166060214Y109948929D02*
X166203071Y109877500D01*
X166203071Y109877500D02*
X166274500Y109806072D01*
X166274500Y109806072D02*
X166345928Y109663215D01*
X166345928Y109663215D02*
X166345928Y109448929D01*
X166345928Y109448929D02*
X166274500Y109306072D01*
X166274500Y109306072D02*
X166203071Y109234643D01*
X166203071Y109234643D02*
X166060214Y109163215D01*
X166060214Y109163215D02*
X165488785Y109163215D01*
X167560214Y108520358D02*
X167417357Y108448929D01*
X167417357Y108448929D02*
X167131643Y108448929D01*
X167131643Y108448929D02*
X166988785Y108520358D01*
X166988785Y108520358D02*
X166917357Y108663215D01*
X166917357Y108663215D02*
X166917357Y109234643D01*
X166917357Y109234643D02*
X166988785Y109377500D01*
X166988785Y109377500D02*
X167131643Y109448929D01*
X167131643Y109448929D02*
X167417357Y109448929D01*
X167417357Y109448929D02*
X167560214Y109377500D01*
X167560214Y109377500D02*
X167631643Y109234643D01*
X167631643Y109234643D02*
X167631643Y109091786D01*
X167631643Y109091786D02*
X166917357Y108948929D01*
X168131642Y109448929D02*
X168488785Y108448929D01*
X168488785Y108448929D02*
X168845928Y109448929D01*
X170203071Y108448929D02*
X169345928Y108448929D01*
X169774499Y108448929D02*
X169774499Y109948929D01*
X169774499Y109948929D02*
X169631642Y109734643D01*
X169631642Y109734643D02*
X169488785Y109591786D01*
X169488785Y109591786D02*
X169345928Y109520358D01*
X170845927Y108591786D02*
X170917356Y108520358D01*
X170917356Y108520358D02*
X170845927Y108448929D01*
X170845927Y108448929D02*
X170774499Y108520358D01*
X170774499Y108520358D02*
X170845927Y108591786D01*
X170845927Y108591786D02*
X170845927Y108448929D01*
X171845928Y109948929D02*
X171988785Y109948929D01*
X171988785Y109948929D02*
X172131642Y109877500D01*
X172131642Y109877500D02*
X172203071Y109806072D01*
X172203071Y109806072D02*
X172274499Y109663215D01*
X172274499Y109663215D02*
X172345928Y109377500D01*
X172345928Y109377500D02*
X172345928Y109020358D01*
X172345928Y109020358D02*
X172274499Y108734643D01*
X172274499Y108734643D02*
X172203071Y108591786D01*
X172203071Y108591786D02*
X172131642Y108520358D01*
X172131642Y108520358D02*
X171988785Y108448929D01*
X171988785Y108448929D02*
X171845928Y108448929D01*
X171845928Y108448929D02*
X171703071Y108520358D01*
X171703071Y108520358D02*
X171631642Y108591786D01*
X171631642Y108591786D02*
X171560213Y108734643D01*
X171560213Y108734643D02*
X171488785Y109020358D01*
X171488785Y109020358D02*
X171488785Y109377500D01*
X171488785Y109377500D02*
X171560213Y109663215D01*
X171560213Y109663215D02*
X171631642Y109806072D01*
X171631642Y109806072D02*
X171703071Y109877500D01*
X171703071Y109877500D02*
X171845928Y109948929D01*
M02*
