M48
; DRILL file {KiCad 7.0.0-da2b9df05c~165~ubuntu22.04.1} date Tue Apr 25 17:32:56 2023
; FORMAT={-:-/ absolute / metric / decimal}
; #@! TF.CreationDate,2023-04-25T17:32:56+00:00
; #@! TF.GenerationSoftware,Kicad,Pcbnew,7.0.0-da2b9df05c~165~ubuntu22.04.1
; #@! TF.FileFunction,MixedPlating,1,2
FMAT,2
METRIC
; #@! TA.AperFunction,Plated,PTH,ViaDrill
T1C0.300
; #@! TA.AperFunction,Plated,PTH,ViaDrill
T2C0.400
; #@! TA.AperFunction,Plated,PTH,ComponentDrill
T3C0.600
; #@! TA.AperFunction,NonPlated,NPTH,ComponentDrill
T4C0.650
; #@! TA.AperFunction,NonPlated,NPTH,ComponentDrill
T5C1.067
; #@! TA.AperFunction,NonPlated,NPTH,ComponentDrill
T6C1.750
; #@! TA.AperFunction,NonPlated,NPTH,ComponentDrill
T7C2.000
; #@! TA.AperFunction,NonPlated,NPTH,ComponentDrill
T8C3.000
; #@! TA.AperFunction,NonPlated,NPTH,ComponentDrill
T9C3.048
; #@! TA.AperFunction,NonPlated,NPTH,ComponentDrill
T10C3.988
; #@! TA.AperFunction,NonPlated,NPTH,ComponentDrill
T11C4.000
%
G90
G05
T1
X8.127Y12.6
X45.797Y10.2
X67.297Y84.58
X102.457Y10.19
X136.267Y90.85
X144.624Y49.71
X146.457Y57.75
X147.977Y85.92
X148.107Y84.11
X148.877Y74.81
X149.337Y84.05
X150.237Y63.28
X150.627Y80.1
X150.657Y61.68
X151.507Y67.45
X151.567Y85.15
X152.157Y90.66
X152.207Y81.76
X152.657Y67.09
X152.877Y61.99
X153.037Y71.83
X153.277Y52.58
X153.847Y82.01
X153.947Y67.4
X154.117Y62.9
X154.587Y54.44
X154.687Y73.0
X154.687Y71.54
X155.059Y61.983
X155.097Y67.1
X155.117Y69.54
X155.347Y93.41
X155.467Y63.17
X155.867Y61.1
X156.127Y58.46
X156.597Y70.5
X156.597Y67.47
X157.247Y60.28
X157.377Y63.09
X157.507Y76.55
X158.527Y72.62
X158.527Y68.3
X159.327Y68.44
X159.407Y63.47
X160.134Y63.459
X160.447Y66.68
X160.689Y68.288
X161.097Y70.66
X161.247Y63.05
X161.33Y67.591
X161.386Y68.929
X161.437Y76.57
X161.538Y65.22
X161.974Y63.018
X162.036Y69.637
X162.037Y68.289
X162.038Y66.941
X162.047Y64.7
X162.497Y59.15
X162.497Y57.31
X162.677Y68.94
X162.734Y67.581
X163.028Y70.91
X163.117Y74.94
X163.257Y79.96
X163.317Y63.06
X163.372Y81.975
X163.385Y68.289
X164.017Y80.73
X164.097Y72.7
X164.247Y64.38
X164.277Y62.721
X164.717Y83.56
X164.857Y61.43
X165.037Y71.65
X165.137Y58.57
X165.195Y63.062
X165.261Y68.288
X165.484Y64.743
X165.888Y72.119
X165.897Y87.46
X166.287Y63.44
X166.398Y86.66
X166.407Y79.85
X166.567Y73.02
X167.327Y63.05
X167.897Y81.76
X168.547Y82.37
X168.747Y79.89
X168.977Y67.99
X169.321Y93.694
X169.667Y82.4
X169.977Y86.44
X170.227Y79.48
X170.357Y81.76
X173.397Y91.09
X174.587Y85.02
X178.807Y10.31
X179.88Y81.758
X184.157Y62.81
X204.117Y100.49
X254.667Y33.09
X257.047Y52.08
X267.107Y69.68
X271.197Y31.6
X283.237Y52.09
T2
X2.567Y94.44
X2.997Y20.18
X3.817Y85.49
X4.744Y85.513
X5.087Y77.34
X5.247Y90.45
X6.187Y49.54
X6.307Y25.04
X7.027Y39.23
X7.447Y58.29
X7.667Y86.57
X9.757Y66.86
X11.167Y83.02
X11.347Y85.72
X12.247Y90.32
X13.717Y64.67
X17.407Y90.69
X18.497Y71.21
X19.897Y66.74
X21.617Y94.4
X26.487Y99.99
X28.757Y22.1
X29.277Y12.06
X31.137Y75.41
X31.137Y64.513
X31.437Y10.7
X33.177Y69.69
X33.637Y89.69
X33.747Y58.29
X34.617Y87.72
X38.517Y49.08
X40.657Y94.42
X41.117Y39.24
X41.867Y87.27
X46.027Y32.25
X47.387Y77.34
X48.287Y64.89
X50.547Y12.02
X50.687Y20.19
X51.197Y70.29
X52.087Y58.29
X52.457Y89.77
X53.827Y87.62
X54.847Y83.04
X55.287Y10.61
X57.887Y49.14
X59.717Y94.42
X61.117Y86.96
X62.577Y39.25
X64.887Y32.34
X65.247Y46.1
X66.417Y77.34
X67.327Y65.268
X68.957Y51.74
X70.177Y70.29
X71.247Y58.29
X71.677Y89.9
X72.847Y87.61
X76.147Y49.08
X78.757Y94.42
X80.497Y86.9
X81.647Y39.24
X83.977Y32.02
X85.517Y77.34
X86.417Y65.645
X86.517Y11.92
X88.017Y80.88
X89.107Y70.35
X90.247Y58.29
X90.327Y89.58
X91.217Y10.68
X92.067Y87.67
X96.077Y49.14
X97.817Y94.41
X99.497Y87.02
X100.637Y39.24
X102.745Y32.295
X104.557Y77.34
X105.447Y66.023
X107.967Y70.29
X109.277Y58.29
X109.707Y89.66
X111.467Y87.52
X113.937Y12.11
X114.567Y8.62
X114.897Y49.08
X116.867Y94.45
X118.937Y87.02
X119.747Y39.25
X121.837Y32.2
X123.587Y77.34
X124.01Y18.21
X124.487Y66.4
X126.397Y80.88
X126.697Y10.59
X127.257Y70.33
X128.357Y58.29
X128.567Y89.78
X130.697Y88.84
X131.537Y87.07
X132.237Y29.59
X133.777Y49.39
X134.997Y87.59
X137.697Y83.78
X138.797Y39.24
X141.077Y95.79
X141.257Y32.16
X142.737Y45.07
X143.557Y77.34
X143.557Y66.778
X144.767Y96.56
X145.967Y70.37
X146.367Y62.33
X146.547Y79.88
X147.087Y99.67
X147.377Y58.3
X149.607Y93.088
X150.027Y95.07
X150.097Y89.6
X150.227Y82.82
X150.753Y88.944
X151.734Y71.831
X152.107Y93.53
X152.447Y98.2
X152.907Y49.2
X154.297Y102.06
X155.157Y95.12
X155.287Y86.992
X156.637Y81.6
X157.847Y39.25
X160.067Y32.29
X161.777Y84.04
X162.347Y50.92
X162.367Y10.67
X165.191Y75.72
X165.627Y56.89
X166.077Y99.67
X166.107Y98.17
X166.707Y97.21
X167.387Y58.29
X167.977Y71.79
X168.597Y98.16
X169.127Y89.34
X170.397Y93.47
X171.197Y90.25
X171.967Y49.33
X172.377Y90.34
X174.017Y94.48
X178.017Y62.877
X178.767Y37.42
X179.437Y32.39
X181.687Y77.34
X181.987Y63.27
X182.917Y73.02
X184.187Y70.33
X184.817Y58.86
X185.867Y60.83
X185.867Y58.21
X185.907Y89.95
X188.267Y11.64
X189.827Y87.7
X190.787Y49.26
X191.117Y61.99
X193.067Y94.4
X193.567Y20.19
X195.987Y39.24
X198.207Y32.2
X198.317Y10.84
X199.807Y77.34
X200.937Y63.66
X202.107Y83.36
X203.267Y70.37
X204.587Y58.29
X204.907Y89.7
X205.964Y87.465
X206.137Y8.61
X209.847Y49.33
X212.117Y94.47
X215.327Y39.24
X216.947Y100.06
X217.387Y20.19
X217.437Y32.2
X218.027Y11.85
X218.897Y77.33
X219.907Y64.038
X221.967Y10.7
X222.457Y70.33
X223.617Y58.3
X224.067Y89.88
X225.137Y87.89
X228.917Y49.57
X231.167Y94.49
X238.427Y77.34
X239.867Y64.415
X239.987Y39.24
X240.397Y32.25
X241.537Y70.37
X243.097Y89.94
X248.637Y46.49
X249.587Y87.37
X250.197Y18.38
X250.457Y12.79
X252.777Y10.76
X255.497Y58.29
X259.467Y49.82
X259.747Y94.44
X259.997Y64.793
X264.507Y75.28
X269.257Y18.28
X269.267Y37.47
X272.037Y10.6
X274.317Y89.25
X275.237Y59.63
X286.457Y70.23
X288.297Y56.42
X288.307Y65.17
X288.317Y94.43
X288.317Y75.44
X288.317Y37.29
X288.317Y18.37
X288.867Y12.34
X289.587Y32.16
T4
X149.647Y97.42
X155.427Y97.42
T5
X167.127Y84.986
X167.127Y82.954
X172.207Y83.97
T6
X4.569Y93.85
X6.951Y17.65
X9.332Y74.8
X11.713Y55.75
X14.729Y93.85
X16.476Y36.7
X17.111Y17.65
X19.492Y74.8
X21.873Y55.75
X23.619Y93.85
X26.636Y36.7
X30.763Y17.65
X33.145Y74.8
X33.779Y93.85
X37.907Y55.75
X40.923Y17.65
X42.669Y93.85
X43.304Y74.8
X47.432Y36.7
X48.067Y55.75
X52.194Y74.8
X52.829Y93.85
X54.576Y17.65
X56.957Y55.75
X57.592Y36.7
X61.719Y93.85
X62.354Y74.8
X64.736Y17.65
X66.482Y36.7
X67.117Y55.75
X71.245Y74.8
X71.879Y93.85
X76.007Y55.75
X76.642Y36.7
X80.769Y93.85
X81.404Y74.8
X85.532Y36.7
X86.167Y55.75
X90.294Y74.8
X90.929Y93.85
X95.057Y55.75
X95.692Y36.7
X99.819Y93.85
X100.454Y74.8
X104.582Y36.7
X105.217Y55.75
X109.344Y74.8
X109.98Y93.85
X114.107Y55.75
X114.742Y36.7
X118.869Y93.85
X119.504Y74.8
X123.632Y36.7
X124.267Y55.75
X126.013Y17.65
X128.394Y74.8
X129.029Y93.85
X133.157Y55.75
X133.792Y36.7
X136.173Y17.65
X137.919Y93.85
X138.554Y74.8
X142.682Y36.7
X143.317Y55.75
X147.445Y74.8
X148.079Y93.85
X152.207Y55.75
X152.842Y36.7
X156.969Y93.85
X157.605Y74.8
X161.732Y36.7
X162.367Y55.75
X166.494Y74.8
X167.129Y93.85
X171.257Y55.75
X171.892Y36.7
X176.019Y93.85
X176.654Y74.8
X180.782Y36.7
X181.417Y55.75
X185.544Y74.8
X186.179Y93.85
X190.307Y55.75
X190.942Y36.7
X195.07Y93.85
X195.704Y74.8
X197.451Y17.65
X199.832Y36.7
X200.467Y55.75
X204.594Y74.8
X205.23Y93.85
X207.611Y17.65
X209.357Y55.75
X209.992Y36.7
X214.119Y93.85
X214.754Y74.8
X218.882Y36.7
X219.517Y55.75
X221.263Y17.65
X223.644Y74.8
X224.279Y93.85
X228.407Y55.75
X229.042Y36.7
X231.423Y17.65
X233.169Y93.85
X233.804Y74.8
X238.567Y55.75
X242.694Y74.8
X243.329Y93.85
X245.076Y36.7
X252.219Y17.65
X252.855Y74.8
X255.236Y36.7
X259.363Y55.75
X261.745Y93.85
X262.38Y17.65
X266.507Y74.8
X269.523Y55.75
X271.269Y36.7
X271.269Y17.65
X271.904Y93.85
X276.667Y74.8
X281.429Y36.7
X281.429Y17.65
X290.32Y93.85
X290.32Y74.8
X290.32Y55.75
X290.32Y36.7
X290.32Y17.65
X300.479Y93.85
X300.479Y74.8
X300.479Y55.75
X300.479Y36.7
X300.479Y17.65
T7
X2.5Y109.0
X2.5Y2.5
X302.549Y109.0
T8
X5.84Y96.39
X8.221Y20.19
X10.602Y77.34
X12.189Y98.93
X12.983Y58.29
X14.571Y22.73
X16.952Y79.88
X17.746Y39.24
X19.333Y60.83
X24.096Y41.78
X24.889Y96.39
X31.239Y98.93
X32.033Y20.19
X34.414Y77.34
X38.383Y22.73
X39.177Y58.29
X40.764Y79.88
X43.939Y96.39
X45.527Y60.83
X48.702Y39.24
X50.289Y98.93
X53.465Y77.34
X55.052Y41.78
X55.846Y20.19
X58.227Y58.29
X59.814Y79.88
X62.196Y22.73
X62.989Y96.39
X64.577Y60.83
X67.752Y39.24
X69.34Y98.93
X72.514Y77.34
X74.102Y41.78
X77.277Y58.29
X78.864Y79.88
X82.039Y96.39
X83.627Y60.83
X86.802Y39.24
X88.389Y98.93
X91.564Y77.34
X93.152Y41.78
X96.327Y58.29
X97.914Y79.88
X101.09Y96.39
X102.677Y60.83
X105.852Y39.24
X107.439Y98.93
X110.614Y77.34
X112.202Y41.78
X115.377Y58.29
X116.965Y79.88
X120.139Y96.39
X121.727Y60.83
X124.902Y39.24
X126.489Y98.93
X127.283Y20.19
X129.665Y77.34
X131.252Y41.78
X133.633Y22.73
X134.427Y58.29
X136.014Y79.88
X140.459Y88.77
X140.777Y60.83
X143.952Y39.24
X146.809Y91.31
X148.714Y77.34
X150.302Y41.78
X153.477Y58.29
X155.064Y79.88
X159.51Y88.77
X159.827Y60.83
X163.002Y39.24
X165.859Y91.31
X167.764Y77.34
X169.352Y41.78
X172.527Y58.29
X174.114Y79.88
X177.29Y96.39
X178.877Y60.83
X182.052Y39.24
X183.639Y98.93
X186.814Y77.34
X188.402Y41.78
X191.577Y58.29
X193.165Y79.88
X196.339Y96.39
X197.927Y60.83
X198.721Y20.19
X201.102Y39.24
X202.689Y98.93
X205.071Y22.73
X205.864Y77.34
X207.452Y41.78
X210.627Y58.29
X212.214Y79.88
X215.389Y96.39
X216.977Y60.83
X220.152Y39.24
X221.739Y98.93
X222.533Y20.19
X224.915Y77.34
X226.502Y41.78
X228.883Y22.73
X229.677Y58.29
X231.264Y79.88
X234.439Y96.39
X236.027Y60.83
X240.789Y98.93
X243.964Y77.34
X246.346Y39.24
X250.314Y79.88
X252.696Y41.78
X253.489Y20.19
X259.839Y22.73
X260.633Y58.29
X263.014Y96.39
X266.983Y60.83
X267.777Y77.34
X269.364Y98.93
X272.539Y39.24
X272.539Y20.19
X274.127Y79.88
X278.889Y41.78
X278.889Y22.73
X291.589Y96.39
X291.589Y77.34
X291.589Y58.29
X291.589Y39.24
X291.589Y20.19
X297.94Y98.93
X297.94Y79.88
X297.94Y60.83
X297.94Y41.78
X297.94Y22.73
T9
X9.618Y43.685
X33.494Y43.685
X81.093Y10.665
X181.093Y10.665
X252.505Y62.735
X254.886Y100.835
X276.381Y62.735
X278.762Y100.835
T10
X9.618Y28.445
X33.494Y28.445
X81.093Y25.905
X181.093Y25.905
X252.505Y47.495
X254.886Y85.595
X276.381Y47.495
X278.762Y85.595
T11
X9.649Y93.85
X12.031Y17.65
X14.412Y74.8
X16.793Y55.75
X21.556Y36.7
X28.7Y93.85
X35.843Y17.65
X38.224Y74.8
X42.987Y55.75
X47.749Y93.85
X52.512Y36.7
X57.274Y74.8
X59.656Y17.65
X62.037Y55.75
X66.799Y93.85
X71.562Y36.7
X76.325Y74.8
X81.087Y55.75
X85.849Y93.85
X90.612Y36.7
X95.374Y74.8
X100.137Y55.75
X104.899Y93.85
X109.662Y36.7
X114.424Y74.8
X119.187Y55.75
X123.95Y93.85
X128.712Y36.7
X131.093Y17.65
X133.475Y74.8
X138.237Y55.75
X142.999Y93.85
X147.762Y36.7
X152.524Y74.8
X157.287Y55.75
X162.049Y93.85
X166.812Y36.7
X171.575Y74.8
X176.337Y55.75
X181.099Y93.85
X185.862Y36.7
X190.624Y74.8
X195.387Y55.75
X200.149Y93.85
X202.531Y17.65
X204.912Y36.7
X209.674Y74.8
X214.437Y55.75
X219.2Y93.85
X223.962Y36.7
X226.343Y17.65
X228.724Y74.8
X233.487Y55.75
X238.249Y93.85
X247.774Y74.8
X250.156Y36.7
X257.299Y17.65
X264.443Y55.75
X266.825Y93.85
X271.587Y74.8
X276.349Y36.7
X276.349Y17.65
X295.399Y93.85
X295.399Y74.8
X295.399Y55.75
X295.399Y36.7
X295.399Y17.65
T3
X148.217Y101.5G85X148.217Y100.7
G05
X148.217Y97.47G85X148.217Y96.37
G05
X156.857Y101.5G85X156.857Y100.7
G05
X156.857Y97.47G85X156.857Y96.37
G05
T0
M30
